  0
SECTION
  2
HEADER
  9
$ACADVER
  1
AC1032
  9
$ACADMAINTVER
 90
      174
  9
$DWGCODEPAGE
  3
ANSI_1252
  9
$LASTSAVEDBY
  1
Elliot Powell
  9
$REQUIREDVERSIONS
160
                 0
  9
$INSBASE
 10
0.0
 20
0.0
 30
0.0
  9
$EXTMIN
 10
-0.1907420637537449
 20
-268.0892819776166
 30
0.0
  9
$EXTMAX
 10
475.0879268551027
 20
40.69632639944996
 30
0.0
  9
$LIMMIN
 10
0.0
 20
0.0
  9
$LIMMAX
 10
12.0
 20
9.0
  9
$ORTHOMODE
 70
     0
  9
$REGENMODE
 70
     1
  9
$FILLMODE
 70
     0
  9
$QTEXTMODE
 70
     0
  9
$MIRRTEXT
 70
     0
  9
$LTSCALE
 40
1.0
  9
$ATTMODE
 70
     1
  9
$TEXTSIZE
 40
0.2
  9
$TRACEWID
 40
0.05
  9
$TEXTSTYLE
  7
Standard
  9
$CLAYER
  8
0
  9
$CELTYPE
  6
Continuous
  9
$CECOLOR
 62
   244
  9
$CELTSCALE
 40
1.0
  9
$DISPSILH
 70
     0
  9
$DIMSCALE
 40
1.0
  9
$DIMASZ
 40
0.18
  9
$DIMEXO
 40
0.0625
  9
$DIMDLI
 40
0.38
  9
$DIMRND
 40
0.0
  9
$DIMDLE
 40
0.0
  9
$DIMEXE
 40
0.18
  9
$DIMTP
 40
0.0
  9
$DIMTM
 40
0.0
  9
$DIMTXT
 40
0.18
  9
$DIMCEN
 40
0.09
  9
$DIMTSZ
 40
0.0
  9
$DIMTOL
 70
     0
  9
$DIMLIM
 70
     0
  9
$DIMTIH
 70
     1
  9
$DIMTOH
 70
     1
  9
$DIMSE1
 70
     0
  9
$DIMSE2
 70
     0
  9
$DIMTAD
 70
     0
  9
$DIMZIN
 70
     0
  9
$DIMBLK
  1

  9
$DIMASO
 70
     1
  9
$DIMSHO
 70
     1
  9
$DIMPOST
  1

  9
$DIMAPOST
  1

  9
$DIMALT
 70
     0
  9
$DIMALTD
 70
     2
  9
$DIMALTF
 40
25.4
  9
$DIMLFAC
 40
1.0
  9
$DIMTOFL
 70
     0
  9
$DIMTVP
 40
0.0
  9
$DIMTIX
 70
     0
  9
$DIMSOXD
 70
     0
  9
$DIMSAH
 70
     0
  9
$DIMBLK1
  1

  9
$DIMBLK2
  1

  9
$DIMSTYLE
  2
Standard
  9
$DIMCLRD
 70
     0
  9
$DIMCLRE
 70
     0
  9
$DIMCLRT
 70
     0
  9
$DIMTFAC
 40
1.0
  9
$DIMGAP
 40
0.09
  9
$DIMJUST
 70
     0
  9
$DIMSD1
 70
     0
  9
$DIMSD2
 70
     0
  9
$DIMTOLJ
 70
     1
  9
$DIMTZIN
 70
     0
  9
$DIMALTZ
 70
     0
  9
$DIMALTTZ
 70
     0
  9
$DIMUPT
 70
     0
  9
$DIMDEC
 70
     4
  9
$DIMTDEC
 70
     4
  9
$DIMALTU
 70
     2
  9
$DIMALTTD
 70
     2
  9
$DIMTXSTY
  7
Standard
  9
$DIMAUNIT
 70
     0
  9
$DIMADEC
 70
     0
  9
$DIMALTRND
 40
0.0
  9
$DIMAZIN
 70
     0
  9
$DIMDSEP
 70
    46
  9
$DIMATFIT
 70
     3
  9
$DIMFRAC
 70
     0
  9
$DIMLDRBLK
  1

  9
$DIMLUNIT
 70
     2
  9
$DIMLWD
 70
    -2
  9
$DIMLWE
 70
    -2
  9
$DIMTMOVE
 70
     0
  9
$DIMFXL
 40
1.0
  9
$DIMFXLON
 70
     0
  9
$DIMJOGANG
 40
0.7853981633974483
  9
$DIMTFILL
 70
     0
  9
$DIMTFILLCLR
 70
     0
  9
$DIMARCSYM
 70
     0
  9
$DIMLTYPE
  6

  9
$DIMLTEX1
  6

  9
$DIMLTEX2
  6

  9
$DIMTXTDIRECTION
 70
     0
  9
$LUNITS
 70
     2
  9
$LUPREC
 70
     4
  9
$SKETCHINC
 40
0.1
  9
$FILLETRAD
 40
0.0
  9
$AUNITS
 70
     0
  9
$AUPREC
 70
     0
  9
$MENU
  1
.
  9
$ELEVATION
 40
0.0
  9
$PELEVATION
 40
0.0
  9
$THICKNESS
 40
0.0
  9
$LIMCHECK
 70
     0
  9
$CHAMFERA
 40
0.0
  9
$CHAMFERB
 40
0.0
  9
$CHAMFERC
 40
0.0
  9
$CHAMFERD
 40
0.0
  9
$SKPOLY
 70
     0
  9
$TDCREATE
 40
2459017.959155093
  9
$TDUCREATE
 40
2459017.917488426
  9
$TDUPDATE
 40
2459017.977546296
  9
$TDUUPDATE
 40
2459017.935879630
  9
$TDINDWG
 40
0.0183912037
  9
$TDUSRTIMER
 40
0.0183912037
  9
$USRTIMER
 70
     1
  9
$ANGBASE
 50
0.0
  9
$ANGDIR
 70
     0
  9
$PDMODE
 70
     0
  9
$PDSIZE
 40
0.0
  9
$PLINEWID
 40
0.0
  9
$SPLFRAME
 70
     1
  9
$SPLINETYPE
 70
     6
  9
$SPLINESEGS
 70
     8
  9
$HANDSEED
  5
BA3
  9
$SURFTAB1
 70
     6
  9
$SURFTAB2
 70
     6
  9
$SURFTYPE
 70
     6
  9
$SURFU
 70
     6
  9
$SURFV
 70
     6
  9
$UCSBASE
  2

  9
$UCSNAME
  2

  9
$UCSORG
 10
0.0
 20
0.0
 30
0.0
  9
$UCSXDIR
 10
1.0
 20
0.0
 30
0.0
  9
$UCSYDIR
 10
0.0
 20
1.0
 30
0.0
  9
$UCSORTHOREF
  2

  9
$UCSORTHOVIEW
 70
     0
  9
$UCSORGTOP
 10
0.0
 20
0.0
 30
0.0
  9
$UCSORGBOTTOM
 10
0.0
 20
0.0
 30
0.0
  9
$UCSORGLEFT
 10
0.0
 20
0.0
 30
0.0
  9
$UCSORGRIGHT
 10
0.0
 20
0.0
 30
0.0
  9
$UCSORGFRONT
 10
0.0
 20
0.0
 30
0.0
  9
$UCSORGBACK
 10
0.0
 20
0.0
 30
0.0
  9
$PUCSBASE
  2

  9
$PUCSNAME
  2

  9
$PUCSORG
 10
0.0
 20
0.0
 30
0.0
  9
$PUCSXDIR
 10
1.0
 20
0.0
 30
0.0
  9
$PUCSYDIR
 10
0.0
 20
1.0
 30
0.0
  9
$PUCSORTHOREF
  2

  9
$PUCSORTHOVIEW
 70
     0
  9
$PUCSORGTOP
 10
0.0
 20
0.0
 30
0.0
  9
$PUCSORGBOTTOM
 10
0.0
 20
0.0
 30
0.0
  9
$PUCSORGLEFT
 10
0.0
 20
0.0
 30
0.0
  9
$PUCSORGRIGHT
 10
0.0
 20
0.0
 30
0.0
  9
$PUCSORGFRONT
 10
0.0
 20
0.0
 30
0.0
  9
$PUCSORGBACK
 10
0.0
 20
0.0
 30
0.0
  9
$USERI1
 70
     0
  9
$USERI2
 70
     0
  9
$USERI3
 70
     0
  9
$USERI4
 70
     0
  9
$USERI5
 70
     0
  9
$USERR1
 40
0.0
  9
$USERR2
 40
0.0
  9
$USERR3
 40
0.0
  9
$USERR4
 40
0.0
  9
$USERR5
 40
0.0
  9
$WORLDVIEW
 70
     1
  9
$SHADEDGE
 70
     3
  9
$SHADEDIF
 70
    70
  9
$TILEMODE
 70
     1
  9
$MAXACTVP
 70
    64
  9
$PINSBASE
 10
0.0
 20
0.0
 30
0.0
  9
$PLIMCHECK
 70
     0
  9
$PEXTMIN
 10
1.000000000000000E+20
 20
1.000000000000000E+20
 30
1.000000000000000E+20
  9
$PEXTMAX
 10
-1.000000000000000E+20
 20
-1.000000000000000E+20
 30
-1.000000000000000E+20
  9
$PLIMMIN
 10
0.0
 20
0.0
  9
$PLIMMAX
 10
12.0
 20
9.0
  9
$UNITMODE
 70
     0
  9
$VISRETAIN
 70
     1
  9
$PLINEGEN
 70
     0
  9
$PSLTSCALE
 70
     1
  9
$TREEDEPTH
 70
  3020
  9
$CMLSTYLE
  2
Standard
  9
$CMLJUST
 70
     0
  9
$CMLSCALE
 40
1.0
  9
$PROXYGRAPHICS
 70
     1
  9
$MEASUREMENT
 70
     0
  9
$CELWEIGHT
370
    -1
  9
$ENDCAPS
280
     0
  9
$JOINSTYLE
280
     0
  9
$LWDISPLAY
290
     0
  9
$INSUNITS
 70
     0
  9
$HYPERLINKBASE
  1

  9
$STYLESHEET
  1

  9
$XEDIT
290
     1
  9
$CEPSNTYPE
380
     0
  9
$PSTYLEMODE
290
     1
  9
$FINGERPRINTGUID
  2
{11E48F1F-ADAB-094D-A173-EEEB9911D059}
  9
$VERSIONGUID
  2
{F374A322-E8D8-F148-AB0E-189D676F8D14}
  9
$EXTNAMES
290
     1
  9
$PSVPSCALE
 40
0.0
  9
$OLESTARTUP
290
     0
  9
$SORTENTS
280
   127
  9
$INDEXCTL
280
     0
  9
$HIDETEXT
280
     0
  9
$XCLIPFRAME
280
     2
  9
$HALOGAP
280
     0
  9
$OBSCOLOR
 70
   257
  9
$OBSLTYPE
280
     0
  9
$INTERSECTIONDISPLAY
280
     0
  9
$INTERSECTIONCOLOR
 70
   257
  9
$DIMASSOC
280
     1
  9
$PROJECTNAME
  1

  9
$CAMERADISPLAY
290
     0
  9
$LENSLENGTH
 40
50.0
  9
$CAMERAHEIGHT
 40
0.0
  9
$STEPSPERSEC
 40
2.0
  9
$STEPSIZE
 40
6.0
  9
$3DDWFPREC
 40
2.0
  9
$PSOLWIDTH
 40
0.25
  9
$PSOLHEIGHT
 40
4.0
  9
$LOFTANG1
 40
1.570796326794896
  9
$LOFTANG2
 40
1.570796326794896
  9
$LOFTMAG1
 40
0.0
  9
$LOFTMAG2
 40
0.0
  9
$LOFTPARAM
 70
     7
  9
$LOFTNORMALS
280
     1
  9
$LATITUDE
 40
37.795
  9
$LONGITUDE
 40
-122.394
  9
$NORTHDIRECTION
 40
0.0
  9
$TIMEZONE
 70
 -8000
  9
$LIGHTGLYPHDISPLAY
280
     1
  9
$TILEMODELIGHTSYNCH
280
     1
  9
$CMATERIAL
347
11
  9
$SOLIDHIST
280
     0
  9
$SHOWHIST
280
     1
  9
$DWFFRAME
280
     2
  9
$DGNFRAME
280
     0
  9
$REALWORLDSCALE
290
     1
  9
$INTERFERECOLOR
 62
     1
  9
$INTERFEREOBJVS
345
33
  9
$INTERFEREVPVS
346
30
  9
$CSHADOW
280
     0
  9
$SHADOWPLANELOCATION
 40
0.0
  0
ENDSEC
  0
SECTION
  2
CLASSES
  0
CLASS
  1
ACDBDICTIONARYWDFLT
  2
AcDbDictionaryWithDefault
  3
ObjectDBX Classes
 90
        0
 91
        1
280
     0
281
     0
  0
CLASS
  1
MATERIAL
  2
AcDbMaterial
  3
ObjectDBX Classes
 90
     1153
 91
        3
280
     0
281
     0
  0
CLASS
  1
VISUALSTYLE
  2
AcDbVisualStyle
  3
ObjectDBX Classes
 90
     4095
 91
       24
280
     0
281
     0
  0
CLASS
  1
SCALE
  2
AcDbScale
  3
ObjectDBX Classes
 90
     1153
 91
       17
280
     0
281
     0
  0
CLASS
  1
TABLESTYLE
  2
AcDbTableStyle
  3
ObjectDBX Classes
 90
     4095
 91
        1
280
     0
281
     0
  0
CLASS
  1
MLEADERSTYLE
  2
AcDbMLeaderStyle
  3
ACDB_MLEADERSTYLE_CLASS
 90
     4095
 91
        1
280
     0
281
     0
  0
CLASS
  1
ACDBSECTIONVIEWSTYLE
  2
AcDbSectionViewStyle
  3
ObjectDBX Classes
 90
     1025
 91
        1
280
     0
281
     0
  0
CLASS
  1
ACDBDETAILVIEWSTYLE
  2
AcDbDetailViewStyle
  3
ObjectDBX Classes
 90
     1025
 91
        1
280
     0
281
     0
  0
CLASS
  1
DICTIONARYVAR
  2
AcDbDictionaryVar
  3
ObjectDBX Classes
 90
        0
 91
       27
280
     0
281
     0
  0
CLASS
  1
CELLSTYLEMAP
  2
AcDbCellStyleMap
  3
ObjectDBX Classes
 90
     1152
 91
        1
280
     0
281
     0
  0
ENDSEC
  0
SECTION
  2
TABLES
  0
TABLE
  2
VPORT
  5
8
330
0
100
AcDbSymbolTable
 70
     1
  0
VPORT
  5
74
330
8
100
AcDbSymbolTableRecord
100
AcDbViewportTableRecord
  2
*Active
 70
     0
 10
0.0
 20
0.0
 11
1.0
 21
1.0
 12
256.1906158813977
 22
-86.2141603941229
 13
0.0
 23
0.0
 14
1.0
 24
1.0
 15
0.0
 25
0.0
 16
0.0
 26
0.0
 36
1.0
 17
0.0
 27
0.0
 37
0.0
 40
256.6528136438251
 41
3.079806529625151
 42
50.0
 43
0.0
 44
0.0
 50
0.0
 51
0.0
 71
     0
 72
   100
 73
     1
 74
     1
 75
     0
 76
     0
 77
     0
 78
     0
281
     0
 65
     1
110
0.0
120
0.0
130
0.0
111
1.0
121
0.0
131
0.0
112
0.0
122
1.0
132
0.0
 79
     0
146
0.0
348
2F
 60
     3
 61
     5
292
     1
282
     1
141
0.0
142
0.0
 63
   250
421
  3355443
1001
ACAD_NAV_VCDISPLAY
1070
     3
  0
ENDTAB
  0
TABLE
  2
LTYPE
  5
5
330
0
100
AcDbSymbolTable
 70
     3
  0
LTYPE
  5
5A
330
5
100
AcDbSymbolTableRecord
100
AcDbLinetypeTableRecord
  2
ByBlock
 70
     0
  3

 72
    65
 73
     0
 40
0.0
  0
LTYPE
  5
5B
330
5
100
AcDbSymbolTableRecord
100
AcDbLinetypeTableRecord
  2
ByLayer
 70
     0
  3

 72
    65
 73
     0
 40
0.0
  0
LTYPE
  5
5C
330
5
100
AcDbSymbolTableRecord
100
AcDbLinetypeTableRecord
  2
Continuous
 70
     0
  3
Solid line
 72
    65
 73
     0
 40
0.0
  0
ENDTAB
  0
TABLE
  2
LAYER
  5
2
330
0
100
AcDbSymbolTable
 70
     1
  0
LAYER
  5
54
102
{ACAD_XDICTIONARY
360
B94
102
}
330
2
100
AcDbSymbolTableRecord
100
AcDbLayerTableRecord
  2
0
 70
     0
 62
     7
  6
Continuous
370
    -3
390
F
347
21
348
0
  0
ENDTAB
  0
TABLE
  2
STYLE
  5
3
330
0
100
AcDbSymbolTable
 70
     2
  0
STYLE
  5
55
330
3
100
AcDbSymbolTableRecord
100
AcDbTextStyleTableRecord
  2
Standard
 70
     0
 40
0.0
 41
1.0
 50
0.0
 71
     0
 42
0.2
  3
txt
  4

  0
STYLE
  5
59
330
3
100
AcDbSymbolTableRecord
100
AcDbTextStyleTableRecord
  2
Annotative
 70
     0
 40
0.0
 41
1.0
 50
0.0
 71
     0
 42
0.2
  3
txt
  4

1001
AcadAnnotative
1000
AnnotativeData
1002
{
1070
     1
1070
     1
1002
}
  0
ENDTAB
  0
TABLE
  2
VIEW
  5
6
330
0
100
AcDbSymbolTable
 70
     0
  0
ENDTAB
  0
TABLE
  2
UCS
  5
7
330
0
100
AcDbSymbolTable
 70
     0
  0
ENDTAB
  0
TABLE
  2
APPID
  5
9
330
0
100
AcDbSymbolTable
 70
     4
  0
APPID
  5
56
330
9
100
AcDbSymbolTableRecord
100
AcDbRegAppTableRecord
  2
ACAD
 70
     0
  0
APPID
  5
5D
330
9
100
AcDbSymbolTableRecord
100
AcDbRegAppTableRecord
  2
AcadAnnotative
 70
     0
  0
APPID
  5
AA1
330
9
100
AcDbSymbolTableRecord
100
AcDbRegAppTableRecord
  2
ACAD_EXEMPT_FROM_CAD_STANDARDS
 70
     0
  0
APPID
  5
B1E
330
9
100
AcDbSymbolTableRecord
100
AcDbRegAppTableRecord
  2
ACAD_NAV_VCDISPLAY
 70
     0
  0
ENDTAB
  0
TABLE
  2
DIMSTYLE
  5
A
330
0
100
AcDbSymbolTable
 70
     4
100
AcDbDimStyleTable
 71
     1
340
57
  0
DIMSTYLE
105
57
330
A
100
AcDbSymbolTableRecord
100
AcDbDimStyleTableRecord
  2
Standard
 70
     0
340
55
  0
DIMSTYLE
105
58
330
A
100
AcDbSymbolTableRecord
100
AcDbDimStyleTableRecord
  2
Annotative
 70
     0
340
55
1001
AcadAnnotative
1000
AnnotativeData
1002
{
1070
     1
1070
     1
1002
}
  0
ENDTAB
  0
TABLE
  2
BLOCK_RECORD
  5
1
330
0
100
AcDbSymbolTable
 70
     2
  0
BLOCK_RECORD
  5
6F
330
1
100
AcDbSymbolTableRecord
100
AcDbBlockTableRecord
  2
*Model_Space
340
72
 70
     0
280
     1
281
     0
  0
BLOCK_RECORD
  5
6B
330
1
100
AcDbSymbolTableRecord
100
AcDbBlockTableRecord
  2
*Paper_Space
340
6E
 70
     0
280
     1
281
     0
  0
BLOCK_RECORD
  5
B1F
330
1
100
AcDbSymbolTableRecord
100
AcDbBlockTableRecord
  2
A$C6189c35e
340
0
 70
     0
280
     1
281
     0
  0
ENDTAB
  0
ENDSEC
  0
SECTION
  2
BLOCKS
  0
BLOCK
  5
70
330
6F
100
AcDbEntity
  8
0
100
AcDbBlockBegin
  2
*Model_Space
 70
     0
 10
0.0
 20
0.0
 30
0.0
  3
*Model_Space
  1

  0
ENDBLK
  5
71
330
6F
100
AcDbEntity
  8
0
100
AcDbBlockEnd
  0
BLOCK
  5
6C
330
6B
100
AcDbEntity
 67
     1
  8
0
100
AcDbBlockBegin
  2
*Paper_Space
 70
     0
 10
0.0
 20
0.0
 30
0.0
  3
*Paper_Space
  1

  0
ENDBLK
  5
6D
330
6B
100
AcDbEntity
 67
     1
  8
0
100
AcDbBlockEnd
  0
BLOCK
  5
B50
330
B1F
100
AcDbEntity
  8
0
100
AcDbBlockBegin
  2
A$C6189c35e
 70
     0
 10
0.0
 20
0.0
 30
0.0
  3
A$C6189c35e
  1

  0
LINE
  5
B20
330
B1F
100
AcDbEntity
  8
0
 62
     0
100
AcDbLine
 10
16.24436999999999
 20
34.0195
 30
0.0
 11
16.24436999999999
 21
20.0201
 31
0.0
  0
LINE
  5
B21
330
B1F
100
AcDbEntity
  8
0
 62
     0
100
AcDbLine
 10
16.24436999999999
 20
20.0201
 30
0.0
 11
18.62556999999999
 21
20.0201
 31
0.0
  0
LINE
  5
B22
330
B1F
100
AcDbEntity
  8
0
 62
     0
100
AcDbLine
 10
18.62556999999999
 20
20.0201
 30
0.0
 11
18.62556999999999
 21
14.9696
 31
0.0
  0
LINE
  5
B23
330
B1F
100
AcDbEntity
  8
0
 62
     0
100
AcDbLine
 10
18.62556999999999
 20
14.9696
 30
0.0
 11
9.100569999999999
 21
14.9696
 31
0.0
  0
LINE
  5
B24
330
B1F
100
AcDbEntity
  8
0
 62
     0
100
AcDbLine
 10
9.100569999999999
 20
14.9696
 30
0.0
 11
9.100569999999999
 21
10.2691
 31
0.0
  0
LINE
  5
B25
330
B1F
100
AcDbEntity
  8
0
 62
     0
100
AcDbLine
 10
9.100569999999999
 20
10.2691
 30
0.0
 11
7.57507
 21
10.2691
 31
0.0
  0
LINE
  5
B26
330
B1F
100
AcDbEntity
  8
0
 62
     0
100
AcDbLine
 10
7.57507
 20
10.2691
 30
0.0
 11
7.57507
 21
13.4993
 31
0.0
  0
LINE
  5
B27
330
B1F
100
AcDbEntity
  8
0
 62
     0
100
AcDbLine
 10
7.57507
 20
13.4993
 30
0.0
 11
0.8254699999999992
 21
13.4993
 31
0.0
  0
LINE
  5
B28
330
B1F
100
AcDbEntity
  8
0
 62
     0
100
AcDbLine
 10
0.8254699999999992
 20
13.4993
 30
0.0
 11
0.8254699999999992
 21
10.2691
 31
0.0
  0
LINE
  5
B29
330
B1F
100
AcDbEntity
  8
0
 62
     0
100
AcDbLine
 10
0.8254699999999992
 20
10.2691
 30
0.0
 11
0.0
 21
10.2691
 31
0.0
  0
LINE
  5
B2A
330
B1F
100
AcDbEntity
  8
0
 62
     0
100
AcDbLine
 10
0.0
 20
10.2691
 30
0.0
 11
0.0
 21
7.47034
 31
0.0
  0
LINE
  5
B2B
330
B1F
100
AcDbEntity
  8
0
 62
     0
100
AcDbLine
 10
0.0
 20
7.47034
 30
0.0
 11
0.8254699999999992
 21
7.47034
 31
0.0
  0
LINE
  5
B2C
330
B1F
100
AcDbEntity
  8
0
 62
     0
100
AcDbLine
 10
0.8254699999999992
 20
7.47034
 30
0.0
 11
0.8254699999999992
 21
1.20027
 31
0.0
  0
LINE
  5
B2D
330
B1F
100
AcDbEntity
  8
0
 62
     0
100
AcDbLine
 10
0.8254699999999992
 20
1.20027
 30
0.0
 11
2.550759999999998
 21
1.20027
 31
0.0
  0
LINE
  5
B2E
330
B1F
100
AcDbEntity
  8
0
 62
     0
100
AcDbLine
 10
2.550759999999998
 20
1.20027
 30
0.0
 11
2.550759999999998
 21
0.0
 31
0.0
  0
LINE
  5
B2F
330
B1F
100
AcDbEntity
  8
0
 62
     0
100
AcDbLine
 10
2.550759999999998
 20
0.0
 30
0.0
 11
5.849769999999999
 21
0.0
 31
0.0
  0
LINE
  5
B30
330
B1F
100
AcDbEntity
  8
0
 62
     0
100
AcDbLine
 10
5.849769999999999
 20
0.0
 30
0.0
 11
5.849769999999999
 21
1.20027
 31
0.0
  0
LINE
  5
B31
330
B1F
100
AcDbEntity
  8
0
 62
     0
100
AcDbLine
 10
5.849769999999999
 20
1.20027
 30
0.0
 11
7.57507
 21
1.20027
 31
0.0
  0
LINE
  5
B32
330
B1F
100
AcDbEntity
  8
0
 62
     0
100
AcDbLine
 10
7.57507
 20
1.20027
 30
0.0
 11
7.57507
 21
5.66923
 31
0.0
  0
LINE
  5
B33
330
B1F
100
AcDbEntity
  8
0
 62
     0
100
AcDbLine
 10
7.57507
 20
5.66923
 30
0.0
 11
9.100569999999999
 21
5.66923
 31
0.0
  0
LINE
  5
B34
330
B1F
100
AcDbEntity
  8
0
 62
     0
100
AcDbLine
 10
9.100569999999999
 20
5.66923
 30
0.0
 11
9.100569999999999
 21
0.9701400000000003
 31
0.0
  0
LINE
  5
B35
330
B1F
100
AcDbEntity
  8
0
 62
     0
100
AcDbLine
 10
9.100569999999999
 20
0.9701400000000003
 30
0.0
 11
23.10007
 21
0.9701400000000003
 31
0.0
  0
LINE
  5
B36
330
B1F
100
AcDbEntity
  8
0
 62
     0
100
AcDbLine
 10
23.10007
 20
0.9701400000000003
 30
0.0
 11
23.10007
 21
2.220019999999999
 31
0.0
  0
LINE
  5
B37
330
B1F
100
AcDbEntity
  8
0
 62
     0
100
AcDbLine
 10
23.10007
 20
2.220019999999999
 30
0.0
 11
24.62557
 21
2.220019999999999
 31
0.0
  0
LINE
  5
B38
330
B1F
100
AcDbEntity
  8
0
 62
     0
100
AcDbLine
 10
24.62557
 20
2.220019999999999
 30
0.0
 11
24.62557
 21
1.20027
 31
0.0
  0
LINE
  5
B39
330
B1F
100
AcDbEntity
  8
0
 62
     0
100
AcDbLine
 10
24.62557
 20
1.20027
 30
0.0
 11
26.34947
 21
1.20027
 31
0.0
  0
LINE
  5
B3A
330
B1F
100
AcDbEntity
  8
0
 62
     0
100
AcDbLine
 10
26.34947
 20
1.20027
 30
0.0
 11
26.34947
 21
0.0
 31
0.0
  0
LINE
  5
B3B
330
B1F
100
AcDbEntity
  8
0
 62
     0
100
AcDbLine
 10
26.34947
 20
0.0
 30
0.0
 11
29.64987
 21
0.0
 31
0.0
  0
LINE
  5
B3C
330
B1F
100
AcDbEntity
  8
0
 62
     0
100
AcDbLine
 10
29.64987
 20
0.0
 30
0.0
 11
29.64987
 21
1.20027
 31
0.0
  0
LINE
  5
B3D
330
B1F
100
AcDbEntity
  8
0
 62
     0
100
AcDbLine
 10
29.64987
 20
1.20027
 30
0.0
 11
31.37507
 21
1.20027
 31
0.0
  0
LINE
  5
B3E
330
B1F
100
AcDbEntity
  8
0
 62
     0
100
AcDbLine
 10
31.37507
 20
1.20027
 30
0.0
 11
31.37507
 21
7.47034
 31
0.0
  0
LINE
  5
B3F
330
B1F
100
AcDbEntity
  8
0
 62
     0
100
AcDbLine
 10
31.37507
 20
7.47034
 30
0.0
 11
32.20057
 21
7.47034
 31
0.0
  0
LINE
  5
B40
330
B1F
100
AcDbEntity
  8
0
 62
     0
100
AcDbLine
 10
32.20057
 20
7.47034
 30
0.0
 11
32.20057
 21
10.2691
 31
0.0
  0
LINE
  5
B41
330
B1F
100
AcDbEntity
  8
0
 62
     0
100
AcDbLine
 10
32.20057
 20
10.2691
 30
0.0
 11
31.37507
 21
10.2691
 31
0.0
  0
LINE
  5
B42
330
B1F
100
AcDbEntity
  8
0
 62
     0
100
AcDbLine
 10
31.37507
 20
10.2691
 30
0.0
 11
31.37507
 21
10.4951
 31
0.0
  0
LINE
  5
B43
330
B1F
100
AcDbEntity
  8
0
 62
     0
100
AcDbLine
 10
31.37507
 20
10.4951
 30
0.0
 11
32.62497
 21
10.4951
 31
0.0
  0
LINE
  5
B44
330
B1F
100
AcDbEntity
  8
0
 62
     0
100
AcDbLine
 10
32.62497
 20
10.4951
 30
0.0
 11
32.62497
 21
24.4946
 31
0.0
  0
LINE
  5
B45
330
B1F
100
AcDbEntity
  8
0
 62
     0
100
AcDbLine
 10
32.62497
 20
24.4946
 30
0.0
 11
30.24367
 21
24.4946
 31
0.0
  0
LINE
  5
B46
330
B1F
100
AcDbEntity
  8
0
 62
     0
100
AcDbLine
 10
30.24367
 20
24.4946
 30
0.0
 11
30.24367
 21
26.0201
 31
0.0
  0
LINE
  5
B47
330
B1F
100
AcDbEntity
  8
0
 62
     0
100
AcDbLine
 10
30.24367
 20
26.0201
 30
0.0
 11
31.15457
 21
26.0201
 31
0.0
  0
LINE
  5
B48
330
B1F
100
AcDbEntity
  8
0
 62
     0
100
AcDbLine
 10
31.15457
 20
26.0201
 30
0.0
 11
31.15457
 21
32.7698
 31
0.0
  0
LINE
  5
B49
330
B1F
100
AcDbEntity
  8
0
 62
     0
100
AcDbLine
 10
31.15457
 20
32.7698
 30
0.0
 11
30.24367
 21
32.7698
 31
0.0
  0
LINE
  5
B4A
330
B1F
100
AcDbEntity
  8
0
 62
     0
100
AcDbLine
 10
30.24367
 20
32.7698
 30
0.0
 11
30.24367
 21
34.0195
 31
0.0
  0
LINE
  5
B4B
330
B1F
100
AcDbEntity
  8
0
 62
     0
100
AcDbLine
 10
30.24367
 20
34.0195
 30
0.0
 11
16.24436999999999
 21
34.0195
 31
0.0
  0
LINE
  5
B4C
330
B1F
100
AcDbEntity
  8
0
 62
     0
100
AcDbLine
 10
23.10007
 20
10.4951
 30
0.0
 11
23.32467
 21
10.4951
 31
0.0
  0
LINE
  5
B4D
330
B1F
100
AcDbEntity
  8
0
 62
     0
100
AcDbLine
 10
23.32467
 20
10.4951
 30
0.0
 11
23.32467
 21
10.2691
 31
0.0
  0
LINE
  5
B4E
330
B1F
100
AcDbEntity
  8
0
 62
     0
100
AcDbLine
 10
23.32467
 20
10.2691
 30
0.0
 11
23.10007
 21
10.2691
 31
0.0
  0
LINE
  5
B4F
330
B1F
100
AcDbEntity
  8
0
 62
     0
100
AcDbLine
 10
23.10007
 20
10.2691
 30
0.0
 11
23.10007
 21
10.4951
 31
0.0
  0
ENDBLK
  5
B51
330
B1F
100
AcDbEntity
  8
0
100
AcDbBlockEnd
  0
ENDSEC
  0
SECTION
  2
ENTITIES
  0
LWPOLYLINE
  5
75
330
6F
100
AcDbEntity
  8
0
 62
     1
100
AcDbPolyline
 90
       25
 70
     1
 43
0.00105830084664
 10
201.4269374801896
 20
-247.1900878735932
 10
201.2077423841896
 20
-247.1900878735932
 10
200.5506650801896
 20
-247.0122934735932
 10
199.8366935681896
 20
-246.5299626655932
 10
199.3543627601896
 20
-245.8147211935932
 10
199.1780923121895
 20
-245.1576438895932
 10
199.1780923121895
 20
-244.9397187535932
 10
199.1780923121895
 20
-244.7207776495932
 10
199.3543627601896
 20
-244.0634463535932
 10
199.8366935681896
 20
-243.3482048815932
 10
200.5506650801896
 20
-242.8658740735932
 10
201.2077423841896
 20
-242.6896036255932
 10
201.4269374801896
 20
-242.6896036255932
 10
201.6446086241896
 20
-242.6896036255932
 10
202.3021939121896
 20
-242.8658740735932
 10
203.0171813921896
 20
-243.3482048815932
 10
203.4995122001896
 20
-244.0634463535932
 10
203.6773066001896
 20
-244.7207776495932
 10
203.6773066001896
 20
-244.9397187535932
 10
203.6773066001896
 20
-245.1576438895932
 10
203.4995122001896
 20
-245.8147211935932
 10
203.0171813921896
 20
-246.5299626655932
 10
202.3021939121896
 20
-247.0122934735932
 10
201.6446086241896
 20
-247.1900878735932
 10
201.4269374801896
 20
-247.1900878735932
  0
LWPOLYLINE
  5
90
330
6F
100
AcDbEntity
  8
0
 62
     1
100
AcDbPolyline
 90
       27
 70
     1
 43
0.00105830084664
 10
309.5752071281896
 20
-221.0411034895932
 10
128.5833018401896
 20
-221.0411034895932
 10
128.4113492561895
 20
-221.0411034895932
 10
127.8957454961896
 20
-221.2051823215932
 10
127.3819196801896
 20
-221.6417945695932
 10
127.1088782801895
 20
-222.2567092015932
 10
127.0964326721895
 20
-222.7982201455932
 10
127.1446911521895
 20
-222.9633149455932
 10
135.4456576961896
 20
-251.2275447055932
 10
135.4926462161895
 20
-251.3875596655932
 10
135.9843747281896
 20
-252.0061571815932
 10
136.6584694961896
 20
-252.3052073623932
 10
136.8842683841896
 20
-252.3052073623932
 10
309.5752071281896
 20
-252.3052073623932
 10
309.7199825681896
 20
-252.3052073623932
 10
310.1568488081896
 20
-252.1866692959932
 10
310.6343537681896
 20
-251.8655726095932
 10
310.9543836881895
 20
-251.3888296255932
 10
311.0737599281895
 20
-250.9506934255932
 10
311.0737599281895
 20
-250.8059179855932
 10
311.0737599281895
 20
-222.5404182655932
 10
311.0737599281895
 20
-222.3943728655932
 10
310.9543836881895
 20
-221.9562366655932
 10
310.6343537681896
 20
-221.4792396895932
 10
310.1568488081896
 20
-221.1581938015932
 10
309.7199825681896
 20
-221.0411034895932
 10
309.5752071281896
 20
-221.0411034895932
  0
LWPOLYLINE
  5
AD
330
6F
100
AcDbEntity
  8
0
 62
     1
100
AcDbPolyline
 90
       21
 70
     1
 43
0.00105830084664
 10
276.1904986481895
 20
-224.3704306255932
 10
276.0584228081896
 20
-224.3953218415932
 10
275.6393360081895
 20
-224.3386816255932
 10
275.1973899281895
 20
-224.0686881295932
 10
274.9256184881896
 20
-223.6247101135932
 10
274.8697402481896
 20
-223.2061312975932
 10
274.8951394481895
 20
-223.0750714255932
 10
274.9154588081895
 20
-222.9676328095932
 10
275.1973899281895
 20
-222.5114631775932
 10
275.6520356081896
 20
-222.2302940335932
 10
275.7612521681896
 20
-222.2112446335932
 10
275.8907880881896
 20
-222.1860994255932
 10
276.3098748881896
 20
-222.2417236735932
 10
276.7518209681895
 20
-222.5129871295932
 10
277.0210524881895
 20
-222.9551872015932
 10
277.0794706481896
 20
-223.3742740015932
 10
277.0540714481896
 20
-223.5066038335932
 10
277.0337520881895
 20
-223.6137884575932
 10
276.7518209681895
 20
-224.0686881295932
 10
276.2971752881896
 20
-224.3498572735932
 10
276.1904986481895
 20
-224.3704306255932
  0
LWPOLYLINE
  5
C4
330
6F
100
AcDbEntity
  8
0
 62
     1
100
AcDbPolyline
 90
       21
 70
     1
 43
0.00105830084664
 10
137.7950836961896
 20
-250.8196335535932
 10
137.6630078561896
 20
-250.8430008175932
 10
137.2441750481895
 20
-250.7866145935932
 10
136.8004510241896
 20
-250.5166210975932
 10
136.5302035361896
 20
-250.0728970735932
 10
136.4750872721895
 20
-249.6553342255932
 10
136.4997244961895
 20
-249.5245283455932
 10
136.5192818801896
 20
-249.4168357375932
 10
136.8004510241896
 20
-248.9606661055932
 10
137.2566206561895
 20
-248.6797509535932
 10
137.3640592721895
 20
-248.6604475615932
 10
137.4948651521896
 20
-248.6355563455932
 10
137.9124280001896
 20
-248.6906726095932
 10
138.3561520241896
 20
-248.9621900575932
 10
138.6263995121895
 20
-249.4043901295932
 10
138.6840556961896
 20
-249.8234769295932
 10
138.6594184721895
 20
-249.9558067615932
 10
138.6385911281895
 20
-250.0632453775932
 10
138.3574219841896
 20
-250.5178910575932
 10
137.9027763041896
 20
-250.7990602015932
 10
137.7950836961896
 20
-250.8196335535932
  0
LWPOLYLINE
  5
DB
330
6F
100
AcDbEntity
  8
0
 62
     1
100
AcDbPolyline
 90
       21
 70
     1
 43
0.00105830084664
 10
308.7903718481895
 20
-250.8196335535932
 10
308.6582960081896
 20
-250.8430008175932
 10
308.2392092081895
 20
-250.7866145935932
 10
307.7947232081896
 20
-250.5166210975932
 10
307.5254916881896
 20
-250.0728970735932
 10
307.4696134481895
 20
-249.6553342255932
 10
307.4950126481895
 20
-249.5245283455932
 10
307.5153320081895
 20
-249.4168357375932
 10
307.7947232081896
 20
-248.9606661055932
 10
308.2519088081896
 20
-248.6797509535932
 10
308.3585854481896
 20
-248.6604475615932
 10
308.4881213681896
 20
-248.6355563455932
 10
308.9072081681895
 20
-248.6906726095932
 10
309.3516941681895
 20
-248.9621900575932
 10
309.6209256881895
 20
-249.4043901295932
 10
309.6768039281895
 20
-249.8234769295932
 10
309.6539446481896
 20
-249.9558067615932
 10
309.6336252881895
 20
-250.0632453775932
 10
309.3516941681895
 20
-250.5178910575932
 10
308.8970484881896
 20
-250.7990602015932
 10
308.7903718481895
 20
-250.8196335535932
  0
LWPOLYLINE
  5
F2
330
6F
100
AcDbEntity
  8
0
 62
     1
100
AcDbPolyline
 90
       21
 70
     1
 43
0.00105830084664
 10
308.7903718481895
 20
-224.3704306255932
 10
308.6582960081896
 20
-224.3937978895932
 10
308.2392092081895
 20
-224.3386816255932
 10
307.7947232081896
 20
-224.0671641775932
 10
307.5254916881896
 20
-223.6247101135932
 10
307.4696134481895
 20
-223.2061312975932
 10
307.4950126481895
 20
-223.0750714255932
 10
307.5153320081895
 20
-222.9676328095932
 10
307.7947232081896
 20
-222.5114631775932
 10
308.2519088081896
 20
-222.2302940335932
 10
308.3585854481896
 20
-222.2112446335932
 10
308.4881213681896
 20
-222.1860994255932
 10
308.9072081681895
 20
-222.2417236735932
 10
309.3516941681895
 20
-222.5129871295932
 10
309.6209256881895
 20
-222.9551872015932
 10
309.6768039281895
 20
-223.3742740015932
 10
309.6539446481896
 20
-223.5066038335932
 10
309.6336252881895
 20
-223.6137884575932
 10
309.3516941681895
 20
-224.0686881295932
 10
308.8970484881896
 20
-224.3498572735932
 10
308.7903718481895
 20
-224.3704306255932
  0
LWPOLYLINE
  5
109
330
6F
100
AcDbEntity
  8
0
 62
     1
100
AcDbPolyline
 90
       25
 70
     1
 43
0.00105830084664
 10
130.0813466561896
 20
-224.3445234415932
 10
129.9736540481896
 20
-224.3445234415932
 10
129.6526081601895
 20
-224.2574041855932
 10
129.3026071841896
 20
-224.0206836415932
 10
129.0671566001895
 20
-223.6704286735932
 10
128.9815612961895
 20
-223.3493827855932
 10
128.9815612961895
 20
-223.2432141295932
 10
128.9815612961895
 20
-223.1357755135932
 10
129.0671566001895
 20
-222.8149836175932
 10
129.3026071841896
 20
-222.4659986095932
 10
129.6526081601895
 20
-222.2290240735932
 10
129.9736540481896
 20
-222.1434287695932
 10
130.0813466561896
 20
-222.1434287695932
 10
130.1875153121896
 20
-222.1434287695932
 10
130.5085612001896
 20
-222.2290240735932
 10
130.8583081841895
 20
-222.4659986095932
 10
131.0940127601895
 20
-222.8149836175932
 10
131.1808780241896
 20
-223.1357755135932
 10
131.1808780241896
 20
-223.2432141295932
 10
131.1808780241896
 20
-223.3493827855932
 10
131.0940127601895
 20
-223.6704286735932
 10
130.8583081841895
 20
-224.0206836415932
 10
130.5085612001896
 20
-224.2574041855932
 10
130.1875153121896
 20
-224.3445234415932
 10
130.0813466561896
 20
-224.3445234415932
  0
LWPOLYLINE
  5
124
330
6F
100
AcDbEntity
  8
0
 62
     1
100
AcDbPolyline
 90
       25
 70
     1
 43
0.00105830084664
 10
260.5776104081896
 20
-224.3445234415932
 10
260.4709337681895
 20
-224.3445234415932
 10
260.1483639281895
 20
-224.2574041855932
 10
259.7978549681896
 20
-224.0206836415932
 10
259.5616424081895
 20
-223.6704286735932
 10
259.4752851281896
 20
-223.3493827855932
 10
259.4752851281896
 20
-223.2432141295932
 10
259.4752851281896
 20
-223.1357755135932
 10
259.5616424081895
 20
-222.8149836175932
 10
259.7978549681896
 20
-222.4659986095932
 10
260.1483639281895
 20
-222.2290240735932
 10
260.4709337681895
 20
-222.1434287695932
 10
260.5776104081896
 20
-222.1434287695932
 10
260.6842870481896
 20
-222.1434287695932
 10
261.0043169681895
 20
-222.2290240735932
 10
261.3548259281895
 20
-222.4659986095932
 10
261.5910384881896
 20
-222.8149836175932
 10
261.6773957681896
 20
-223.1357755135932
 10
261.6773957681896
 20
-223.2432141295932
 10
261.6773957681896
 20
-223.3493827855932
 10
261.5910384881896
 20
-223.6704286735932
 10
261.3548259281895
 20
-224.0206836415932
 10
261.0043169681895
 20
-224.2574041855932
 10
260.6842870481896
 20
-224.3445234415932
 10
260.5776104081896
 20
-224.3445234415932
  0
LWPOLYLINE
  5
13F
330
6F
100
AcDbEntity
  8
0
 62
     1
100
AcDbPolyline
 90
       25
 70
     1
 43
0.00105830084664
 10
71.30861382418958
 20
-247.4146168015932
 10
71.08941872818957
 20
-247.4146168015932
 10
70.43183344018958
 20
-247.2368224015932
 10
69.71684596018957
 20
-246.7560155455932
 10
69.23451515218959
 20
-246.0407740735932
 10
69.05824470418957
 20
-245.3834427775932
 10
69.05824470418957
 20
-245.1657716335932
 10
69.05824470418957
 20
-244.9465765375932
 10
69.23451515218959
 20
-244.2894992335932
 10
69.71684596018957
 20
-243.5742577615932
 10
70.43183344018958
 20
-243.0919269535932
 10
71.08941872818957
 20
-242.9156565055932
 10
71.30861382418958
 20
-242.9156565055932
 10
71.52628496818959
 20
-242.9156565055932
 10
72.18336227218959
 20
-243.0919269535932
 10
72.89834975218957
 20
-243.5742577615932
 10
73.38118854418957
 20
-244.2894992335932
 10
73.55898294418958
 20
-244.9465765375932
 10
73.55898294418958
 20
-245.1657716335932
 10
73.55898294418958
 20
-245.3834427775932
 10
73.38118854418957
 20
-246.0407740735932
 10
72.89834975218957
 20
-246.7560155455932
 10
72.18336227218959
 20
-247.2368224015932
 10
71.52628496818959
 20
-247.4146168015932
 10
71.30861382418958
 20
-247.4146168015932
  0
LWPOLYLINE
  5
15A
330
6F
100
AcDbEntity
  8
0
 62
     1
100
AcDbPolyline
 90
       27
 70
     1
 43
0.00105830084664
 10
130.9233301361895
 20
-250.3787034415932
 10
122.6233795601896
 20
-222.1203154975932
 10
122.5768990241896
 20
-221.9605545295932
 10
122.0818686161896
 20
-221.3403060655932
 10
121.4067578801895
 20
-221.0411034895932
 10
121.1822289521895
 20
-221.0411034895932
 10
1.313193673789575
 20
-221.0411034895932
 10
1.165725918589574
 20
-221.0411034895932
 10
0.7275389201895753
 20
-221.1581938015932
 10
0.2493735809895754
 20
-221.4807636415932
 10
-0.0730819626104249
 20
-221.9575066255932
 10
-0.1902129133304249
 20
-222.3958968175932
 10
-0.1902129133304249
 20
-222.5432121775932
 10
-0.1902129133304249
 20
-250.8031240735932
 10
-0.1902129133304249
 20
-250.9491694735932
 10
-0.0730819626104249
 20
-251.3875596655932
 10
0.2493735809895754
 20
-251.8643026495932
 10
0.7275389201895753
 20
-252.1866692959932
 10
1.165725918589574
 20
-252.3052073623932
 10
1.313193673789575
 20
-252.3052073623932
 10
129.4819255361896
 20
-252.3052073623932
 10
129.6526081601895
 20
-252.3052073623932
 10
130.1694818801895
 20
-252.1384362151932
 10
130.6833076961896
 20
-251.7014937775932
 10
130.9576190561895
 20
-251.0842932175932
 10
130.9715886161896
 20
-250.5427822735932
 10
130.9233301361895
 20
-250.3787034415932
  0
LWPOLYLINE
  5
177
330
6F
100
AcDbEntity
  8
0
 62
     1
100
AcDbPolyline
 90
       21
 70
     1
 43
0.00105830084664
 10
50.72383218418958
 20
-224.3704306255932
 10
50.59175634418957
 20
-224.3937978895932
 10
50.17292353618958
 20
-224.3386816255932
 10
49.73046947218958
 20
-224.0671641775932
 10
49.45895202418957
 20
-223.6247101135932
 10
49.40383576018957
 20
-223.2061312975932
 10
49.42847298418957
 20
-223.0750714255932
 10
49.44803036818957
 20
-222.9676328095932
 10
49.72919951218958
 20
-222.5114631775932
 10
50.18511515218958
 20
-222.2302940335932
 10
50.29255376818957
 20
-222.2112446335932
 10
50.42361364018957
 20
-222.1860994255932
 10
50.84244644818958
 20
-222.2417236735932
 10
51.28490051218958
 20
-222.5129871295932
 10
51.55616396818957
 20
-222.9551872015932
 10
51.61280418418957
 20
-223.3742740015932
 10
51.58791296818957
 20
-223.5066038335932
 10
51.56733961618957
 20
-223.6137884575932
 10
51.28617047218957
 20
-224.0686881295932
 10
50.83152479218958
 20
-224.3498572735932
 10
50.72383218418958
 20
-224.3704306255932
  0
LWPOLYLINE
  5
18E
330
6F
100
AcDbEntity
  8
0
 62
     1
100
AcDbPolyline
 90
       21
 70
     1
 43
0.00105830084664
 10
120.5221037441896
 20
-224.3704306255932
 10
120.3897739121895
 20
-224.3937978895932
 10
119.9709411041895
 20
-224.3386816255932
 10
119.5272170801896
 20
-224.0671641775932
 10
119.2572235841895
 20
-223.6247101135932
 10
119.2018533281895
 20
-223.2061312975932
 10
119.2269985361896
 20
-223.0750714255932
 10
119.2460479361896
 20
-222.9676328095932
 10
119.5272170801896
 20
-222.5114631775932
 10
119.9833867121895
 20
-222.2302940335932
 10
120.0908253281895
 20
-222.2112446335932
 10
120.2218852001895
 20
-222.1860994255932
 10
120.6391940561895
 20
-222.2417236735932
 10
121.0829180801896
 20
-222.5129871295932
 10
121.3531655681896
 20
-222.9551872015932
 10
121.4110757441896
 20
-223.3742740015932
 10
121.3861845281896
 20
-223.5066038335932
 10
121.3653571841895
 20
-223.6137884575932
 10
121.0841880401895
 20
-224.0686881295932
 10
120.6295423601895
 20
-224.3498572735932
 10
120.5221037441896
 20
-224.3704306255932
  0
LWPOLYLINE
  5
1A5
330
6F
100
AcDbEntity
  8
0
 62
     1
100
AcDbPolyline
 90
       21
 70
     1
 43
0.00105830084664
 10
2.525827679389575
 20
-250.8196335535932
 10
2.393548645789575
 20
-250.8430008175932
 10
1.974639640189574
 20
-250.7866145935932
 10
1.530890216989575
 20
-250.5166210975932
 10
1.260820523389575
 20
-250.0728970735932
 10
1.205704259389575
 20
-249.6553342255932
 10
1.230519277789575
 20
-249.5245283455932
 10
1.249797270589575
 20
-249.4168357375932
 10
1.530890216989575
 20
-248.9606661055932
 10
1.987009050589575
 20
-248.6797509535932
 10
2.094498464989575
 20
-248.6604475615932
 10
2.225405941789574
 20
-248.6355563455932
 10
2.644314947389575
 20
-248.6906726095932
 10
3.086667414589575
 20
-248.9621900575932
 10
3.358108664989575
 20
-249.4043901295932
 10
3.414621884989575
 20
-249.8234769295932
 10
3.389832265789575
 20
-249.9558067615932
 10
3.369157316989574
 20
-250.0632453775932
 10
3.088038971389575
 20
-250.5178910575932
 10
2.633291694589575
 20
-250.7990602015932
 10
2.525827679389575
 20
-250.8196335535932
  0
LWPOLYLINE
  5
1BC
330
6F
100
AcDbEntity
  8
0
 62
     1
100
AcDbPolyline
 90
       21
 70
     1
 43
0.00105830084664
 10
128.2444765121895
 20
-248.6604475615932
 10
128.3752823921896
 20
-248.6355563455932
 10
128.7928452401895
 20
-248.6906726095932
 10
129.2368232561896
 20
-248.9621900575932
 10
129.5065627601896
 20
-249.4043901295932
 10
129.5629489841896
 20
-249.8234769295932
 10
129.5383117601895
 20
-249.9558067615932
 10
129.5174844161896
 20
-250.0632453775932
 10
129.2368232561896
 20
-250.5178910575932
 10
128.7819235841896
 20
-250.7990602015932
 10
128.6744849681896
 20
-250.8196335535932
 10
128.5434250961896
 20
-250.8430008175932
 10
128.1243382961896
 20
-250.7866145935932
 10
127.6806142721896
 20
-250.5166210975932
 10
127.4108747681896
 20
-250.0728970735932
 10
127.3542345521896
 20
-249.6553342255932
 10
127.3791257681895
 20
-249.5245283455932
 10
127.3999531121896
 20
-249.4168357375932
 10
127.6806142721896
 20
-248.9606661055932
 10
128.1355139441896
 20
-248.6797509535932
 10
128.2444765121895
 20
-248.6604475615932
  0
LWPOLYLINE
  5
1D3
330
6F
100
AcDbEntity
  8
0
 62
     1
100
AcDbPolyline
 90
       25
 70
     1
 43
0.00105830084664
 10
2.310848850589574
 20
-224.3910039775932
 10
2.203359436189575
 20
-224.3910039775932
 10
1.882288148989575
 20
-224.3041387135932
 10
1.532287172989575
 20
-224.0671641775932
 10
1.295261838589575
 20
-223.7171632015932
 10
1.209844328989575
 20
-223.3961173135932
 10
1.209844328989575
 20
-223.2899486575932
 10
1.209844328989575
 20
-223.1827640335932
 10
1.295261838589575
 20
-222.8614641535932
 10
1.532287172989575
 20
-222.5129871295932
 10
1.882288148989575
 20
-222.2757586015932
 10
2.203359436189575
 20
-222.1904172895932
 10
2.310848850589574
 20
-222.1904172895932
 10
2.416966708189575
 20
-222.1904172895932
 10
2.738012596189576
 20
-222.2757586015932
 10
3.088038971389575
 20
-222.5129871295932
 10
3.323692748989574
 20
-222.8614641535932
 10
3.410507214589576
 20
-223.1827640335932
 10
3.410507214589576
 20
-223.2899486575932
 10
3.410507214589576
 20
-223.3961173135932
 10
3.323692748989574
 20
-223.7171632015932
 10
3.088038971389575
 20
-224.0671641775932
 10
2.738012596189576
 20
-224.3041387135932
 10
2.416966708189575
 20
-224.3910039775932
 10
2.310848850589574
 20
-224.3910039775932
  0
LWPOLYLINE
  5
1EE
330
6F
100
AcDbEntity
  8
0
 62
     1
100
AcDbPolyline
 90
       25
 70
     1
 43
0.00105830084664
 10
35.10967398418958
 20
-224.3910039775932
 10
35.00248936018958
 20
-224.3910039775932
 10
34.68144347218958
 20
-224.3041387135932
 10
34.33118850418958
 20
-224.0671641775932
 10
34.09421396818958
 20
-223.7171632015932
 10
34.00887265618957
 20
-223.3961173135932
 10
34.00887265618957
 20
-223.2899486575932
 10
34.00887265618957
 20
-223.1827640335932
 10
34.09421396818958
 20
-222.8614641535932
 10
34.33118850418958
 20
-222.5129871295932
 10
34.68144347218958
 20
-222.2757586015932
 10
35.00248936018958
 20
-222.1904172895932
 10
35.10967398418958
 20
-222.1904172895932
 10
35.21584264018958
 20
-222.1904172895932
 10
35.53688852818958
 20
-222.2757586015932
 10
35.88688950418958
 20
-222.5129871295932
 10
36.12259408018958
 20
-222.8614641535932
 10
36.20971333618957
 20
-223.1827640335932
 10
36.20971333618957
 20
-223.2899486575932
 10
36.20971333618957
 20
-223.3961173135932
 10
36.12259408018958
 20
-223.7171632015932
 10
35.88688950418958
 20
-224.0671641775932
 10
35.53688852818958
 20
-224.3041387135932
 10
35.21584264018958
 20
-224.3910039775932
 10
35.10967398418958
 20
-224.3910039775932
  0
LWPOLYLINE
  5
209
330
6F
100
AcDbEntity
  8
0
 62
     1
100
AcDbPolyline
 90
       25
 70
     1
 43
0.00105830084664
 10
44.63208805618958
 20
-266.9395152247932
 10
44.52439544818957
 20
-266.9395152247932
 10
44.20334956018957
 20
-266.8527007591932
 10
43.85334858418957
 20
-266.6156754247932
 10
43.61789800018956
 20
-266.2656490495932
 10
43.53204870418958
 20
-265.9445777623933
 10
43.53204870418958
 20
-265.8384853039932
 10
43.53204870418958
 20
-265.7309958895932
 10
43.61789800018956
 20
-265.4099246023932
 10
43.85334858418957
 20
-265.0598982271932
 10
44.20334956018957
 20
-264.8242952479932
 10
44.52439544818957
 20
-264.7388523391932
 10
44.63208805618958
 20
-264.7388523391932
 10
44.73774872818958
 20
-264.7388523391932
 10
45.05879461618958
 20
-264.8242952479932
 10
45.40904958418957
 20
-265.0598982271932
 10
45.64475416018956
 20
-265.4099246023932
 10
45.73161942418957
 20
-265.7309958895932
 10
45.73161942418957
 20
-265.8384853039932
 10
45.73161942418957
 20
-265.9445777623933
 10
45.64475416018956
 20
-266.2656490495932
 10
45.40904958418957
 20
-266.6156754247932
 10
45.05879461618958
 20
-266.8527007591932
 10
44.73774872818958
 20
-266.9395152247932
 10
44.63208805618958
 20
-266.9395152247932
  0
LWPOLYLINE
  5
224
330
6F
100
AcDbEntity
  8
0
 62
     1
100
AcDbPolyline
 90
       25
 70
     1
 43
0.00105830084664
 10
11.83280573698958
 20
-266.9395152247932
 10
11.72531632258957
 20
-266.9395152247932
 10
11.40421963618957
 20
-266.8527007591932
 10
11.05421866018957
 20
-266.6156754247932
 10
10.81859028178957
 20
-266.2656490495932
 10
10.73314737298957
 20
-265.9445777623933
 10
10.73314737298957
 20
-265.8384853039932
 10
10.73314737298957
 20
-265.7309958895932
 10
10.81859028178957
 20
-265.4099246023932
 10
11.05421866018957
 20
-265.0598982271932
 10
11.40421963618957
 20
-264.8242952479932
 10
11.72531632258957
 20
-264.7388523391932
 10
11.83280573698958
 20
-264.7388523391932
 10
11.93892359458957
 20
-264.7388523391932
 10
12.25996948258957
 20
-264.8242952479932
 10
12.60999585778957
 20
-265.0598982271932
 10
12.84562423618957
 20
-265.4099246023932
 10
12.93243870178957
 20
-265.7309958895932
 10
12.93243870178957
 20
-265.8384853039932
 10
12.93243870178957
 20
-265.9445777623933
 10
12.84562423618957
 20
-266.2656490495932
 10
12.60999585778957
 20
-266.6156754247932
 10
12.25996948258957
 20
-266.8527007591932
 10
11.93892359458957
 20
-266.9395152247932
 10
11.83280573698958
 20
-266.9395152247932
  0
LWPOLYLINE
  5
23F
330
6F
100
AcDbEntity
  8
0
 62
     1
100
AcDbPolyline
 90
       27
 70
     1
 43
0.00105830084664
 10
47.10952602418958
 20
-264.7236890167932
 10
47.06685536818958
 20
-264.5555463127932
 10
46.57461887218958
 20
-263.9051489983932
 10
45.88172869618958
 20
-263.5896147367932
 10
45.65161194418958
 20
-263.5896147367932
 10
10.83098509138957
 20
-263.5896147367932
 10
10.68493969138957
 20
-263.5896147367932
 10
10.24809885058957
 20
-263.7067304479932
 10
9.771305068189576
 20
-264.0277763359932
 10
9.450259180189576
 20
-264.5031985615932
 10
9.333092670589577
 20
-264.9414109591932
 10
9.333092670589577
 20
-265.0874817583932
 10
9.333092670589577
 20
-266.5908604063933
 10
9.333092670589577
 20
-266.7355342495932
 10
9.450259180189576
 20
-267.1723750903932
 10
9.771305068189576
 20
-267.6491688727932
 10
10.24809885058957
 20
-267.9702147607932
 10
10.68631124818957
 20
-268.0887528271932
 10
10.83235664818957
 20
-268.0887528271932
 10
46.03590184018957
 20
-268.0887528271932
 10
46.20429853618957
 20
-268.0887528271932
 10
46.70847265618959
 20
-267.9288902623932
 10
47.21848859218957
 20
-267.5099812567932
 10
47.50067370418958
 20
-266.9119316935932
 10
47.52962879218958
 20
-266.3827647607933
 10
47.48975204818957
 20
-266.2201844815932
 10
47.10952602418958
 20
-264.7236890167932
  0
LWPOLYLINE
  5
25C
330
6F
100
AcDbEntity
  8
0
 62
     1
100
AcDbPolyline
 90
       21
 70
     1
 43
0.00105830084664
 10
2.904783743389574
 20
-101.0509648255932
 10
2.773850867389574
 20
-101.0743320895931
 10
2.354941861789574
 20
-101.0179458655932
 10
1.911243236989576
 20
-100.7476983775932
 10
1.641122744989575
 20
-100.3039743535932
 10
1.586031880189574
 20
-99.88666549759322
 10
1.610821499389575
 20
-99.75560562559321
 10
1.630124891389575
 20
-99.64816700959318
 10
1.911243236989576
 20
-99.19199737759321
 10
2.365965114589575
 20
-98.91082823359324
 10
2.473454528989575
 20
-98.89177883359323
 10
2.604362005789575
 20
-98.86688761759323
 10
3.023271011389575
 20
-98.9217498895932
 10
3.466969636189575
 20
-99.19352132959318
 10
3.737090128189575
 20
-99.63572140159321
 10
3.793577948989574
 20
-100.0545542095932
 10
3.768762930589574
 20
-100.1868840415932
 10
3.748087981789574
 20
-100.2943226575932
 10
3.466969636189575
 20
-100.7492223295932
 10
3.012247758589575
 20
-101.0303914735932
 10
2.904783743389574
 20
-101.0509648255932
  0
LWPOLYLINE
  5
273
330
6F
100
AcDbEntity
  8
0
 62
     1
100
AcDbPolyline
 90
       21
 70
     1
 43
0.00105830084664
 10
128.6231785841896
 20
-98.89177883359323
 10
128.7542384561896
 20
-98.86688761759323
 10
129.1718013041896
 20
-98.9217498895932
 10
129.6155253281896
 20
-99.19352132959318
 10
129.8855188241895
 20
-99.63572140159321
 10
129.9434290001896
 20
-100.0545542095932
 10
129.9185377841896
 20
-100.1868840415932
 10
129.8982184241896
 20
-100.2943226575932
 10
129.6170492801896
 20
-100.7492223295932
 10
129.1624036001896
 20
-101.0303914735932
 10
129.0547109921895
 20
-101.0509648255932
 10
128.9223811601896
 20
-101.0743320895931
 10
128.5032943601895
 20
-101.0179458655932
 10
128.0598243281895
 20
-100.7476983775932
 10
127.7895768401896
 20
-100.3039743535932
 10
127.7347145681896
 20
-99.88666549759322
 10
127.7593517921896
 20
-99.75560562559321
 10
127.7786551841896
 20
-99.64816700959318
 10
128.0598243281895
 20
-99.19199737759321
 10
128.5159939601896
 20
-98.91082823359324
 10
128.6231785841896
 20
-98.89177883359323
  0
LWPOLYLINE
  5
28A
330
6F
100
AcDbEntity
  8
0
 62
     1
100
AcDbPolyline
 90
       21
 70
     1
 43
0.00105830084664
 10
10.62705491458957
 20
-125.3407277695932
 10
10.75796239138957
 20
-125.3160905455932
 10
11.17687139698957
 20
-125.3712068095932
 10
11.61919846498957
 20
-125.6414542975932
 10
11.89066511458957
 20
-126.0849243295932
 10
11.94580677778957
 20
-126.5040111295932
 10
11.92236331618957
 20
-126.6360869695932
 10
11.90168836738958
 20
-126.7437795775932
 10
11.62057002178957
 20
-127.1984252575932
 10
11.16582274498957
 20
-127.4795944015932
 10
11.05838412898957
 20
-127.5001677535932
 10
10.92607969618957
 20
-127.5250589695932
 10
10.50717069058958
 20
-127.4684187535932
 10
10.06342126738958
 20
-127.1971552975932
 10
9.793351573789577
 20
-126.7547012335932
 10
9.738260708989574
 20
-126.3356144335932
 10
9.763050328189574
 20
-126.2048085535932
 10
9.782353720189576
 20
-126.0976239295932
 10
10.06342126738958
 20
-125.6414542975932
 10
10.51956550018957
 20
-125.3602851535932
 10
10.62705491458957
 20
-125.3407277695932
  0
LWPOLYLINE
  5
2A1
330
6F
100
AcDbEntity
  8
0
 62
     1
100
AcDbPolyline
 90
       21
 70
     1
 43
0.00105830084664
 10
80.42514868018958
 20
-125.3407277695932
 10
80.55595456018957
 20
-125.3160905455932
 10
80.97377140018958
 20
-125.3712068095932
 10
81.41749542418958
 20
-125.6414542975932
 10
81.68774291218957
 20
-126.0849243295932
 10
81.74412913618956
 20
-126.5040111295932
 10
81.72050788018959
 20
-126.6360869695932
 10
81.69993452818959
 20
-126.7437795775932
 10
81.41876538418959
 20
-127.1984252575932
 10
80.96411970418959
 20
-127.4795944015932
 10
80.85642709618957
 20
-127.5001677535932
 10
80.72435125618957
 20
-127.5250589695932
 10
80.30551844818958
 20
-127.4684187535932
 10
79.86179442418957
 20
-127.1971552975932
 10
79.59154693618959
 20
-126.7547012335932
 10
79.53643067218958
 20
-126.3356144335932
 10
79.56106789618958
 20
-126.2048085535932
 10
79.58062528018956
 20
-126.0976239295932
 10
79.86179442418957
 20
-125.6414542975932
 10
80.31644010418958
 20
-125.3602851535932
 10
80.42514868018958
 20
-125.3407277695932
  0
LWPOLYLINE
  5
2B8
330
6F
100
AcDbEntity
  8
0
 62
     1
100
AcDbPolyline
 90
       45
 70
     1
 43
0.00105830084664
 10
9.964237391389575
 20
-128.6703088975932
 10
81.65980379218956
 20
-128.6703088975932
 10
81.89017453618959
 20
-128.6703088975932
 10
82.58331870418958
 20
-128.3530728895932
 10
83.07504721618958
 20
-127.7041233295932
 10
83.11771787218956
 20
-127.5375045775932
 10
83.49794389618958
 20
-126.0397137535932
 10
83.53959858418958
 20
-125.8756349215932
 10
83.50937353618958
 20
-125.3465695855932
 10
83.22668044018959
 20
-124.7496883855932
 10
82.71666450418958
 20
-124.3293316255932
 10
82.21249038418958
 20
-124.1710946095932
 10
82.04434768018957
 20
-124.1710946095932
 10
12.52041287938957
 20
-124.1710946095932
 10
6.793452061789574
 20
-104.6708588095932
 10
56.34061127218958
 20
-104.6708588095932
 10
56.34061127218958
 20
-101.0453770015932
 10
63.34088478418959
 20
-101.0453770015932
 10
63.34088478418959
 20
-104.6708588095932
 10
129.8403082481896
 20
-104.6708588095932
 10
129.9848296961896
 20
-104.6708588095932
 10
130.4229658961896
 20
-104.5522445455932
 10
130.8986929121896
 20
-104.2311986575932
 10
131.2197388001896
 20
-103.7547096655932
 10
131.3380990721896
 20
-103.3175894335932
 10
131.3380990721896
 20
-103.1730679855932
 10
131.3380990721896
 20
-98.91082823359324
 10
131.3380990721896
 20
-98.76351287359321
 10
131.2197388001896
 20
-98.32385272159321
 10
130.8971689601896
 20
-97.8458397775932
 10
130.4189020241896
 20
-97.52352392959322
 10
129.9807658241896
 20
-97.40617962559321
 10
129.8347204241895
 20
-97.40617962559321
 10
1.664591605789575
 20
-97.40617962559321
 10
1.492334231389575
 20
-97.40617962559321
 10
0.9769590641895749
 20
-97.5700044655932
 10
0.4629554537895753
 20
-98.00712469759321
 10
0.1887380708295754
 20
-98.62153134559319
 10
0.1763331015495755
 20
-99.16304228959319
 10
0.2245585625895754
 20
-99.32864507359321
 10
8.526998260189575
 20
-127.5938908015932
 10
8.573834384989575
 20
-127.7523818095932
 10
9.065766090589576
 20
-128.3711063215932
 10
9.739632265789573
 20
-128.6703088975932
 10
9.964237391389575
 20
-128.6703088975932
  0
LWPOLYLINE
  5
2E7
330
6F
100
AcDbEntity
  8
0
 62
     1
100
AcDbPolyline
 90
       25
 70
     1
 43
0.00105830084664
 10
186.9567592481896
 20
-258.8961473671933
 10
186.8490666401896
 20
-258.8961473671933
 10
186.5280207521895
 20
-258.8093329015932
 10
186.1782737681896
 20
-258.5736791239932
 10
185.9410452401896
 20
-258.2236781479932
 10
185.8557039281896
 20
-257.9026068607932
 10
185.8557039281896
 20
-257.7965144023932
 10
185.8557039281896
 20
-257.6890249879932
 10
185.9410452401896
 20
-257.3679283015932
 10
186.1782737681896
 20
-257.0179527247932
 10
186.5280207521895
 20
-256.7822989471932
 10
186.8490666401896
 20
-256.6968560383932
 10
186.9567592481896
 20
-256.6968560383932
 10
187.0626739121895
 20
-256.6968560383932
 10
187.3839737921896
 20
-256.7822989471932
 10
187.7339747681896
 20
-257.0179527247932
 10
187.9694253521895
 20
-257.3679283015932
 10
188.0562906161896
 20
-257.6890249879932
 10
188.0562906161896
 20
-257.7965144023932
 10
188.0562906161896
 20
-257.9026068607932
 10
187.9694253521895
 20
-258.2236781479932
 10
187.7339747681896
 20
-258.5736791239932
 10
187.3839737921896
 20
-258.8093329015932
 10
187.0626739121895
 20
-258.8961473671933
 10
186.9567592481896
 20
-258.8961473671933
  0
LWPOLYLINE
  5
302
330
6F
100
AcDbEntity
  8
0
 62
     1
100
AcDbPolyline
 90
       25
 70
     1
 43
0.00105830084664
 10
56.46049549618957
 20
-258.8961473671933
 10
56.35305688018958
 20
-258.8961473671933
 10
56.03201099218957
 20
-258.8093329015932
 10
55.68201001618958
 20
-258.5736791239932
 10
55.44630544018957
 20
-258.2236781479932
 10
55.36096412818958
 20
-257.9026068607932
 10
55.36096412818958
 20
-257.7965144023932
 10
55.36096412818958
 20
-257.6890249879932
 10
55.44630544018957
 20
-257.3679283015932
 10
55.68201001618958
 20
-257.0179527247932
 10
56.03201099218957
 20
-256.7822989471932
 10
56.35305688018958
 20
-256.6968560383932
 10
56.46049549618957
 20
-256.6968560383932
 10
56.56691814418958
 20
-256.6968560383932
 10
56.88771004018958
 20
-256.7822989471932
 10
57.23771101618958
 20
-257.0179527247932
 10
57.47341559218958
 20
-257.3679283015932
 10
57.56028085618958
 20
-257.6890249879932
 10
57.56028085618958
 20
-257.7965144023932
 10
57.56028085618958
 20
-257.9026068607932
 10
57.47341559218958
 20
-258.2236781479932
 10
57.23771101618958
 20
-258.5736791239932
 10
56.88771004018958
 20
-258.8093329015932
 10
56.56691814418958
 20
-258.8961473671933
 10
56.46049549618957
 20
-258.8961473671933
  0
LWPOLYLINE
  5
31D
330
6F
100
AcDbEntity
  8
0
 62
     1
100
AcDbPolyline
 90
       25
 70
     1
 43
0.00105830084664
 10
189.3018673841896
 20
-256.7271572839932
 10
189.2591967281896
 20
-256.5604369351932
 10
188.7672142241896
 20
-255.9100142215932
 10
188.0743240481896
 20
-255.5930830039932
 10
187.8439533041896
 20
-255.5930830039932
 10
54.95991076018957
 20
-255.5930830039932
 10
54.78770418418957
 20
-255.5930830039932
 10
54.27387836818958
 20
-255.7570602391932
 10
53.76081452818958
 20
-256.1925041239932
 10
53.48675716018957
 20
-256.8070885663932
 10
53.47431155218958
 20
-257.3472533527932
 10
53.52282402418957
 20
-257.5126275439932
 10
53.96502409618959
 20
-259.0146346351932
 10
54.01175862418957
 20
-259.1744718007932
 10
54.50526508018957
 20
-259.7931963127932
 10
55.17910585618959
 20
-260.0936180503932
 10
55.40515873618957
 20
-260.0936180503932
 10
188.2284971921895
 20
-260.0936180503932
 10
188.3966398961895
 20
-260.0936180503932
 10
188.9008140161895
 20
-259.9337808847932
 10
189.4123539041896
 20
-259.5135003223932
 10
189.6932690561895
 20
-258.9154507591932
 10
189.7234941041896
 20
-258.3862838263932
 10
189.6823474001896
 20
-258.2236781479932
 10
189.3018673841896
 20
-256.7271572839932
  0
LWPOLYLINE
  5
338
330
6F
100
AcDbEntity
  8
0
 62
     1
100
AcDbPolyline
 90
       21
 70
     1
 43
0.00105830084664
 10
137.3295163601895
 20
-125.3407277695932
 10
137.4603222401896
 20
-125.3160905455932
 10
137.8781390801895
 20
-125.3712068095932
 10
138.3216091121896
 20
-125.6414542975932
 10
138.5918566001896
 20
-126.0849243295932
 10
138.6482428241896
 20
-126.5040111295932
 10
138.6236056001895
 20
-126.6360869695932
 10
138.6027782561895
 20
-126.7437795775932
 10
138.3216091121896
 20
-127.1984252575932
 10
137.8667094401896
 20
-127.4795944015932
 10
137.7595248161896
 20
-127.5001677535932
 10
137.6287189361896
 20
-127.5237890095932
 10
137.2096321361896
 20
-127.4668948015932
 10
136.7659081121896
 20
-127.1971552975932
 10
136.4959146161896
 20
-126.7534312735932
 10
136.4395283921896
 20
-126.3356144335932
 10
136.4641656161895
 20
-126.2048085535932
 10
136.4837230001896
 20
-126.0976239295932
 10
136.7643841601896
 20
-125.6414542975932
 10
137.2205537921896
 20
-125.3602851535932
 10
137.3295163601895
 20
-125.3407277695932
  0
LWPOLYLINE
  5
34F
330
6F
100
AcDbEntity
  8
0
 62
     1
100
AcDbPolyline
 90
       21
 70
     1
 43
0.00105830084664
 10
137.3295163601895
 20
-98.89177883359323
 10
137.4603222401896
 20
-98.86688761759323
 10
137.8781390801895
 20
-98.9217498895932
 10
138.3216091121896
 20
-99.19199737759321
 10
138.5918566001896
 20
-99.63572140159321
 10
138.6482428241896
 20
-100.0545542095932
 10
138.6236056001895
 20
-100.1868840415932
 10
138.6027782561895
 20
-100.2943226575932
 10
138.3216091121896
 20
-100.7492223295932
 10
137.8667094401896
 20
-101.0303914735932
 10
137.7595248161896
 20
-101.0509648255932
 10
137.6271949841896
 20
-101.0758560415932
 10
137.2081081841896
 20
-101.0192158255932
 10
136.7659081121896
 20
-100.7476983775932
 10
136.4946446561896
 20
-100.3052443135932
 10
136.4395283921896
 20
-99.88666549759322
 10
136.4641656161895
 20
-99.75560562559321
 10
136.4837230001896
 20
-99.64816700959318
 10
136.7643841601896
 20
-99.19199737759321
 10
137.2205537921896
 20
-98.91082823359324
 10
137.3295163601895
 20
-98.89177883359323
  0
LWPOLYLINE
  5
366
330
6F
100
AcDbEntity
  8
0
 62
     1
100
AcDbPolyline
 90
       21
 70
     1
 43
0.00105830084664
 10
308.3230265681895
 20
-98.89177883359323
 10
308.4551024081895
 20
-98.86688761759323
 10
308.8716492881896
 20
-98.9217498895932
 10
309.3161352881896
 20
-99.19199737759321
 10
309.5853668081895
 20
-99.63572140159321
 10
309.6412450481896
 20
-100.0545542095932
 10
309.6183857681896
 20
-100.1868840415932
 10
309.5980664081896
 20
-100.2943226575932
 10
309.3161352881896
 20
-100.7492223295932
 10
308.8614896081896
 20
-101.0303914735932
 10
308.7522730481895
 20
-101.0509648255932
 10
308.6227371281895
 20
-101.0758560415932
 10
308.2036503281896
 20
-101.0192158255932
 10
307.7591643281896
 20
-100.7476983775932
 10
307.4899328081896
 20
-100.3052443135932
 10
307.4340545681895
 20
-99.88666549759322
 10
307.4594537681896
 20
-99.75560562559321
 10
307.4797731281896
 20
-99.64816700959318
 10
307.7591643281896
 20
-99.19199737759321
 10
308.2138100081896
 20
-98.91082823359324
 10
308.3230265681895
 20
-98.89177883359323
  0
LWPOLYLINE
  5
37D
330
6F
100
AcDbEntity
  8
0
 62
     1
100
AcDbPolyline
 90
       21
 70
     1
 43
0.00105830084664
 10
169.9273576241895
 20
-125.3407277695932
 10
170.0581635041896
 20
-125.3160905455932
 10
170.4772503041896
 20
-125.3712068095932
 10
170.9197043681895
 20
-125.6414542975932
 10
171.1909678241896
 20
-126.0849243295932
 10
171.2463380801896
 20
-126.5040111295932
 10
171.2227168241895
 20
-126.6360869695932
 10
171.2021434721895
 20
-126.7437795775932
 10
170.9209743281896
 20
-127.1984252575932
 10
170.4663286481896
 20
-127.4795944015932
 10
170.3586360401896
 20
-127.5001677535932
 10
170.2265602001896
 20
-127.5237890095932
 10
169.8074734001896
 20
-127.4668948015932
 10
169.3650193361895
 20
-127.1971552975932
 10
169.0937558801896
 20
-126.7534312735932
 10
169.0386396161895
 20
-126.3356144335932
 10
169.0632768401895
 20
-126.2048085535932
 10
169.0828342241896
 20
-126.0976239295932
 10
169.3640033681896
 20
-125.6414542975932
 10
169.8201730001896
 20
-125.3602851535932
 10
169.9273576241895
 20
-125.3407277695932
  0
LWPOLYLINE
  5
394
330
6F
100
AcDbEntity
  8
0
 62
     1
100
AcDbPolyline
 90
       45
 70
     1
 43
0.00105830084664
 10
136.5413791841896
 20
-128.6703088975932
 10
171.2928186161896
 20
-128.6703088975932
 10
171.5231893601896
 20
-128.6703088975932
 10
172.2150635681896
 20
-128.3530728895932
 10
172.7067920801896
 20
-127.7025993775932
 10
172.7494627361896
 20
-127.5375045775932
 10
173.1296887601896
 20
-126.0397137535932
 10
173.1713434481896
 20
-125.8756349215932
 10
173.1411184001896
 20
-125.3465695855932
 10
172.8599492561895
 20
-124.7496883855932
 10
172.3486633601896
 20
-124.3293316255932
 10
171.8442352481896
 20
-124.1710946095932
 10
171.6760925441896
 20
-124.1710946095932
 10
140.0441828561895
 20
-124.1710946095932
 10
140.0441828561895
 20
-104.6708588095932
 10
241.1904010481896
 20
-104.6708588095932
 10
241.1904010481896
 20
-101.2716838735932
 10
248.1906745601896
 20
-101.2716838735932
 10
248.1906745601896
 20
-104.6708588095932
 10
310.4870384081896
 20
-104.6708588095932
 10
310.6597529681895
 20
-104.6708588095932
 10
311.1728168081895
 20
-104.5057640095932
 10
311.6884205681895
 20
-104.0701677295932
 10
311.9601920081895
 20
-103.4555070895932
 10
311.9728916081896
 20
-102.9155200975932
 10
311.9246331281896
 20
-102.7514412655932
 10
310.6724525681896
 20
-98.4836136895932
 10
310.6241940881895
 20
-98.32385272159321
 10
310.1314496081896
 20
-97.7051282095932
 10
309.4583708081895
 20
-97.40617962559321
 10
309.2323179281895
 20
-97.40617962559321
 10
136.5439191041895
 20
-97.40617962559321
 10
136.3978737041896
 20
-97.40617962559321
 10
135.9597375041895
 20
-97.52352392959322
 10
135.4832485121896
 20
-97.8458397775932
 10
135.1606786721895
 20
-98.32232876959318
 10
135.0435883601895
 20
-98.76046496959318
 10
135.0435883601895
 20
-98.90701835359323
 10
135.0435883601895
 20
-127.1735340415932
 10
135.0435883601895
 20
-127.3185634735932
 10
135.1606786721895
 20
-127.7551757215932
 10
135.4817245601896
 20
-128.2316647135932
 10
135.9584675441896
 20
-128.5516946335932
 10
136.3953337841895
 20
-128.6703088975932
 10
136.5413791841896
 20
-128.6703088975932
  0
LWPOLYLINE
  5
3C3
330
6F
100
AcDbEntity
  8
0
 62
     1
100
AcDbPolyline
 90
       25
 70
     1
 43
0.00105830084664
 10
44.63208805618958
 20
-258.9429834919932
 10
44.52439544818957
 20
-258.9429834919932
 10
44.20334956018957
 20
-258.8561690263932
 10
43.85334858418957
 20
-258.6205406479932
 10
43.61789800018956
 20
-258.2705142727932
 10
43.53204870418958
 20
-257.9494683847932
 10
43.53204870418958
 20
-257.8433505271932
 10
43.53204870418958
 20
-257.7358611127932
 10
43.61789800018956
 20
-257.4148152247932
 10
43.85334858418957
 20
-257.0647888495932
 10
44.20334956018957
 20
-256.8291350719932
 10
44.52439544818957
 20
-256.7437175623932
 10
44.63208805618958
 20
-256.7437175623932
 10
44.73774872818958
 20
-256.7437175623932
 10
45.05879461618958
 20
-256.8291350719932
 10
45.40904958418957
 20
-257.0647888495932
 10
45.64475416018956
 20
-257.4148152247932
 10
45.73161942418957
 20
-257.7358611127932
 10
45.73161942418957
 20
-257.8433505271932
 10
45.73161942418957
 20
-257.9494683847932
 10
45.64475416018956
 20
-258.2705142727932
 10
45.40904958418957
 20
-258.6205406479932
 10
45.05879461618958
 20
-258.8561690263932
 10
44.73774872818958
 20
-258.9429834919932
 10
44.63208805618958
 20
-258.9429834919932
  0
LWPOLYLINE
  5
3DE
330
6F
100
AcDbEntity
  8
0
 62
     1
100
AcDbPolyline
 90
       25
 70
     1
 43
0.00105830084664
 10
11.83280573698958
 20
-258.9429834919932
 10
11.72531632258957
 20
-258.9429834919932
 10
11.40421963618957
 20
-258.8561690263932
 10
11.05421866018957
 20
-258.6205406479932
 10
10.81859028178957
 20
-258.2705142727932
 10
10.73314737298957
 20
-257.9494683847932
 10
10.73314737298957
 20
-257.8433505271932
 10
10.73314737298957
 20
-257.7358611127932
 10
10.81859028178957
 20
-257.4148152247932
 10
11.05421866018957
 20
-257.0647888495932
 10
11.40421963618957
 20
-256.8291350719932
 10
11.72531632258957
 20
-256.7437175623932
 10
11.83280573698958
 20
-256.7437175623932
 10
11.93892359458957
 20
-256.7437175623932
 10
12.25996948258957
 20
-256.8291350719932
 10
12.60999585778957
 20
-257.0647888495932
 10
12.84562423618957
 20
-257.4148152247932
 10
12.93243870178957
 20
-257.7358611127932
 10
12.93243870178957
 20
-257.8433505271932
 10
12.93243870178957
 20
-257.9494683847932
 10
12.84562423618957
 20
-258.2705142727932
 10
12.60999585778957
 20
-258.6205406479932
 10
12.25996948258957
 20
-258.8561690263932
 10
11.93892359458957
 20
-258.9429834919932
 10
11.83280573698958
 20
-258.9429834919932
  0
LWPOLYLINE
  5
3F9
330
6F
100
AcDbEntity
  8
0
 62
     1
100
AcDbPolyline
 90
       27
 70
     1
 43
0.00105830084664
 10
47.10952602418958
 20
-256.7271572839932
 10
47.06685536818958
 20
-256.5604369351932
 10
46.57461887218958
 20
-255.9100142215932
 10
45.88172869618958
 20
-255.5930830039932
 10
45.65161194418958
 20
-255.5930830039932
 10
10.83098509138957
 20
-255.5930830039932
 10
10.68493969138957
 20
-255.5930830039932
 10
10.24809885058957
 20
-255.7101987151932
 10
9.771305068189576
 20
-256.0312954015932
 10
9.450259180189576
 20
-256.5080637847932
 10
9.333092670589577
 20
-256.9448792263932
 10
9.333092670589577
 20
-257.0909754247932
 10
9.333092670589577
 20
-258.5943540727932
 10
9.333092670589577
 20
-258.7390533151932
 10
9.450259180189576
 20
-259.1772403135932
 10
9.771305068189576
 20
-259.6540340959932
 10
10.24809885058957
 20
-259.9751307823932
 10
10.68631124818957
 20
-260.0936180503932
 10
10.83235664818957
 20
-260.0936180503932
 10
46.03590184018957
 20
-260.0936180503932
 10
46.20429853618957
 20
-260.0936180503932
 10
46.70847265618959
 20
-259.9337808847932
 10
47.21848859218957
 20
-259.5135003223932
 10
47.50067370418958
 20
-258.9154507591932
 10
47.52962879218958
 20
-258.3862838263932
 10
47.48975204818957
 20
-258.2236781479932
 10
47.10952602418958
 20
-256.7271572839932
  0
LWPOLYLINE
  5
416
330
6F
100
AcDbEntity
  8
0
 62
     1
100
AcDbPolyline
 90
       25
 70
     1
 43
0.00105830084664
 10
137.1588337361896
 20
-216.1852844335932
 10
137.0511411281896
 20
-216.1852844335932
 10
136.7300952401895
 20
-216.0984191695932
 10
136.3803482561896
 20
-215.8629685855932
 10
136.1446436801895
 20
-215.5124596255932
 10
136.0587943841895
 20
-215.1916677295932
 10
136.0587943841895
 20
-215.0854990735932
 10
136.0587943841895
 20
-214.9780604575932
 10
136.1446436801895
 20
-214.6570145695932
 10
136.3803482561896
 20
-214.3067596015932
 10
136.7300952401895
 20
-214.0710550255932
 10
137.0511411281896
 20
-213.9857137135932
 10
137.1588337361896
 20
-213.9857137135932
 10
137.2647484001896
 20
-213.9857137135932
 10
137.5860482801895
 20
-214.0710550255932
 10
137.9360492561895
 20
-214.3067596015932
 10
138.1714998401895
 20
-214.6570145695932
 10
138.2583651041896
 20
-214.9780604575932
 10
138.2583651041896
 20
-215.0854990735932
 10
138.2583651041896
 20
-215.1916677295932
 10
138.1714998401895
 20
-215.5124596255932
 10
137.9360492561895
 20
-215.8629685855932
 10
137.5860482801895
 20
-216.0984191695932
 10
137.2647484001896
 20
-216.1852844335932
 10
137.1588337361896
 20
-216.1852844335932
  0
LWPOLYLINE
  5
431
330
6F
100
AcDbEntity
  8
0
 62
     1
100
AcDbPolyline
 90
       25
 70
     1
 43
0.00105830084664
 10
128.8118946401895
 20
-142.1384886895932
 10
128.7047100161895
 20
-142.1384886895932
 10
128.3836641281896
 20
-142.0518774175932
 10
128.0334091601896
 20
-141.8146488895932
 10
127.7977045841896
 20
-141.4646479135932
 10
127.7123632721895
 20
-141.1436020255932
 10
127.7123632721895
 20
-141.0374333695932
 10
127.7123632721895
 20
-140.9302487455932
 10
127.7977045841896
 20
-140.6089488655932
 10
128.0334091601896
 20
-140.2589478895932
 10
128.3836641281896
 20
-140.0232433135932
 10
128.7047100161895
 20
-139.9379020015932
 10
128.8118946401895
 20
-139.9379020015932
 10
128.9180632961896
 20
-139.9379020015932
 10
129.2391091841896
 20
-140.0232433135932
 10
129.5893641521896
 20
-140.2589478895932
 10
129.8250687281896
 20
-140.6089488655932
 10
129.9119339921896
 20
-140.9302487455932
 10
129.9119339921896
 20
-141.0374333695932
 10
129.9119339921896
 20
-141.1436020255932
 10
129.8250687281896
 20
-141.4646479135932
 10
129.5893641521896
 20
-141.8146488895932
 10
129.2391091841896
 20
-142.0518774175932
 10
128.9180632961896
 20
-142.1384886895932
 10
128.8118946401895
 20
-142.1384886895932
  0
LWPOLYLINE
  5
44C
330
6F
100
AcDbEntity
  8
0
 62
     1
100
AcDbPolyline
 90
       25
 70
     1
 43
0.00105830084664
 10
95.16024056818958
 20
-174.9362216575932
 10
95.05254796018958
 20
-174.9362216575932
 10
94.73150207218957
 20
-174.8496103855932
 10
94.38150109618957
 20
-174.6139058095932
 10
94.14605051218956
 20
-174.2639048335932
 10
94.06070920018958
 20
-173.9428589455932
 10
94.06070920018958
 20
-173.8366902895932
 10
94.06070920018958
 20
-173.7292516735932
 10
94.14605051218956
 20
-173.4082057855932
 10
94.38150109618957
 20
-173.0582048095932
 10
94.73150207218957
 20
-172.8225002335932
 10
95.05254796018958
 20
-172.7371589215932
 10
95.16024056818958
 20
-172.7371589215932
 10
95.26640922418959
 20
-172.7371589215932
 10
95.58745511218956
 20
-172.8225002335932
 10
95.93720209618957
 20
-173.0582048095932
 10
96.17290667218957
 20
-173.4082057855932
 10
96.25977193618957
 20
-173.7292516735932
 10
96.25977193618957
 20
-173.8366902895932
 10
96.25977193618957
 20
-173.9428589455932
 10
96.17290667218957
 20
-174.2639048335932
 10
95.93720209618957
 20
-174.6139058095932
 10
95.58745511218956
 20
-174.8496103855932
 10
95.26640922418959
 20
-174.9362216575932
 10
95.16024056818958
 20
-174.9362216575932
  0
LWPOLYLINE
  5
467
330
6F
100
AcDbEntity
  8
0
 62
     1
100
AcDbPolyline
 90
       25
 70
     1
 43
0.00105830084664
 10
57.16202140018957
 20
-156.9370785775932
 10
57.05432879218958
 20
-156.9370785775932
 10
56.73328290418957
 20
-156.8499593215932
 10
56.38328192818958
 20
-156.6142547455932
 10
56.14630739218958
 20
-156.2642537695932
 10
56.06096608018958
 20
-155.9434618735932
 10
56.06096608018958
 20
-155.8372932175932
 10
56.06096608018958
 20
-155.7298546015932
 10
56.14630739218958
 20
-155.4085547215932
 10
56.38328192818958
 20
-155.0585537455932
 10
56.73328290418957
 20
-154.8228491695932
 10
57.05432879218958
 20
-154.7375078575932
 10
57.16202140018957
 20
-154.7375078575932
 10
57.26819005618958
 20
-154.7375078575932
 10
57.58923594418957
 20
-154.8228491695932
 10
57.93898292818957
 20
-155.0585537455932
 10
58.17468750418957
 20
-155.4085547215932
 10
58.26155276818958
 20
-155.7298546015932
 10
58.26155276818958
 20
-155.8372932175932
 10
58.26155276818958
 20
-155.9434618735932
 10
58.17468750418957
 20
-156.2642537695932
 10
57.93898292818957
 20
-156.6142547455932
 10
57.58923594418957
 20
-156.8499593215932
 10
57.26819005618958
 20
-156.9370785775932
 10
57.16202140018957
 20
-156.9370785775932
  0
LWPOLYLINE
  5
482
330
6F
100
AcDbEntity
  8
0
 62
     1
100
AcDbPolyline
 90
       25
 70
     1
 43
0.00105830084664
 10
2.663618339389574
 20
-142.1384886895932
 10
2.556128924989574
 20
-142.1384886895932
 10
2.235057637789575
 20
-142.0518774175932
 10
1.885056661789574
 20
-141.8146488895932
 10
1.648031327389575
 20
-141.4646479135932
 10
1.562588418589574
 20
-141.1436020255932
 10
1.562588418589574
 20
-141.0374333695932
 10
1.562588418589574
 20
-140.9302487455932
 10
1.648031327389575
 20
-140.6089488655932
 10
1.885056661789574
 20
-140.2589478895932
 10
2.235057637789575
 20
-140.0232433135932
 10
2.556128924989574
 20
-139.9379020015932
 10
2.663618339389574
 20
-139.9379020015932
 10
2.769736196989575
 20
-139.9379020015932
 10
3.090782084989575
 20
-140.0232433135932
 10
3.440808460189574
 20
-140.2589478895932
 10
3.676436838589575
 20
-140.6089488655932
 10
3.763276703389575
 20
-140.9302487455932
 10
3.763276703389575
 20
-141.0374333695932
 10
3.763276703389575
 20
-141.1436020255932
 10
3.676436838589575
 20
-141.4646479135932
 10
3.440808460189574
 20
-141.8146488895932
 10
3.090782084989575
 20
-142.0518774175932
 10
2.769736196989575
 20
-142.1384886895932
 10
2.663618339389574
 20
-142.1384886895932
  0
LWPOLYLINE
  5
49D
330
6F
100
AcDbEntity
  8
0
 62
     1
100
AcDbPolyline
 90
       25
 70
     1
 43
0.00105830084664
 10
2.663618339389574
 20
-216.1852844335932
 10
2.556128924989574
 20
-216.1852844335932
 10
2.235057637789575
 20
-216.0984191695932
 10
1.885056661789574
 20
-215.8629685855932
 10
1.648031327389575
 20
-215.5124596255932
 10
1.562588418589574
 20
-215.1916677295932
 10
1.562588418589574
 20
-215.0854990735932
 10
1.562588418589574
 20
-214.9780604575932
 10
1.648031327389575
 20
-214.6570145695932
 10
1.885056661789574
 20
-214.3067596015932
 10
2.235057637789575
 20
-214.0710550255932
 10
2.556128924989574
 20
-213.9857137135932
 10
2.663618339389574
 20
-213.9857137135932
 10
2.769736196989575
 20
-213.9857137135932
 10
3.090782084989575
 20
-214.0710550255932
 10
3.440808460189574
 20
-214.3067596015932
 10
3.676436838589575
 20
-214.6570145695932
 10
3.763276703389575
 20
-214.9780604575932
 10
3.763276703389575
 20
-215.0854990735932
 10
3.763276703389575
 20
-215.1916677295932
 10
3.676436838589575
 20
-215.5124596255932
 10
3.440808460189574
 20
-215.8629685855932
 10
3.090782084989575
 20
-216.0984191695932
 10
2.769736196989575
 20
-216.1852844335932
 10
2.663618339389574
 20
-216.1852844335932
  0
LWPOLYLINE
  5
4B8
330
6F
100
AcDbEntity
  8
0
 62
     1
100
AcDbPolyline
 90
       25
 70
     1
 43
0.00105830084664
 10
120.6600214001896
 20
-115.6895397535932
 10
120.5523287921896
 20
-115.6895397535932
 10
120.2312829041896
 20
-115.6026744895932
 10
119.8812819281895
 20
-115.3656999535932
 10
119.6443073921895
 20
-115.0156989775932
 10
119.5589660801895
 20
-114.6943990975932
 10
119.5589660801895
 20
-114.5884844335932
 10
119.5589660801895
 20
-114.4807918255932
 10
119.6443073921895
 20
-114.1599999295932
 10
119.8812819281895
 20
-113.8099989535932
 10
120.2312829041896
 20
-113.5742943775932
 10
120.5523287921896
 20
-113.4886990735932
 10
120.6600214001896
 20
-113.4886990735932
 10
120.7661900561896
 20
-113.4886990735932
 10
121.0872359441896
 20
-113.5742943775932
 10
121.4369829281896
 20
-113.8099989535932
 10
121.6726875041896
 20
-114.1599999295932
 10
121.7595527681895
 20
-114.4807918255932
 10
121.7595527681895
 20
-114.5884844335932
 10
121.7595527681895
 20
-114.6943990975932
 10
121.6726875041896
 20
-115.0156989775932
 10
121.4369829281896
 20
-115.3656999535932
 10
121.0872359441896
 20
-115.6026744895932
 10
120.7661900561896
 20
-115.6895397535932
 10
120.6600214001896
 20
-115.6895397535932
  0
LWPOLYLINE
  5
4D3
330
6F
100
AcDbEntity
  8
0
 62
     1
100
AcDbPolyline
 90
       25
 70
     1
 43
0.00105830084664
 10
50.86174984018956
 20
-115.6895397535932
 10
50.75431122418958
 20
-115.6895397535932
 10
50.43326533618959
 20
-115.6026744895932
 10
50.08326436018958
 20
-115.3656999535932
 10
49.84755978418958
 20
-115.0156989775932
 10
49.76221847218958
 20
-114.6943990975932
 10
49.76221847218958
 20
-114.5884844335932
 10
49.76221847218958
 20
-114.4807918255932
 10
49.84755978418958
 20
-114.1599999295932
 10
50.08326436018958
 20
-113.8099989535932
 10
50.43326533618959
 20
-113.5742943775932
 10
50.75431122418958
 20
-113.4886990735932
 10
50.86174984018956
 20
-113.4886990735932
 10
50.96766450418957
 20
-113.4886990735932
 10
51.28896438418957
 20
-113.5742943775932
 10
51.63896536018957
 20
-113.8099989535932
 10
51.87466993618958
 20
-114.1599999295932
 10
51.96153520018958
 20
-114.4807918255932
 10
51.96153520018958
 20
-114.5884844335932
 10
51.96153520018958
 20
-114.6943990975932
 10
51.87466993618958
 20
-115.0156989775932
 10
51.63896536018957
 20
-115.3656999535932
 10
51.28896438418957
 20
-115.6026744895932
 10
50.96766450418957
 20
-115.6895397535932
 10
50.86174984018956
 20
-115.6895397535932
  0
LWPOLYLINE
  5
4EE
330
6F
100
AcDbEntity
  8
0
 62
     1
100
AcDbPolyline
 90
       49
 70
     1
 43
0.00105830084664
 10
143.5718777441896
 20
-183.5417246095932
 10
122.9751584801895
 20
-113.4155493775932
 10
122.9281699601895
 20
-113.2557884095932
 10
122.4346635041896
 20
-112.6370638975932
 10
121.7608227281896
 20
-112.3396392655932
 10
121.5375637601896
 20
-112.3396392655932
 10
49.84197196018957
 20
-112.3396392655932
 10
49.61058524818957
 20
-112.3396392655932
 10
48.91871104018957
 20
-112.6550973295932
 10
48.42520458418958
 20
-113.3055708415932
 10
48.38405788018957
 20
-113.4724435855932
 10
48.00510181618959
 20
-114.9702344095932
 10
47.96395511218958
 20
-115.1327892895932
 10
47.99291020018957
 20
-115.6618546255932
 10
48.27382535218958
 20
-116.2600057855932
 10
48.78511124818958
 20
-116.6785846015932
 10
49.28953936018958
 20
-116.8388535535932
 10
49.45895202418957
 20
-116.8388535535932
 10
118.9813882721896
 20
-116.8388535535932
 10
124.7086538801895
 20
-136.3385813695932
 10
75.16141847218958
 20
-136.3385813695932
 10
75.16141847218958
 20
-139.9627932175932
 10
68.16114496018958
 20
-139.9627932175932
 10
68.16114496018958
 20
-136.3385813695932
 10
1.661797693789575
 20
-136.3385813695932
 10
1.515752293789575
 20
-136.3385813695932
 10
1.077539896189575
 20
-136.4559256735932
 10
0.6021430697895754
 20
-136.7767175695932
 10
0.2810717825895752
 20
-137.2537145455932
 10
0.1639306721895752
 20
-137.6905807855932
 10
0.1639306721895752
 20
-137.8366261855932
 10
0.1639306721895752
 20
-215.8378233775932
 10
0.1639306721895752
 20
-215.9823448255932
 10
0.2810717825895752
 20
-216.4194650575932
 10
0.6021430697895754
 20
-216.8962080415932
 10
1.077539896189575
 20
-217.2172539295932
 10
1.515752293789575
 20
-217.3356142015932
 10
1.661797693789575
 20
-217.3356142015932
 10
138.3284668961896
 20
-217.3356142015932
 10
138.4623206801895
 20
-217.3356142015932
 10
138.8671839281895
 20
-217.2350333695932
 10
139.3220836001896
 20
-216.9569121295932
 10
139.6515112241896
 20
-216.5396032735932
 10
139.8003505361895
 20
-216.1492175695932
 10
139.8168600161896
 20
-216.0156177775932
 10
143.6229301361896
 20
-184.1413997215932
 10
143.6282639681896
 20
-184.0903473295932
 10
143.5855933121896
 20
-183.5899830895932
 10
143.5718777441896
 20
-183.5417246095932
  0
LWPOLYLINE
  5
521
330
6F
100
AcDbEntity
  8
0
 62
     1
100
AcDbPolyline
 90
       25
 70
     1
 43
0.00105830084664
 10
187.3095541361895
 20
-266.8912567447932
 10
187.2018615281895
 20
-266.8912567447932
 10
186.8808156401896
 20
-266.8044422791932
 10
186.5310686561896
 20
-266.5688139007932
 10
186.2938401281896
 20
-266.2188129247932
 10
186.2084988161895
 20
-265.8977162383932
 10
186.2084988161895
 20
-265.7915983807932
 10
186.2084988161895
 20
-265.6841597647932
 10
186.2938401281896
 20
-265.3630630783932
 10
186.5310686561896
 20
-265.0130621023933
 10
186.8808156401896
 20
-264.7774083247932
 10
187.2018615281895
 20
-264.6919908151932
 10
187.3095541361895
 20
-264.6919908151932
 10
187.4154688001896
 20
-264.6919908151932
 10
187.7367686801896
 20
-264.7774083247932
 10
188.0867696561896
 20
-265.0130621023933
 10
188.3222202401896
 20
-265.3630630783932
 10
188.4090855041896
 20
-265.6841597647932
 10
188.4090855041896
 20
-265.7915983807932
 10
188.4090855041896
 20
-265.8977162383932
 10
188.3222202401896
 20
-266.2188129247932
 10
188.0867696561896
 20
-266.5688139007932
 10
187.7367686801896
 20
-266.8044422791932
 10
187.4154688001896
 20
-266.8912567447932
 10
187.3095541361895
 20
-266.8912567447932
  0
LWPOLYLINE
  5
53C
330
6F
100
AcDbEntity
  8
0
 62
     1
100
AcDbPolyline
 90
       25
 70
     1
 43
0.00105830084664
 10
56.81329038418958
 20
-266.8912567447932
 10
56.70585176818958
 20
-266.8912567447932
 10
56.38480588018958
 20
-266.8044422791932
 10
56.03480490418958
 20
-266.5688139007932
 10
55.79910032818958
 20
-266.2188129247932
 10
55.71375901618958
 20
-265.8977162383932
 10
55.71375901618958
 20
-265.7915983807932
 10
55.71375901618958
 20
-265.6841597647932
 10
55.79910032818958
 20
-265.3630630783932
 10
56.03480490418958
 20
-265.0130621023933
 10
56.38480588018958
 20
-264.7774083247932
 10
56.70585176818958
 20
-264.6919908151932
 10
56.81329038418958
 20
-264.6919908151932
 10
56.91945904018957
 20
-264.6919908151932
 10
57.24050492818958
 20
-264.7774083247932
 10
57.59050590418958
 20
-265.0130621023933
 10
57.82621048018956
 20
-265.3630630783932
 10
57.91307574418958
 20
-265.6841597647932
 10
57.91307574418958
 20
-265.7915983807932
 10
57.91307574418958
 20
-265.8977162383932
 10
57.82621048018956
 20
-266.2188129247932
 10
57.59050590418958
 20
-266.5688139007932
 10
57.24050492818958
 20
-266.8044422791932
 10
56.91945904018957
 20
-266.8912567447932
 10
56.81329038418958
 20
-266.8912567447932
  0
LWPOLYLINE
  5
557
330
6F
100
AcDbEntity
  8
0
 62
     1
100
AcDbPolyline
 90
       25
 70
     1
 43
0.00105830084664
 10
189.6546622721895
 20
-264.7236890167932
 10
189.6119916161895
 20
-264.5555463127932
 10
189.1200091121895
 20
-263.9051489983932
 10
188.4271189361895
 20
-263.5896147367932
 10
188.1967481921895
 20
-263.5896147367932
 10
55.31270564818958
 20
-263.5896147367932
 10
55.14049907218958
 20
-263.5896147367932
 10
54.62667325618958
 20
-263.7535665727932
 10
54.11360941618958
 20
-264.1890358567932
 10
53.83955204818957
 20
-264.8022487423932
 10
53.82710644018957
 20
-265.3423881295932
 10
53.87561891218958
 20
-265.5077623207932
 10
54.31781898418957
 20
-267.0097694119932
 10
54.36455351218959
 20
-267.1696319767932
 10
54.85805996818958
 20
-267.7883310895932
 10
55.53190074418957
 20
-268.0887528271932
 10
55.75795362418958
 20
-268.0887528271932
 10
188.5812920801896
 20
-268.0887528271932
 10
188.7494347841896
 20
-268.0887528271932
 10
189.2536089041896
 20
-267.9288902623932
 10
189.7651487921896
 20
-267.5099812567932
 10
190.0458099521896
 20
-266.9119316935932
 10
190.0762889921896
 20
-266.3827647607933
 10
190.0348882961895
 20
-266.2201844815932
 10
189.6546622721895
 20
-264.7236890167932
  0
LWPOLYLINE
  5
572
330
6F
100
AcDbEntity
  8
0
 62
     1
100
AcDbPolyline
 90
       25
 70
     1
 43
0.00105830084664
 10
308.9275275281896
 20
-115.6895397535932
 10
308.8208508881896
 20
-115.6895397535932
 10
308.4982810481895
 20
-115.6026744895932
 10
308.1477720881895
 20
-115.3656999535932
 10
307.9140994481896
 20
-115.0156989775932
 10
307.8277421681895
 20
-114.6943990975932
 10
307.8277421681895
 20
-114.5884844335932
 10
307.8277421681895
 20
-114.4807918255932
 10
307.9140994481896
 20
-114.1599999295932
 10
308.1477720881895
 20
-113.8099989535932
 10
308.4982810481895
 20
-113.5742943775932
 10
308.8208508881896
 20
-113.4886990735932
 10
308.9275275281896
 20
-113.4886990735932
 10
309.0342041681895
 20
-113.4886990735932
 10
309.3542340881895
 20
-113.5742943775932
 10
309.7047430481896
 20
-113.8099989535932
 10
309.9409556081895
 20
-114.1599999295932
 10
310.0273128881895
 20
-114.4807918255932
 10
310.0273128881895
 20
-114.5884844335932
 10
310.0273128881895
 20
-114.6943990975932
 10
309.9409556081895
 20
-115.0156989775932
 10
309.7047430481896
 20
-115.3656999535932
 10
309.3542340881895
 20
-115.6026744895932
 10
309.0342041681895
 20
-115.6895397535932
 10
308.9275275281896
 20
-115.6895397535932
  0
LWPOLYLINE
  5
58D
330
6F
100
AcDbEntity
  8
0
 62
     1
100
AcDbPolyline
 90
       25
 70
     1
 43
0.00105830084664
 10
308.9275275281896
 20
-142.1384886895932
 10
308.8208508881896
 20
-142.1384886895932
 10
308.4982810481895
 20
-142.0518774175932
 10
308.1477720881895
 20
-141.8146488895932
 10
307.9140994481896
 20
-141.4646479135932
 10
307.8277421681895
 20
-141.1436020255932
 10
307.8277421681895
 20
-141.0374333695932
 10
307.8277421681895
 20
-140.9302487455932
 10
307.9140994481896
 20
-140.6089488655932
 10
308.1477720881895
 20
-140.2604718415932
 10
308.4982810481895
 20
-140.0232433135932
 10
308.8208508881896
 20
-139.9379020015932
 10
308.9275275281896
 20
-139.9379020015932
 10
309.0342041681895
 20
-139.9379020015932
 10
309.3542340881895
 20
-140.0232433135932
 10
309.7047430481896
 20
-140.2604718415932
 10
309.9409556081895
 20
-140.6089488655932
 10
310.0273128881895
 20
-140.9302487455932
 10
310.0273128881895
 20
-141.0374333695932
 10
310.0273128881895
 20
-141.1436020255932
 10
309.9409556081895
 20
-141.4646479135932
 10
309.7047430481896
 20
-141.8146488895932
 10
309.3542340881895
 20
-142.0518774175932
 10
309.0342041681895
 20
-142.1384886895932
 10
308.9275275281896
 20
-142.1384886895932
  0
LWPOLYLINE
  5
5A8
330
6F
100
AcDbEntity
  8
0
 62
     1
100
AcDbPolyline
 90
       25
 70
     1
 43
0.00105830084664
 10
308.9275275281896
 20
-216.1852844335932
 10
308.8208508881896
 20
-216.1852844335932
 10
308.4982810481895
 20
-216.0984191695932
 10
308.1477720881895
 20
-215.8629685855932
 10
307.9140994481896
 20
-215.5124596255932
 10
307.8277421681895
 20
-215.1916677295932
 10
307.8277421681895
 20
-215.0854990735932
 10
307.8277421681895
 20
-214.9780604575932
 10
307.9140994481896
 20
-214.6570145695932
 10
308.1477720881895
 20
-214.3067596015932
 10
308.4982810481895
 20
-214.0710550255932
 10
308.8208508881896
 20
-213.9857137135932
 10
308.9275275281896
 20
-213.9857137135932
 10
309.0342041681895
 20
-213.9857137135932
 10
309.3542340881895
 20
-214.0710550255932
 10
309.7047430481896
 20
-214.3067596015932
 10
309.9409556081895
 20
-214.6570145695932
 10
310.0273128881895
 20
-214.9780604575932
 10
310.0273128881895
 20
-215.0854990735932
 10
310.0273128881895
 20
-215.1916677295932
 10
309.9409556081895
 20
-215.5124596255932
 10
309.7047430481896
 20
-215.8629685855932
 10
309.3542340881895
 20
-216.0984191695932
 10
309.0342041681895
 20
-216.1852844335932
 10
308.9275275281896
 20
-216.1852844335932
  0
LWPOLYLINE
  5
5C3
330
6F
100
AcDbEntity
  8
0
 62
     1
100
AcDbPolyline
 90
       25
 70
     1
 43
0.00105830084664
 10
244.4287990481896
 20
-156.9380945455932
 10
244.3211064401896
 20
-156.9380945455932
 10
244.0003145441896
 20
-156.8514832735932
 10
243.6503135681896
 20
-156.6142547455932
 10
243.4146089921896
 20
-156.2642537695932
 10
243.3287596961895
 20
-155.9434618735932
 10
243.3287596961895
 20
-155.8372932175932
 10
243.3287596961895
 20
-155.7298546015932
 10
243.4146089921896
 20
-155.4085547215932
 10
243.6503135681896
 20
-155.0585537455932
 10
244.0003145441896
 20
-154.8228491695932
 10
244.3211064401896
 20
-154.7375078575932
 10
244.4287990481896
 20
-154.7375078575932
 10
244.5347137121895
 20
-154.7375078575932
 10
244.8560135921896
 20
-154.8228491695932
 10
245.2060145681896
 20
-155.0585537455932
 10
245.4429891041896
 20
-155.4085547215932
 10
245.5298543681896
 20
-155.7298546015932
 10
245.5298543681896
 20
-155.8372932175932
 10
245.5298543681896
 20
-155.9434618735932
 10
245.4429891041896
 20
-156.2642537695932
 10
245.2060145681896
 20
-156.6142547455932
 10
244.8560135921896
 20
-156.8514832735932
 10
244.5347137121895
 20
-156.9380945455932
 10
244.4287990481896
 20
-156.9380945455932
  0
LWPOLYLINE
  5
5DE
330
6F
100
AcDbEntity
  8
0
 62
     1
100
AcDbPolyline
 90
       25
 70
     1
 43
0.00105830084664
 10
206.4305798801896
 20
-174.9362216575932
 10
206.3228872721896
 20
-174.9362216575932
 10
206.0018413841896
 20
-174.8496103855932
 10
205.6520944001896
 20
-174.6139058095932
 10
205.4163898241895
 20
-174.2639048335932
 10
205.3310485121896
 20
-173.9428589455932
 10
205.3310485121896
 20
-173.8366902895932
 10
205.3310485121896
 20
-173.7292516735932
 10
205.4163898241895
 20
-173.4082057855932
 10
205.6520944001896
 20
-173.0582048095932
 10
206.0018413841896
 20
-172.8225002335932
 10
206.3228872721896
 20
-172.7371589215932
 10
206.4305798801896
 20
-172.7371589215932
 10
206.5367485361896
 20
-172.7371589215932
 10
206.8577944241896
 20
-172.8225002335932
 10
207.2077954001896
 20
-173.0582048095932
 10
207.4432459841896
 20
-173.4082057855932
 10
207.5301112481896
 20
-173.7292516735932
 10
207.5301112481896
 20
-173.8366902895932
 10
207.5301112481896
 20
-173.9428589455932
 10
207.4432459841896
 20
-174.2639048335932
 10
207.2077954001896
 20
-174.6139058095932
 10
206.8577944241896
 20
-174.8496103855932
 10
206.5367485361896
 20
-174.9362216575932
 10
206.4305798801896
 20
-174.9362216575932
  0
LWPOLYLINE
  5
5F9
330
6F
100
AcDbEntity
  8
0
 62
     1
100
AcDbPolyline
 90
       25
 70
     1
 43
0.00105830084664
 10
146.9329538801895
 20
-216.1852844335932
 10
146.8252612721895
 20
-216.1852844335932
 10
146.5042153841896
 20
-216.0984191695932
 10
146.1544684001896
 20
-215.8629685855932
 10
145.9172398721896
 20
-215.5124596255932
 10
145.8318985601896
 20
-215.1916677295932
 10
145.8318985601896
 20
-215.0854990735932
 10
145.8318985601896
 20
-214.9780604575932
 10
145.9172398721896
 20
-214.6570145695932
 10
146.1544684001896
 20
-214.3067596015932
 10
146.5042153841896
 20
-214.0710550255932
 10
146.8252612721895
 20
-213.9857137135932
 10
146.9329538801895
 20
-213.9857137135932
 10
147.0388685441896
 20
-213.9857137135932
 10
147.3601684241896
 20
-214.0710550255932
 10
147.7101694001896
 20
-214.3067596015932
 10
147.9456199841896
 20
-214.6570145695932
 10
148.0324852481895
 20
-214.9780604575932
 10
148.0324852481895
 20
-215.0854990735932
 10
148.0324852481895
 20
-215.1916677295932
 10
147.9456199841896
 20
-215.5124596255932
 10
147.7101694001896
 20
-215.8629685855932
 10
147.3601684241896
 20
-216.0984191695932
 10
147.0388685441896
 20
-216.1852844335932
 10
146.9329538801895
 20
-216.1852844335932
  0
LWPOLYLINE
  5
614
330
6F
100
AcDbEntity
  8
0
 62
     1
100
AcDbPolyline
 90
       25
 70
     1
 43
0.00105830084664
 10
137.9332553441896
 20
-142.1384886895932
 10
137.8255627361896
 20
-142.1384886895932
 10
137.5045168481896
 20
-142.0518774175932
 10
137.1545158721895
 20
-141.8146488895932
 10
136.9175413361896
 20
-141.4646479135932
 10
136.8322000241896
 20
-141.1436020255932
 10
136.8322000241896
 20
-141.0374333695932
 10
136.8322000241896
 20
-140.9302487455932
 10
136.9175413361896
 20
-140.6089488655932
 10
137.1545158721895
 20
-140.2604718415932
 10
137.5045168481896
 20
-140.0232433135932
 10
137.8255627361896
 20
-139.9379020015932
 10
137.9332553441896
 20
-139.9379020015932
 10
138.0394240001896
 20
-139.9379020015932
 10
138.3602158961895
 20
-140.0232433135932
 10
138.7102168721895
 20
-140.2604718415932
 10
138.9459214481896
 20
-140.6089488655932
 10
139.0327867121895
 20
-140.9302487455932
 10
139.0327867121895
 20
-141.0374333695932
 10
139.0327867121895
 20
-141.1436020255932
 10
138.9459214481896
 20
-141.4646479135932
 10
138.7102168721895
 20
-141.8146488895932
 10
138.3602158961895
 20
-142.0518774175932
 10
138.0394240001896
 20
-142.1384886895932
 10
137.9332553441896
 20
-142.1384886895932
  0
LWPOLYLINE
  5
62F
330
6F
100
AcDbEntity
  8
0
 62
     1
100
AcDbPolyline
 90
       25
 70
     1
 43
0.00105830084664
 10
276.3276543281895
 20
-115.6895397535932
 10
276.2209776881896
 20
-115.6895397535932
 10
275.8984078481895
 20
-115.6026744895932
 10
275.5504388081895
 20
-115.3656999535932
 10
275.3142262481895
 20
-115.0156989775932
 10
275.2278689681896
 20
-114.6943990975932
 10
275.2278689681896
 20
-114.5884844335932
 10
275.2278689681896
 20
-114.4807918255932
 10
275.3142262481895
 20
-114.1599999295932
 10
275.5504388081895
 20
-113.8099989535932
 10
275.8984078481895
 20
-113.5742943775932
 10
276.2209776881896
 20
-113.4886990735932
 10
276.3276543281895
 20
-113.4886990735932
 10
276.4343309681895
 20
-113.4886990735932
 10
276.7543608881896
 20
-113.5742943775932
 10
277.1048698481896
 20
-113.8099989535932
 10
277.3410824081896
 20
-114.1599999295932
 10
277.4274396881896
 20
-114.4807918255932
 10
277.4274396881896
 20
-114.5884844335932
 10
277.4274396881896
 20
-114.6943990975932
 10
277.3410824081896
 20
-115.0156989775932
 10
277.1048698481896
 20
-115.3656999535932
 10
276.7543608881896
 20
-115.6026744895932
 10
276.4343309681895
 20
-115.6895397535932
 10
276.3276543281895
 20
-115.6895397535932
  0
LWPOLYLINE
  5
64A
330
6F
100
AcDbEntity
  8
0
 62
     1
100
AcDbPolyline
 90
       51
 70
     1
 43
0.00105830084664
 10
309.9282560081895
 20
-112.3396392655932
 10
275.1796104881896
 20
-112.3396392655932
 10
274.9459378481895
 20
-112.3396392655932
 10
274.2550796081896
 20
-112.6550973295932
 10
273.7623351281895
 20
-113.3055708415932
 10
273.7216964081896
 20
-113.4724435855932
 10
273.3407084081895
 20
-114.9702344095932
 10
273.3000696881895
 20
-115.1327892895932
 10
273.3280088081896
 20
-115.6618546255932
 10
273.6099399281895
 20
-116.2600057855932
 10
274.1204638481895
 20
-116.6785846015932
 10
274.6233680081895
 20
-116.8388535535932
 10
274.7935426481896
 20
-116.8388535535932
 10
306.4282462481896
 20
-116.8388535535932
 10
306.4282462481896
 20
-136.3385813695932
 10
205.2797421281896
 20
-136.3385813695932
 10
205.2797421281896
 20
-139.7382642895932
 10
198.2809925681896
 20
-139.7382642895932
 10
198.2809925681896
 20
-136.3385813695932
 10
135.9833587601895
 20
-136.3385813695932
 10
135.8108981921895
 20
-136.3385813695932
 10
135.2955484241896
 20
-136.5026602015932
 10
134.7829925681895
 20
-136.9380024895932
 10
134.5102051601895
 20
-137.5526631295932
 10
134.4977595521895
 20
-138.0929041135932
 10
134.5457640401896
 20
-138.2579989135932
 10
147.8450391521896
 20
-183.5417246095932
 10
147.8590087121895
 20
-183.5899830895932
 10
147.9016793681896
 20
-184.0903473295932
 10
147.8960915441895
 20
-184.1413997215932
 10
144.1326920801895
 20
-215.6615529295932
 10
144.1131346961896
 20
-215.8159800655932
 10
144.1933961681895
 20
-216.2983108735932
 10
144.4976785841896
 20
-216.8316940735932
 10
144.9927089921895
 20
-217.1994744895932
 10
145.4625941921896
 20
-217.3356142015932
 10
145.6195612481895
 20
-217.3356142015932
 10
309.9282560081895
 20
-217.3356142015932
 10
310.0730314481896
 20
-217.3356142015932
 10
310.5124376081895
 20
-217.2172539295932
 10
310.9874026481895
 20
-216.8962080415932
 10
311.3074325681895
 20
-216.4194650575932
 10
311.4268088081896
 20
-215.9823448255932
 10
311.4268088081896
 20
-215.8378233775932
 10
311.4268088081896
 20
-113.8361601295932
 10
311.4268088081896
 20
-113.6901147295932
 10
311.3074325681895
 20
-113.2529944975932
 10
310.9874026481895
 20
-112.7777754655932
 10
310.5124376081895
 20
-112.4567295775932
 10
310.0730314481896
 20
-112.3396392655932
 10
309.9282560081895
 20
-112.3396392655932
  0
LWPOLYLINE
  5
67F
330
6F
100
AcDbEntity
  8
0
 62
     1
100
AcDbPolyline
 90
       25
 70
     1
 43
0.00105830084664
 10
136.8060388481896
 20
-92.19883564159321
 10
136.6983462401895
 20
-92.19883564159321
 10
136.3773003521895
 20
-92.11197037759323
 10
136.0275533681896
 20
-91.8749958415932
 10
135.7918487921895
 20
-91.52499486559319
 10
135.7059994961895
 20
-91.2039489775932
 10
135.7059994961895
 20
-91.0977803215932
 10
135.7059994961895
 20
-90.99008771359322
 10
135.7918487921895
 20
-90.66929581759323
 10
136.0275533681896
 20
-90.3192948415932
 10
136.3773003521895
 20
-90.08359026559318
 10
136.6983462401895
 20
-89.99824895359322
 10
136.8060388481896
 20
-89.99824895359322
 10
136.9119535121895
 20
-89.99824895359322
 10
137.2332533921896
 20
-90.08359026559318
 10
137.5832543681896
 20
-90.3192948415932
 10
137.8187049521895
 20
-90.66929581759323
 10
137.9055702161895
 20
-90.99008771359322
 10
137.9055702161895
 20
-91.0977803215932
 10
137.9055702161895
 20
-91.2039489775932
 10
137.8187049521895
 20
-91.52499486559319
 10
137.5832543681896
 20
-91.8749958415932
 10
137.2332533921896
 20
-92.11197037759323
 10
136.9119535121895
 20
-92.19883564159321
 10
136.8060388481896
 20
-92.19883564159321
  0
LWPOLYLINE
  5
69A
330
6F
100
AcDbEntity
  8
0
 62
     1
100
AcDbPolyline
 90
        5
 70
     1
 43
0.00105830084664
 10
135.3067240721895
 20
-66.8494180735932
 10
121.3061770481896
 20
-66.8494180735932
 10
121.3061770481896
 20
-52.8486170575932
 10
135.3067240721895
 20
-52.8486170575932
 10
135.3067240721895
 20
-66.8494180735932
  0
LWPOLYLINE
  5
6A1
330
6F
100
AcDbEntity
  8
0
 62
     1
100
AcDbPolyline
 90
        5
 70
     1
 43
0.00105830084664
 10
131.8298275841896
 20
-85.84903564159318
 10
101.0315196401895
 20
-85.84903564159318
 10
101.0315196401895
 20
-71.84823462559319
 10
131.8298275841896
 20
-71.84823462559319
 10
131.8298275841896
 20
-85.84903564159318
  0
LWPOLYLINE
  5
6A8
330
6F
100
AcDbEntity
  8
0
 62
     1
100
AcDbPolyline
 90
        5
 70
     1
 43
0.00105830084664
 10
97.30698095218956
 20
-66.8494180735932
 10
83.30795788018958
 20
-66.8494180735932
 10
83.30795788018958
 20
-52.8486170575932
 10
97.30698095218956
 20
-52.8486170575932
 10
97.30698095218956
 20
-66.8494180735932
  0
LWPOLYLINE
  5
6AF
330
6F
100
AcDbEntity
  8
0
 62
     1
100
AcDbPolyline
 90
        5
 70
     1
 43
0.00105830084664
 10
90.18301333618957
 20
-85.84903564159318
 10
76.18246631218958
 20
-85.84903564159318
 10
76.18246631218958
 20
-71.84823462559319
 10
90.18301333618957
 20
-71.84823462559319
 10
90.18301333618957
 20
-85.84903564159318
  0
LWPOLYLINE
  5
6B6
330
6F
100
AcDbEntity
  8
0
 62
     1
100
AcDbPolyline
 90
        5
 70
     1
 43
0.00105830084664
 10
66.43298339218958
 20
-85.84903564159318
 10
52.43421431218958
 20
-85.84903564159318
 10
52.43421431218958
 20
-71.84823462559319
 10
66.43298339218958
 20
-71.84823462559319
 10
66.43298339218958
 20
-85.84903564159318
  0
LWPOLYLINE
  5
6BD
330
6F
100
AcDbEntity
  8
0
 62
     1
100
AcDbPolyline
 90
        5
 70
     1
 43
0.00105830084664
 10
45.30872274418958
 20
-52.8486170575932
 10
59.30876178418958
 20
-52.8486170575932
 10
59.30876178418958
 20
-66.8494180735932
 10
45.30872274418958
 20
-66.8494180735932
 10
45.30872274418958
 20
-52.8486170575932
  0
LWPOLYLINE
  5
6C4
330
6F
100
AcDbEntity
  8
0
 62
     1
100
AcDbPolyline
 90
        5
 70
     1
 43
0.00105830084664
 10
42.68320744018956
 20
-85.84903564159318
 10
28.68418436818958
 20
-85.84903564159318
 10
28.68418436818958
 20
-71.84823462559319
 10
42.68320744018956
 20
-71.84823462559319
 10
42.68320744018956
 20
-85.84903564159318
  0
LWPOLYLINE
  5
6CB
330
6F
100
AcDbEntity
  8
0
 62
     1
100
AcDbPolyline
 90
        5
 70
     1
 43
0.00105830084664
 10
21.30927265618958
 20
-85.84903564159318
 10
7.310224184989575
 20
-85.84903564159318
 10
7.310224184989575
 20
-71.84823462559319
 10
21.30927265618958
 20
-71.84823462559319
 10
21.30927265618958
 20
-85.84903564159318
  0
LWPOLYLINE
  5
6D2
330
6F
100
AcDbEntity
  8
0
 62
     1
100
AcDbPolyline
 90
       25
 70
     1
 43
0.00105830084664
 10
2.310848850589574
 20
8.298178998406797
 10
2.203359436189575
 20
8.298178998406797
 10
1.882288148989575
 20
8.384536278406756
 10
1.532287172989575
 20
8.620748838406825
 10
1.296658794589575
 20
8.971257798406782
 10
1.211215885789575
 20
9.291287718406806
 10
1.211215885789575
 20
9.397964358406795
 10
1.211215885789575
 20
9.504640998406785
 10
1.296658794589575
 20
9.827210838406813
 10
1.532287172989575
 20
10.17771979840677
 10
1.882288148989575
 20
10.41393235840678
 10
2.203359436189575
 20
10.5002896384068
 10
2.310848850589574
 20
10.5002896384068
 10
2.416966708189575
 20
10.5002896384068
 10
2.738012596189576
 20
10.41393235840678
 10
3.088038971389575
 20
10.17771979840677
 10
3.323692748989574
 20
9.827210838406813
 10
3.410507214589576
 20
9.504640998406785
 10
3.410507214589576
 20
9.397964358406795
 10
3.410507214589576
 20
9.291287718406806
 10
3.323692748989574
 20
8.971257798406782
 10
3.088038971389575
 20
8.620748838406825
 10
2.738012596189576
 20
8.384536278406756
 10
2.416966708189575
 20
8.298178998406797
 10
2.310848850589574
 20
8.298178998406797
  0
LWPOLYLINE
  5
6ED
330
6F
100
AcDbEntity
  8
0
 62
     1
100
AcDbPolyline
 90
       25
 70
     1
 43
0.00105830084664
 10
2.310848850589574
 20
-18.15000796159319
 10
2.203359436189575
 20
-18.15000796159319
 10
1.882288148989575
 20
-18.06365068159323
 10
1.532287172989575
 20
-17.82743812159322
 10
1.296658794589575
 20
-17.4769291615932
 10
1.211215885789575
 20
-17.15689924159318
 10
1.211215885789575
 20
-17.05022260159319
 10
1.211215885789575
 20
-16.9435459615932
 10
1.296658794589575
 20
-16.62351604159318
 10
1.532287172989575
 20
-16.27300708159322
 10
1.882288148989575
 20
-16.03679452159321
 10
2.203359436189575
 20
-15.95043724159325
 10
2.310848850589574
 20
-15.95043724159325
 10
2.416966708189575
 20
-15.95043724159325
 10
2.738012596189576
 20
-16.03679452159321
 10
3.088038971389575
 20
-16.27300708159322
 10
3.323692748989574
 20
-16.62351604159318
 10
3.410507214589576
 20
-16.9435459615932
 10
3.410507214589576
 20
-17.05022260159319
 10
3.410507214589576
 20
-17.15689924159318
 10
3.323692748989574
 20
-17.4769291615932
 10
3.088038971389575
 20
-17.82743812159322
 10
2.738012596189576
 20
-18.06365068159323
 10
2.416966708189575
 20
-18.15000796159319
 10
2.310848850589574
 20
-18.15000796159319
  0
LWPOLYLINE
  5
708
330
6F
100
AcDbEntity
  8
0
 62
     1
100
AcDbPolyline
 90
       25
 70
     1
 43
0.00105830084664
 10
2.310848850589574
 20
-92.19883564159321
 10
2.203359436189575
 20
-92.19883564159321
 10
1.882288148989575
 20
-92.11197037759323
 10
1.532287172989575
 20
-91.8749958415932
 10
1.296658794589575
 20
-91.52499486559319
 10
1.211215885789575
 20
-91.2039489775932
 10
1.211215885789575
 20
-91.0977803215932
 10
1.211215885789575
 20
-90.99008771359322
 10
1.296658794589575
 20
-90.66929581759323
 10
1.532287172989575
 20
-90.3192948415932
 10
1.882288148989575
 20
-90.08359026559318
 10
2.203359436189575
 20
-89.99824895359322
 10
2.310848850589574
 20
-89.99824895359322
 10
2.416966708189575
 20
-89.99824895359322
 10
2.738012596189576
 20
-90.08359026559318
 10
3.088038971389575
 20
-90.3192948415932
 10
3.323692748989574
 20
-90.66929581759323
 10
3.410507214589576
 20
-90.99008771359322
 10
3.410507214589576
 20
-91.0977803215932
 10
3.410507214589576
 20
-91.2039489775932
 10
3.323692748989574
 20
-91.52499486559319
 10
3.088038971389575
 20
-91.8749958415932
 10
2.738012596189576
 20
-92.11197037759323
 10
2.416966708189575
 20
-92.19883564159321
 10
2.310848850589574
 20
-92.19883564159321
  0
LWPOLYLINE
  5
723
330
6F
100
AcDbEntity
  8
0
 62
     1
100
AcDbPolyline
 90
        5
 70
     1
 43
0.00105830084664
 10
7.310224184989575
 20
4.150489638406781
 10
21.30927265618958
 20
4.150489638406781
 10
21.30927265618958
 20
-9.852089321593211
 10
7.310224184989575
 20
-9.852089321593211
 10
7.310224184989575
 20
4.150489638406781
  0
LWPOLYLINE
  5
72A
330
6F
100
AcDbEntity
  8
0
 62
     1
100
AcDbPolyline
 90
        5
 70
     1
 43
0.00105830084664
 10
14.43444579298957
 20
-33.8505234415932
 10
28.43476422418958
 20
-33.8505234415932
 10
28.43476422418958
 20
-47.84929252159318
 10
14.43444579298957
 20
-47.84929252159318
 10
14.43444579298957
 20
-33.8505234415932
  0
LWPOLYLINE
  5
731
330
6F
100
AcDbEntity
  8
0
 62
     1
100
AcDbPolyline
 90
        5
 70
     1
 43
0.00105830084664
 10
26.05917704818958
 20
-28.84967495359319
 10
12.06015397618957
 20
-28.84967495359319
 10
12.06015397618957
 20
-14.85065188159319
 10
26.05917704818958
 20
-14.85065188159319
 10
26.05917704818958
 20
-28.84967495359319
  0
LWPOLYLINE
  5
738
330
6F
100
AcDbEntity
  8
0
 62
     1
100
AcDbPolyline
 90
        5
 70
     1
 43
0.00105830084664
 10
8.409831750589574
 20
-52.8486170575932
 10
39.20935885618958
 20
-52.8486170575932
 10
39.20935885618958
 20
-66.8494180735932
 10
7.310224184989575
 20
-66.8494180735932
 10
7.310224184989575
 20
-52.8486170575932
  0
LWPOLYLINE
  5
73F
330
6F
100
AcDbEntity
  8
0
 62
     1
100
AcDbPolyline
 90
        5
 70
     1
 43
0.00105830084664
 10
26.31012114418957
 20
4.150489638406781
 10
40.30914421618958
 20
4.150489638406781
 10
40.30914421618958
 20
-9.852089321593211
 10
26.31012114418957
 20
-9.852089321593211
 10
26.31012114418957
 20
4.150489638406781
  0
LWPOLYLINE
  5
746
330
6F
100
AcDbEntity
  8
0
 62
     1
100
AcDbPolyline
 90
       25
 70
     1
 43
0.00105830084664
 10
35.10967398418958
 20
10.5002896384068
 10
35.21584264018958
 20
10.5002896384068
 10
35.53688852818958
 20
10.41393235840678
 10
35.88688950418958
 20
10.17771979840677
 10
36.12259408018958
 20
9.827210838406813
 10
36.20971333618957
 20
9.504640998406785
 10
36.20971333618957
 20
9.397964358406795
 10
36.20971333618957
 20
9.291287718406806
 10
36.12259408018958
 20
8.971257798406782
 10
35.88688950418958
 20
8.620748838406825
 10
35.53688852818958
 20
8.384536278406756
 10
35.21584264018958
 20
8.298178998406797
 10
35.10967398418958
 20
8.298178998406797
 10
35.00248936018958
 20
8.298178998406797
 10
34.68144347218958
 20
8.384536278406756
 10
34.33118850418958
 20
8.620748838406825
 10
34.09421396818958
 20
8.971257798406782
 10
34.00887265618957
 20
9.291287718406806
 10
34.00887265618957
 20
9.397964358406795
 10
34.00887265618957
 20
9.504640998406785
 10
34.09421396818958
 20
9.827210838406813
 10
34.33118850418958
 20
10.17771979840677
 10
34.68144347218958
 20
10.41393235840678
 10
35.00248936018958
 20
10.5002896384068
 10
35.10967398418958
 20
10.5002896384068
  0
LWPOLYLINE
  5
761
330
6F
100
AcDbEntity
  8
0
 62
     1
100
AcDbPolyline
 90
        5
 70
     1
 43
0.00105830084664
 10
45.30872274418958
 20
4.150489638406781
 10
59.30876178418958
 20
4.150489638406781
 10
59.30876178418958
 20
-9.852089321593211
 10
45.30872274418958
 20
-9.852089321593211
 10
45.30872274418958
 20
4.150489638406781
  0
LWPOLYLINE
  5
768
330
6F
100
AcDbEntity
  8
0
 62
     1
100
AcDbPolyline
 90
       25
 70
     1
 43
0.00105830084664
 10
50.50895495218958
 20
10.5002896384068
 10
50.61486961618959
 20
10.5002896384068
 10
50.93616949618958
 20
10.41393235840678
 10
51.28617047218957
 20
10.17771979840677
 10
51.52187504818957
 20
9.827210838406813
 10
51.60874031218958
 20
9.504640998406785
 10
51.60874031218958
 20
9.397964358406795
 10
51.60874031218958
 20
9.291287718406806
 10
51.52187504818957
 20
8.971257798406782
 10
51.28617047218957
 20
8.620748838406825
 10
50.93616949618958
 20
8.384536278406756
 10
50.61486961618959
 20
8.298178998406797
 10
50.50895495218958
 20
8.298178998406797
 10
50.40151633618958
 20
8.298178998406797
 10
50.08047044818958
 20
8.384536278406756
 10
49.73046947218958
 20
8.620748838406825
 10
49.49476489618958
 20
8.971257798406782
 10
49.40942358418958
 20
9.291287718406806
 10
49.40942358418958
 20
9.397964358406795
 10
49.40942358418958
 20
9.504640998406785
 10
49.49476489618958
 20
9.827210838406813
 10
49.73046947218958
 20
10.17771979840677
 10
50.08047044818958
 20
10.41393235840678
 10
50.40151633618958
 20
10.5002896384068
 10
50.50895495218958
 20
10.5002896384068
  0
LWPOLYLINE
  5
783
330
6F
100
AcDbEntity
  8
0
 62
     1
100
AcDbPolyline
 90
        5
 70
     1
 43
0.00105830084664
 10
64.30834031218958
 20
4.150489638406781
 10
78.30837935218958
 20
4.150489638406781
 10
78.30837935218958
 20
-9.852089321593211
 10
64.30834031218958
 20
-9.852089321593211
 10
64.30834031218958
 20
4.150489638406781
  0
LWPOLYLINE
  5
78A
330
6F
100
AcDbEntity
  8
0
 62
     1
100
AcDbPolyline
 90
        5
 70
     1
 43
0.00105830084664
 10
83.30795788018958
 20
4.150489638406781
 10
97.30698095218956
 20
4.150489638406781
 10
97.30698095218956
 20
-9.852089321593211
 10
83.30795788018958
 20
-9.852089321593211
 10
83.30795788018958
 20
4.150489638406781
  0
LWPOLYLINE
  5
791
330
6F
100
AcDbEntity
  8
0
 62
     1
100
AcDbPolyline
 90
        5
 70
     1
 43
0.00105830084664
 10
102.3078294401896
 20
4.150489638406781
 10
116.3068525121895
 20
4.150489638406781
 10
116.3068525121895
 20
-9.852089321593211
 10
102.3078294401896
 20
-9.852089321593211
 10
102.3078294401896
 20
4.150489638406781
  0
LWPOLYLINE
  5
798
330
6F
100
AcDbEntity
  8
0
 62
     1
100
AcDbPolyline
 90
       25
 70
     1
 43
0.00105830084664
 10
120.3072265121895
 20
10.5002896384068
 10
120.4133951681895
 20
10.5002896384068
 10
120.7344410561896
 20
10.41393235840678
 10
121.0841880401895
 20
10.17771979840677
 10
121.3198926161896
 20
9.827210838406813
 10
121.4067578801895
 20
9.504640998406785
 10
121.4067578801895
 20
9.397964358406795
 10
121.4067578801895
 20
9.291287718406806
 10
121.3198926161896
 20
8.971257798406782
 10
121.0841880401895
 20
8.620748838406825
 10
120.7344410561896
 20
8.384536278406756
 10
120.4133951681895
 20
8.298178998406797
 10
120.3072265121895
 20
8.298178998406797
 10
120.1995339041896
 20
8.298178998406797
 10
119.8784880161896
 20
8.384536278406756
 10
119.5284870401895
 20
8.620748838406825
 10
119.2915125041896
 20
8.971257798406782
 10
119.2061711921895
 20
9.291287718406806
 10
119.2061711921895
 20
9.397964358406795
 10
119.2061711921895
 20
9.504640998406785
 10
119.2915125041896
 20
9.827210838406813
 10
119.5284870401895
 20
10.17771979840677
 10
119.8784880161896
 20
10.41393235840678
 10
120.1995339041896
 20
10.5002896384068
 10
120.3072265121895
 20
10.5002896384068
  0
LWPOLYLINE
  5
7B3
330
6F
100
AcDbEntity
  8
0
 62
     1
100
AcDbPolyline
 90
        5
 70
     1
 43
0.00105830084664
 10
125.8066612961896
 20
-28.84967495359319
 10
111.8061142721896
 20
-28.84967495359319
 10
111.8061142721896
 20
-14.85065188159319
 10
125.8066612961896
 20
-14.85065188159319
 10
125.8066612961896
 20
-28.84967495359319
  0
LWPOLYLINE
  5
7BA
330
6F
100
AcDbEntity
  8
0
 62
     1
100
AcDbPolyline
 90
       25
 70
     1
 43
0.00105830084664
 10
128.4593537441895
 20
-15.95043724159325
 10
128.5655224001896
 20
-15.95043724159325
 10
128.8863142961896
 20
-16.03679452159321
 10
129.2368232561896
 20
-16.27300708159322
 10
129.4735438001896
 20
-16.62351604159318
 10
129.5606630561896
 20
-16.9435459615932
 10
129.5606630561896
 20
-17.05022260159319
 10
129.5606630561896
 20
-17.15689924159318
 10
129.4735438001896
 20
-17.4769291615932
 10
129.2368232561896
 20
-17.82743812159322
 10
128.8863142961896
 20
-18.06365068159323
 10
128.5655224001896
 20
-18.15000796159319
 10
128.4593537441895
 20
-18.15000796159319
 10
128.3519151281896
 20
-18.15000796159319
 10
128.0308692401896
 20
-18.06365068159323
 10
127.6806142721896
 20
-17.82743812159322
 10
127.4449096961896
 20
-17.4769291615932
 10
127.3595683841896
 20
-17.15689924159318
 10
127.3595683841896
 20
-17.05022260159319
 10
127.3595683841896
 20
-16.9435459615932
 10
127.4449096961896
 20
-16.62351604159318
 10
127.6806142721896
 20
-16.27300708159322
 10
128.0308692401896
 20
-16.03679452159321
 10
128.3519151281896
 20
-15.95043724159325
 10
128.4593537441895
 20
-15.95043724159325
  0
LWPOLYLINE
  5
7D5
330
6F
100
AcDbEntity
  8
0
 62
     1
100
AcDbPolyline
 90
        5
 70
     1
 43
0.00105830084664
 10
78.55779949618957
 20
-33.8505234415932
 10
92.55707656018959
 20
-33.8505234415932
 10
92.55707656018959
 20
-47.84929252159318
 10
78.55779949618957
 20
-47.84929252159318
 10
78.55779949618957
 20
-33.8505234415932
  0
LWPOLYLINE
  5
7DC
330
6F
100
AcDbEntity
  8
0
 62
     1
100
AcDbPolyline
 90
        5
 70
     1
 43
0.00105830084664
 10
87.80717216818958
 20
-28.84967495359319
 10
73.80814909618958
 20
-28.84967495359319
 10
73.80814909618958
 20
-14.85065188159319
 10
87.80717216818958
 20
-14.85065188159319
 10
87.80717216818958
 20
-28.84967495359319
  0
LWPOLYLINE
  5
7E3
330
6F
100
AcDbEntity
  8
0
 62
     1
100
AcDbPolyline
 90
        5
 70
     1
 43
0.00105830084664
 10
35.80865996818957
 20
-14.85065188159319
 10
49.80895300018957
 20
-14.85065188159319
 10
49.80895300018957
 20
-28.84967495359319
 10
35.80865996818957
 20
-28.84967495359319
 10
35.80865996818957
 20
-14.85065188159319
  0
LWPOLYLINE
  5
7EA
330
6F
100
AcDbEntity
  8
0
 62
     1
100
AcDbPolyline
 90
        5
 70
     1
 43
0.00105830084664
 10
40.56008831218957
 20
-33.8505234415932
 10
54.55885739218959
 20
-33.8505234415932
 10
54.55885739218959
 20
-47.84929252159318
 10
40.56008831218957
 20
-47.84929252159318
 10
40.56008831218957
 20
-33.8505234415932
  0
LWPOLYLINE
  5
7F1
330
6F
100
AcDbEntity
  8
0
 62
     1
100
AcDbPolyline
 90
       25
 70
     1
 43
0.00105830084664
 10
57.90875788018958
 20
-31.85109841759322
 10
57.90875788018958
 20
-31.95675908959319
 10
57.82189261618959
 20
-32.27805896959316
 10
57.58618804018958
 20
-32.62805994559318
 10
57.23644105618959
 20
-32.8637645215932
 10
56.91539516818958
 20
-32.95062978559321
 10
56.80922651218958
 20
-32.95062978559321
 10
56.70153390418958
 20
-32.95062978559321
 10
56.38048801618958
 20
-32.8637645215932
 10
56.03048704018957
 20
-32.62805994559318
 10
55.79351250418957
 20
-32.27805896959316
 10
55.70817119218958
 20
-31.95675908959319
 10
55.70817119218958
 20
-31.85109841759322
 10
55.70817119218958
 20
-31.74340580959319
 10
55.79351250418957
 20
-31.42235992159323
 10
56.03048704018957
 20
-31.07235894559321
 10
56.38048801618958
 20
-30.83665436959319
 10
56.70153390418958
 20
-30.75105906559318
 10
56.80922651218958
 20
-30.75105906559318
 10
56.91539516818958
 20
-30.75105906559318
 10
57.23644105618959
 20
-30.83665436959319
 10
57.58618804018958
 20
-31.07235894559321
 10
57.82189261618959
 20
-31.42235992159323
 10
57.90875788018958
 20
-31.74340580959319
 10
57.90875788018958
 20
-31.85109841759322
  0
LWPOLYLINE
  5
80C
330
6F
100
AcDbEntity
  8
0
 62
     1
100
AcDbPolyline
 90
        5
 70
     1
 43
0.00105830084664
 10
54.80827753618958
 20
-14.85065188159319
 10
68.80882456018958
 20
-14.85065188159319
 10
68.80882456018958
 20
-28.84967495359319
 10
54.80827753618958
 20
-28.84967495359319
 10
54.80827753618958
 20
-14.85065188159319
  0
LWPOLYLINE
  5
813
330
6F
100
AcDbEntity
  8
0
 62
     1
100
AcDbPolyline
 90
        5
 70
     1
 43
0.00105830084664
 10
59.55818192818958
 20
-33.8505234415932
 10
73.55898294418958
 20
-33.8505234415932
 10
73.55898294418958
 20
-47.84929252159318
 10
59.55818192818958
 20
-47.84929252159318
 10
59.55818192818958
 20
-33.8505234415932
  0
LWPOLYLINE
  5
81A
330
6F
100
AcDbEntity
  8
0
 62
     1
100
AcDbPolyline
 90
        5
 70
     1
 43
0.00105830084664
 10
64.30834031218958
 20
-52.8486170575932
 10
78.30710939218959
 20
-52.8486170575932
 10
78.30710939218959
 20
-66.8494180735932
 10
64.30834031218958
 20
-66.8494180735932
 10
64.30834031218958
 20
-52.8486170575932
  0
LWPOLYLINE
  5
821
330
6F
100
AcDbEntity
  8
0
 62
     1
100
AcDbPolyline
 90
       25
 70
     1
 43
0.00105830084664
 10
95.90697704818959
 20
-49.8502414975932
 10
95.90697704818959
 20
-49.95641015359322
 10
95.82011178418957
 20
-50.27745604159321
 10
95.58466120018957
 20
-50.62720302559319
 10
95.23466022418958
 20
-50.86290760159321
 10
94.91361433618958
 20
-50.94977286559322
 10
94.80744568018957
 20
-50.94977286559322
 10
94.69975307218957
 20
-50.94977286559322
 10
94.3787071841896
 20
-50.86290760159321
 10
94.02896020018957
 20
-50.62720302559319
 10
93.79325562418959
 20
-50.27745604159321
 10
93.70791431218957
 20
-49.95641015359322
 10
93.70791431218957
 20
-49.8502414975932
 10
93.70791431218957
 20
-49.74254888959319
 10
93.79325562418959
 20
-49.42150300159323
 10
94.02896020018957
 20
-49.07150202559321
 10
94.3787071841896
 20
-48.8345274895932
 10
94.69975307218957
 20
-48.74918617759323
 10
94.80744568018957
 20
-48.74918617759323
 10
94.91361433618958
 20
-48.74918617759323
 10
95.23466022418958
 20
-48.8345274895932
 10
95.58466120018957
 20
-49.07150202559321
 10
95.82011178418957
 20
-49.42150300159323
 10
95.90697704818959
 20
-49.74254888959319
 10
95.90697704818959
 20
-49.8502414975932
  0
LWPOLYLINE
  5
83C
330
6F
100
AcDbEntity
  8
0
 62
     1
100
AcDbPolyline
 90
        5
 70
     1
 43
0.00105830084664
 10
92.80802065618958
 20
-14.85065188159319
 10
106.8070437281896
 20
-14.85065188159319
 10
106.8070437281896
 20
-28.84967495359319
 10
92.80802065618958
 20
-28.84967495359319
 10
92.80802065618958
 20
-14.85065188159319
  0
LWPOLYLINE
  5
843
330
6F
100
AcDbEntity
  8
0
 62
     1
100
AcDbPolyline
 90
        5
 70
     1
 43
0.00105830084664
 10
97.55640109618958
 20
-33.8505234415932
 10
111.5566941281896
 20
-33.8505234415932
 10
111.5566941281896
 20
-47.84929252159318
 10
97.55640109618958
 20
-47.84929252159318
 10
97.55640109618958
 20
-33.8505234415932
  0
LWPOLYLINE
  5
84A
330
6F
100
AcDbEntity
  8
0
 62
     1
100
AcDbPolyline
 90
        5
 70
     1
 43
0.00105830084664
 10
102.3078294401896
 20
-52.8486170575932
 10
116.3068525121895
 20
-52.8486170575932
 10
116.3068525121895
 20
-66.8494180735932
 10
102.3078294401896
 20
-66.8494180735932
 10
102.3078294401896
 20
-52.8486170575932
  0
LWPOLYLINE
  5
851
330
6F
100
AcDbEntity
  8
0
 62
     1
100
AcDbPolyline
 90
        5
 70
     1
 43
0.00105830084664
 10
130.5568196801896
 20
-47.84929252159318
 10
116.5562726561896
 20
-47.84929252159318
 10
116.5562726561896
 20
-33.8505234415932
 10
130.5568196801896
 20
-33.8505234415932
 10
130.5568196801896
 20
-47.84929252159318
  0
LWPOLYLINE
  5
858
330
6F
100
AcDbEntity
  8
0
 62
     1
100
AcDbPolyline
 90
       31
 70
     1
 43
0.00105830084664
 10
143.2190828561896
 20
-59.55400585759324
 10
122.6223635921895
 20
10.57140739840679
 10
122.5753750721896
 20
10.7314223584068
 10
122.0818686161896
 20
11.35116283840682
 10
121.4080278401895
 20
11.64833347840681
 10
121.1847688721896
 20
11.64833347840681
 10
1.309028204989575
 20
11.64833347840681
 10
1.162982804989575
 20
11.64833347840681
 10
0.7247704073895754
 20
11.5314971584068
 10
0.2480020241895753
 20
11.21146723840678
 10
-0.0730819626104249
 20
10.73396227840681
 10
-0.1902129133304249
 20
10.29709603840678
 10
-0.1902129133304249
 20
10.14978067840678
 10
-0.1902129133304249
 20
-91.85010462559318
 10
-0.1902129133304249
 20
-91.9948800655932
 10
-0.0730819626104249
 20
-92.43149231359323
 10
0.2480020241895753
 20
-92.9084892895932
 10
0.7247704073895754
 20
-93.22953517759319
 10
1.162982804989575
 20
-93.34814944159319
 10
1.309028204989575
 20
-93.34814944159319
 10
137.9759260001896
 20
-93.34814944159319
 10
138.1095257921896
 20
-93.34814944159319
 10
138.5143890401896
 20
-93.2475686095932
 10
138.9692887121896
 20
-92.96893938559321
 10
139.2987163361896
 20
-92.55163052959318
 10
139.4475556481896
 20
-92.16149881759321
 10
139.4640651281896
 20
-92.0281530175932
 10
143.2686112961896
 20
-60.15495092959316
 10
143.2744531121896
 20
-60.10364454559322
 10
143.2327984241896
 20
-59.60251832959318
 10
143.2190828561896
 20
-59.55400585759324
  0
LWPOLYLINE
  5
879
330
6F
100
AcDbEntity
  8
0
 62
     1
100
AcDbPolyline
 90
       25
 70
     1
 43
0.00105830084664
 10
308.5744786481896
 20
8.298178998406797
 10
308.4678020081895
 20
8.298178998406797
 10
308.1452321681896
 20
8.384536278406756
 10
307.7947232081896
 20
8.620748838406825
 10
307.5610505681896
 20
8.971257798406782
 10
307.4746932881895
 20
9.291287718406806
 10
307.4746932881895
 20
9.397964358406795
 10
307.4746932881895
 20
9.504640998406785
 10
307.5610505681896
 20
9.827210838406813
 10
307.7947232081896
 20
10.17771979840677
 10
308.1452321681896
 20
10.41139243840678
 10
308.4678020081895
 20
10.49774971840679
 10
308.5744786481896
 20
10.49774971840679
 10
308.6811552881896
 20
10.49774971840679
 10
309.0011852081896
 20
10.41139243840678
 10
309.3516941681895
 20
10.17771979840677
 10
309.5879067281896
 20
9.827210838406813
 10
309.6742640081895
 20
9.504640998406785
 10
309.6742640081895
 20
9.397964358406795
 10
309.6742640081895
 20
9.291287718406806
 10
309.5879067281896
 20
8.971257798406782
 10
309.3516941681895
 20
8.620748838406825
 10
309.0011852081896
 20
8.384536278406756
 10
308.6811552881896
 20
8.298178998406797
 10
308.5744786481896
 20
8.298178998406797
  0
LWPOLYLINE
  5
894
330
6F
100
AcDbEntity
  8
0
 62
     1
100
AcDbPolyline
 90
       25
 70
     1
 43
0.00105830084664
 10
308.5744786481896
 20
-18.15000796159319
 10
308.4678020081895
 20
-18.15000796159319
 10
308.1452321681896
 20
-18.06365068159323
 10
307.7947232081896
 20
-17.82743812159322
 10
307.5610505681896
 20
-17.4769291615932
 10
307.4746932881895
 20
-17.15689924159318
 10
307.4746932881895
 20
-17.05022260159319
 10
307.4746932881895
 20
-16.9435459615932
 10
307.5610505681896
 20
-16.62351604159318
 10
307.7947232081896
 20
-16.27300708159322
 10
308.1452321681896
 20
-16.03679452159321
 10
308.4678020081895
 20
-15.95043724159325
 10
308.5744786481896
 20
-15.95043724159325
 10
308.6811552881896
 20
-15.95043724159325
 10
309.0011852081896
 20
-16.03679452159321
 10
309.3516941681895
 20
-16.27300708159322
 10
309.5879067281896
 20
-16.62351604159318
 10
309.6742640081895
 20
-16.9435459615932
 10
309.6742640081895
 20
-17.05022260159319
 10
309.6742640081895
 20
-17.15689924159318
 10
309.5879067281896
 20
-17.4769291615932
 10
309.3516941681895
 20
-17.82743812159322
 10
309.0011852081896
 20
-18.06365068159323
 10
308.6811552881896
 20
-18.15000796159319
 10
308.5744786481896
 20
-18.15000796159319
  0
LWPOLYLINE
  5
8AF
330
6F
100
AcDbEntity
  8
0
 62
     1
100
AcDbPolyline
 90
       25
 70
     1
 43
0.00105830084664
 10
308.5744786481896
 20
-92.19883564159321
 10
308.4678020081895
 20
-92.19883564159321
 10
308.1452321681896
 20
-92.11197037759323
 10
307.7947232081896
 20
-91.87626580159321
 10
307.5610505681896
 20
-91.52651881759323
 10
307.4746932881895
 20
-91.20496494559318
 10
307.4746932881895
 20
-91.09930427359321
 10
307.4746932881895
 20
-90.99161166559317
 10
307.5610505681896
 20
-90.66929581759323
 10
307.7947232081896
 20
-90.3192948415932
 10
308.1452321681896
 20
-90.08359026559318
 10
308.4678020081895
 20
-89.99824895359322
 10
308.5744786481896
 20
-89.99824895359322
 10
308.6811552881896
 20
-89.99824895359322
 10
309.0011852081896
 20
-90.08359026559318
 10
309.3516941681895
 20
-90.3192948415932
 10
309.5879067281896
 20
-90.66929581759323
 10
309.6742640081895
 20
-90.99161166559317
 10
309.6742640081895
 20
-91.09930427359321
 10
309.6742640081895
 20
-91.20496494559318
 10
309.5879067281896
 20
-91.52651881759323
 10
309.3516941681895
 20
-91.87626580159321
 10
309.0011852081896
 20
-92.11197037759323
 10
308.6811552881896
 20
-92.19883564159321
 10
308.5744786481896
 20
-92.19883564159321
  0
LWPOLYLINE
  5
8CA
330
6F
100
AcDbEntity
  8
0
 62
     1
100
AcDbPolyline
 90
        5
 70
     1
 43
0.00105830084664
 10
303.5759160881895
 20
-66.8494180735932
 10
289.5733371281896
 20
-66.8494180735932
 10
289.5733371281896
 20
-52.8486170575932
 10
303.5759160881895
 20
-52.8486170575932
 10
303.5759160881895
 20
-66.8494180735932
  0
LWPOLYLINE
  5
8D1
330
6F
100
AcDbEntity
  8
0
 62
     1
100
AcDbPolyline
 90
        5
 70
     1
 43
0.00105830084664
 10
303.5759160881895
 20
-85.84903564159318
 10
289.5733371281896
 20
-85.84903564159318
 10
289.5733371281896
 20
-71.84823462559319
 10
303.5759160881895
 20
-71.84823462559319
 10
303.5759160881895
 20
-85.84903564159318
  0
LWPOLYLINE
  5
8D8
330
6F
100
AcDbEntity
  8
0
 62
     1
100
AcDbPolyline
 90
        5
 70
     1
 43
0.00105830084664
 10
284.5747745681895
 20
-66.8494180735932
 10
270.5772754481895
 20
-66.8494180735932
 10
270.5772754481895
 20
-52.8486170575932
 10
284.5747745681895
 20
-52.8486170575932
 10
284.5747745681895
 20
-66.8494180735932
  0
LWPOLYLINE
  5
8DF
330
6F
100
AcDbEntity
  8
0
 62
     1
100
AcDbPolyline
 90
        5
 70
     1
 43
0.00105830084664
 10
284.5747745681895
 20
-85.84903564159318
 10
270.5772754481895
 20
-85.84903564159318
 10
270.5772754481895
 20
-71.84823462559319
 10
284.5747745681895
 20
-71.84823462559319
 10
284.5747745681895
 20
-85.84903564159318
  0
LWPOLYLINE
  5
8E6
330
6F
100
AcDbEntity
  8
0
 62
     1
100
AcDbPolyline
 90
        5
 70
     1
 43
0.00105830084664
 10
265.5761729681895
 20
-66.8494180735932
 10
251.5761339281896
 20
-66.8494180735932
 10
251.5761339281896
 20
-52.8486170575932
 10
265.5761729681895
 20
-52.8486170575932
 10
265.5761729681895
 20
-66.8494180735932
  0
LWPOLYLINE
  5
8ED
330
6F
100
AcDbEntity
  8
0
 62
     1
100
AcDbPolyline
 90
        5
 70
     1
 43
0.00105830084664
 10
265.5761729681895
 20
-85.84903564159318
 10
251.5761339281896
 20
-85.84903564159318
 10
251.5761339281896
 20
-71.84823462559319
 10
265.5761729681895
 20
-71.84823462559319
 10
265.5761729681895
 20
-85.84903564159318
  0
LWPOLYLINE
  5
8F4
330
6F
100
AcDbEntity
  8
0
 62
     1
100
AcDbPolyline
 90
        5
 70
     1
 43
0.00105830084664
 10
246.5757934241896
 20
-66.8494180735932
 10
232.5765163601896
 20
-66.8494180735932
 10
232.5765163601896
 20
-52.8486170575932
 10
246.5757934241896
 20
-52.8486170575932
 10
246.5757934241896
 20
-66.8494180735932
  0
LWPOLYLINE
  5
8FB
330
6F
100
AcDbEntity
  8
0
 62
     1
100
AcDbPolyline
 90
        5
 70
     1
 43
0.00105830084664
 10
244.2012222161896
 20
-85.84903564159318
 10
154.2044908481896
 20
-85.84903564159318
 10
154.2044908481896
 20
-71.84823462559319
 10
244.2012222161896
 20
-71.84823462559319
 10
244.2012222161896
 20
-85.84903564159318
  0
LWPOLYLINE
  5
902
330
6F
100
AcDbEntity
  8
0
 62
     1
100
AcDbPolyline
 90
        5
 70
     1
 43
0.00105830084664
 10
151.8289036721895
 20
-33.8505234415932
 10
165.8291967041896
 20
-33.8505234415932
 10
165.8291967041896
 20
-47.84929252159318
 10
151.8289036721895
 20
-47.84929252159318
 10
151.8289036721895
 20
-33.8505234415932
  0
LWPOLYLINE
  5
909
330
6F
100
AcDbEntity
  8
0
 62
     1
100
AcDbPolyline
 90
       25
 70
     1
 43
0.00105830084664
 10
146.5801589921896
 20
-92.19883564159321
 10
146.4724663841896
 20
-92.19883564159321
 10
146.1514204961896
 20
-92.11197037759323
 10
145.8016735121896
 20
-91.87626580159321
 10
145.5644449841896
 20
-91.52651881759323
 10
145.4791036721895
 20
-91.20496494559318
 10
145.4791036721895
 20
-91.09930427359321
 10
145.4791036721895
 20
-90.99161166559317
 10
145.5644449841896
 20
-90.66929581759323
 10
145.8016735121896
 20
-90.3192948415932
 10
146.1514204961896
 20
-90.08359026559318
 10
146.4724663841896
 20
-89.99824895359322
 10
146.5801589921896
 20
-89.99824895359322
 10
146.6860736561895
 20
-89.99824895359322
 10
147.0073735361896
 20
-90.08359026559318
 10
147.3573745121895
 20
-90.3192948415932
 10
147.5928250961896
 20
-90.66929581759323
 10
147.6796903601896
 20
-90.99161166559317
 10
147.6796903601896
 20
-91.09930427359321
 10
147.6796903601896
 20
-91.20496494559318
 10
147.5928250961896
 20
-91.52651881759323
 10
147.3573745121895
 20
-91.87626580159321
 10
147.0073735361896
 20
-92.11197037759323
 10
146.6860736561895
 20
-92.19883564159321
 10
146.5801589921896
 20
-92.19883564159321
  0
LWPOLYLINE
  5
924
330
6F
100
AcDbEntity
  8
0
 62
     1
100
AcDbPolyline
 90
        5
 70
     1
 43
0.00105830084664
 10
147.0789992801895
 20
-14.85065188159319
 10
161.0792923121896
 20
-14.85065188159319
 10
161.0792923121896
 20
-28.85094491359325
 10
147.0789992801895
 20
-28.85094491359325
 10
147.0789992801895
 20
-14.85065188159319
  0
LWPOLYLINE
  5
92B
330
6F
100
AcDbEntity
  8
0
 62
     1
100
AcDbPolyline
 90
       25
 70
     1
 43
0.00105830084664
 10
137.5804604561896
 20
-18.15000796159319
 10
137.4727678481896
 20
-18.15000796159319
 10
137.1517219601896
 20
-18.06365068159323
 10
136.8017209841896
 20
-17.82743812159322
 10
136.5647464481895
 20
-17.4769291615932
 10
136.4794051361896
 20
-17.15689924159318
 10
136.4794051361896
 20
-17.05022260159319
 10
136.4794051361896
 20
-16.9435459615932
 10
136.5647464481895
 20
-16.62351604159318
 10
136.8017209841896
 20
-16.27300708159322
 10
137.1517219601896
 20
-16.03679452159321
 10
137.4727678481896
 20
-15.95043724159325
 10
137.5804604561896
 20
-15.95043724159325
 10
137.6866291121895
 20
-15.95043724159325
 10
138.0076750001896
 20
-16.03679452159321
 10
138.3574219841896
 20
-16.27300708159322
 10
138.5931265601896
 20
-16.62351604159318
 10
138.6799918241896
 20
-16.9435459615932
 10
138.6799918241896
 20
-17.05022260159319
 10
138.6799918241896
 20
-17.15689924159318
 10
138.5931265601896
 20
-17.4769291615932
 10
138.3574219841896
 20
-17.82743812159322
 10
138.0076750001896
 20
-18.06365068159323
 10
137.6866291121895
 20
-18.15000796159319
 10
137.5804604561896
 20
-18.15000796159319
  0
LWPOLYLINE
  5
946
330
6F
100
AcDbEntity
  8
0
 62
     1
100
AcDbPolyline
 90
       25
 70
     1
 43
0.00105830084664
 10
130.0813466561896
 20
8.346437478406755
 10
129.9736540481896
 20
8.346437478406755
 10
129.6526081601895
 20
8.432794758406771
 10
129.3026071841896
 20
8.669007318406784
 10
129.0656326481895
 20
9.016976358406793
 10
128.9802913361896
 20
9.339546198406821
 10
128.9802913361896
 20
9.446222838406811
 10
128.9802913361896
 20
9.5528994784068
 10
129.0656326481895
 20
9.872929398406768
 10
129.3026071841896
 20
10.22343835840678
 10
129.6526081601895
 20
10.45965091840679
 10
129.9736540481896
 20
10.54600819840681
 10
130.0813466561896
 20
10.54600819840681
 10
130.1875153121896
 20
10.54600819840681
 10
130.5085612001896
 20
10.45965091840679
 10
130.8583081841895
 20
10.22343835840678
 10
131.0940127601895
 20
9.872929398406768
 10
131.1808780241896
 20
9.5528994784068
 10
131.1808780241896
 20
9.446222838406811
 10
131.1808780241896
 20
9.339546198406821
 10
131.0940127601895
 20
9.016976358406793
 10
130.8583081841895
 20
8.669007318406784
 10
130.5085612001896
 20
8.432794758406771
 10
130.1875153121896
 20
8.346437478406755
 10
130.0813466561896
 20
8.346437478406755
  0
LWPOLYLINE
  5
961
330
6F
100
AcDbEntity
  8
0
 62
     1
100
AcDbPolyline
 90
        5
 70
     1
 43
0.00105830084664
 10
137.5804604561896
 20
4.147949718406835
 10
151.5794835281895
 20
4.147949718406835
 10
151.5794835281895
 20
-9.852089321593211
 10
137.5804604561896
 20
-9.852089321593211
 10
137.5804604561896
 20
4.147949718406835
  0
LWPOLYLINE
  5
968
330
6F
100
AcDbEntity
  8
0
 62
     1
100
AcDbPolyline
 90
        5
 70
     1
 43
0.00105830084664
 10
156.5785540721895
 20
4.147949718406835
 10
170.5791010961895
 20
4.147949718406835
 10
170.5791010961895
 20
-9.852089321593211
 10
156.5785540721895
 20
-9.852089321593211
 10
156.5785540721895
 20
4.147949718406835
  0
LWPOLYLINE
  5
96F
330
6F
100
AcDbEntity
  8
0
 62
     1
100
AcDbPolyline
 90
        5
 70
     1
 43
0.00105830084664
 10
175.5786796241896
 20
4.147949718406835
 10
189.5774487041895
 20
4.147949718406835
 10
189.5774487041895
 20
-9.852089321593211
 10
175.5786796241896
 20
-9.852089321593211
 10
175.5786796241896
 20
4.147949718406835
  0
LWPOLYLINE
  5
976
330
6F
100
AcDbEntity
  8
0
 62
     1
100
AcDbPolyline
 90
        5
 70
     1
 43
0.00105830084664
 10
194.5782971921896
 20
4.147949718406835
 10
208.5775742561895
 20
4.147949718406835
 10
208.5775742561895
 20
-9.852089321593211
 10
194.5782971921896
 20
-9.852089321593211
 10
194.5782971921896
 20
4.147949718406835
  0
LWPOLYLINE
  5
97D
330
6F
100
AcDbEntity
  8
0
 62
     1
100
AcDbPolyline
 90
        5
 70
     1
 43
0.00105830084664
 10
213.5768987921895
 20
4.147949718406835
 10
227.5771918241896
 20
4.147949718406835
 10
227.5771918241896
 20
-9.852089321593211
 10
213.5768987921895
 20
-9.852089321593211
 10
213.5768987921895
 20
4.147949718406835
  0
LWPOLYLINE
  5
984
330
6F
100
AcDbEntity
  8
0
 62
     1
100
AcDbPolyline
 90
        5
 70
     1
 43
0.00105830084664
 10
232.5765163601896
 20
4.147949718406835
 10
246.5757934241896
 20
4.147949718406835
 10
246.5757934241896
 20
-9.852089321593211
 10
232.5765163601896
 20
-9.852089321593211
 10
232.5765163601896
 20
4.147949718406835
  0
LWPOLYLINE
  5
98B
330
6F
100
AcDbEntity
  8
0
 62
     1
100
AcDbPolyline
 90
        5
 70
     1
 43
0.00105830084664
 10
251.5761339281896
 20
4.147949718406835
 10
265.5761729681895
 20
4.147949718406835
 10
265.5761729681895
 20
-9.852089321593211
 10
251.5761339281896
 20
-9.852089321593211
 10
251.5761339281896
 20
4.147949718406835
  0
LWPOLYLINE
  5
992
330
6F
100
AcDbEntity
  8
0
 62
     1
100
AcDbPolyline
 90
       25
 70
     1
 43
0.00105830084664
 10
260.5750704881895
 20
10.54600819840681
 10
260.6817471281896
 20
10.54600819840681
 10
261.0043169681895
 20
10.45965091840679
 10
261.3522860081896
 20
10.22343835840678
 10
261.5910384881896
 20
9.872929398406768
 10
261.6773957681896
 20
9.5528994784068
 10
261.6773957681896
 20
9.446222838406811
 10
261.6773957681896
 20
9.339546198406821
 10
261.5910384881896
 20
9.016976358406793
 10
261.3522860081896
 20
8.669007318406784
 10
261.0043169681895
 20
8.432794758406771
 10
260.6817471281896
 20
8.346437478406755
 10
260.5750704881895
 20
8.346437478406755
 10
260.4683938481896
 20
8.346437478406755
 10
260.1483639281895
 20
8.432794758406771
 10
259.7978549681896
 20
8.669007318406784
 10
259.5616424081895
 20
9.016976358406793
 10
259.4752851281896
 20
9.339546198406821
 10
259.4752851281896
 20
9.446222838406811
 10
259.4752851281896
 20
9.5528994784068
 10
259.5616424081895
 20
9.872929398406768
 10
259.7978549681896
 20
10.22343835840678
 10
260.1483639281895
 20
10.45965091840679
 10
260.4683938481896
 20
10.54600819840681
 10
260.5750704881895
 20
10.54600819840681
  0
LWPOLYLINE
  5
9AD
330
6F
100
AcDbEntity
  8
0
 62
     1
100
AcDbPolyline
 90
        5
 70
     1
 43
0.00105830084664
 10
261.0754347281896
 20
-14.85065188159319
 10
275.0754737681896
 20
-14.85065188159319
 10
275.0754737681896
 20
-28.85094491359325
 10
261.0754347281896
 20
-28.85094491359325
 10
261.0754347281896
 20
-14.85065188159319
  0
LWPOLYLINE
  5
9B4
330
6F
100
AcDbEntity
  8
0
 62
     1
100
AcDbPolyline
 90
        5
 70
     1
 43
0.00105830084664
 10
227.8266119681896
 20
-33.8505234415932
 10
241.8271589921896
 20
-33.8505234415932
 10
241.8271589921896
 20
-47.84929252159318
 10
227.8266119681896
 20
-47.84929252159318
 10
227.8266119681896
 20
-33.8505234415932
  0
LWPOLYLINE
  5
9BB
330
6F
100
AcDbEntity
  8
0
 62
     1
100
AcDbPolyline
 90
        5
 70
     1
 43
0.00105830084664
 10
237.0772546001896
 20
-28.85094491359325
 10
223.0764535841896
 20
-28.85094491359325
 10
223.0764535841896
 20
-14.85065188159319
 10
237.0772546001896
 20
-14.85065188159319
 10
237.0772546001896
 20
-28.85094491359325
  0
LWPOLYLINE
  5
9C2
330
6F
100
AcDbEntity
  8
0
 62
     1
100
AcDbPolyline
 90
        5
 70
     1
 43
0.00105830084664
 10
208.8269944001896
 20
-33.8505234415932
 10
222.8270334401896
 20
-33.8505234415932
 10
222.8270334401896
 20
-47.84929252159318
 10
208.8269944001896
 20
-47.84929252159318
 10
208.8269944001896
 20
-33.8505234415932
  0
LWPOLYLINE
  5
9C9
330
6F
100
AcDbEntity
  8
0
 62
     1
100
AcDbPolyline
 90
       25
 70
     1
 43
0.00105830084664
 10
207.1773163601896
 20
-49.8502414975932
 10
207.1773163601896
 20
-49.95641015359322
 10
207.0904510961895
 20
-50.27745604159321
 10
206.8550005121896
 20
-50.62720302559319
 10
206.5049995361896
 20
-50.86290760159321
 10
206.1839536481896
 20
-50.94977286559322
 10
206.0777849921896
 20
-50.94977286559322
 10
205.9700923841896
 20
-50.94977286559322
 10
205.6490464961896
 20
-50.86290760159321
 10
205.2992995121896
 20
-50.62720302559319
 10
205.0635949361896
 20
-50.27745604159321
 10
204.9782536241896
 20
-49.95641015359322
 10
204.9782536241896
 20
-49.8502414975932
 10
204.9782536241896
 20
-49.74254888959319
 10
205.0635949361896
 20
-49.42150300159323
 10
205.2992995121896
 20
-49.07150202559321
 10
205.6490464961896
 20
-48.8345274895932
 10
205.9700923841896
 20
-48.74918617759323
 10
206.0777849921896
 20
-48.74918617759323
 10
206.1839536481896
 20
-48.74918617759323
 10
206.5049995361896
 20
-48.8345274895932
 10
206.8550005121896
 20
-49.07150202559321
 10
207.0904510961895
 20
-49.42150300159323
 10
207.1773163601896
 20
-49.74254888959319
 10
207.1773163601896
 20
-49.8502414975932
  0
LWPOLYLINE
  5
9E4
330
6F
100
AcDbEntity
  8
0
 62
     1
100
AcDbPolyline
 90
        5
 70
     1
 43
0.00105830084664
 10
218.0771290481896
 20
-28.85094491359325
 10
204.0783599681896
 20
-28.85094491359325
 10
204.0783599681896
 20
-14.85065188159319
 10
218.0771290481896
 20
-14.85065188159319
 10
218.0771290481896
 20
-28.85094491359325
  0
LWPOLYLINE
  5
9EB
330
6F
100
AcDbEntity
  8
0
 62
     1
100
AcDbPolyline
 90
        5
 70
     1
 43
0.00105830084664
 10
189.8283928001896
 20
-33.8505234415932
 10
203.8274158721896
 20
-33.8505234415932
 10
203.8274158721896
 20
-47.84929252159318
 10
189.8283928001896
 20
-47.84929252159318
 10
189.8283928001896
 20
-33.8505234415932
  0
LWPOLYLINE
  5
9F2
330
6F
100
AcDbEntity
  8
0
 62
     1
100
AcDbPolyline
 90
        5
 70
     1
 43
0.00105830084664
 10
199.0775114801896
 20
-28.85094491359325
 10
185.0782344161895
 20
-28.85094491359325
 10
185.0782344161895
 20
-14.85065188159319
 10
199.0775114801896
 20
-14.85065188159319
 10
199.0775114801896
 20
-28.85094491359325
  0
LWPOLYLINE
  5
9F9
330
6F
100
AcDbEntity
  8
0
 62
     1
100
AcDbPolyline
 90
        5
 70
     1
 43
0.00105830084664
 10
166.0786168481895
 20
-14.85065188159319
 10
180.0778939121896
 20
-14.85065188159319
 10
180.0778939121896
 20
-28.85094491359325
 10
166.0786168481895
 20
-28.85094491359325
 10
166.0786168481895
 20
-14.85065188159319
  0
LWPOLYLINE
  5
A00
330
6F
100
AcDbEntity
  8
0
 62
     1
100
AcDbPolyline
 90
        5
 70
     1
 43
0.00105830084664
 10
170.8285212401896
 20
-33.8505234415932
 10
184.8277983041896
 20
-33.8505234415932
 10
184.8277983041896
 20
-47.84929252159318
 10
170.8285212401896
 20
-47.84929252159318
 10
170.8285212401896
 20
-33.8505234415932
  0
LWPOLYLINE
  5
A07
330
6F
100
AcDbEntity
  8
0
 62
     1
100
AcDbPolyline
 90
        5
 70
     1
 43
0.00105830084664
 10
156.5785540721895
 20
-52.8486170575932
 10
170.5791010961895
 20
-52.8486170575932
 10
170.5791010961895
 20
-66.8494180735932
 10
156.5785540721895
 20
-66.8494180735932
 10
156.5785540721895
 20
-52.8486170575932
  0
LWPOLYLINE
  5
A0E
330
6F
100
AcDbEntity
  8
0
 62
     1
100
AcDbPolyline
 90
        5
 70
     1
 43
0.00105830084664
 10
175.5786796241896
 20
-52.8486170575932
 10
189.5774487041895
 20
-52.8486170575932
 10
189.5774487041895
 20
-66.8494180735932
 10
175.5786796241896
 20
-66.8494180735932
 10
175.5786796241896
 20
-52.8486170575932
  0
LWPOLYLINE
  5
A15
330
6F
100
AcDbEntity
  8
0
 62
     1
100
AcDbPolyline
 90
        5
 70
     1
 43
0.00105830084664
 10
194.5782971921896
 20
-52.8486170575932
 10
208.5775742561895
 20
-52.8486170575932
 10
208.5775742561895
 20
-66.8494180735932
 10
194.5782971921896
 20
-66.8494180735932
 10
194.5782971921896
 20
-52.8486170575932
  0
LWPOLYLINE
  5
A1C
330
6F
100
AcDbEntity
  8
0
 62
     1
100
AcDbPolyline
 90
        5
 70
     1
 43
0.00105830084664
 10
213.5768987921895
 20
-52.8486170575932
 10
227.5771918241896
 20
-52.8486170575932
 10
227.5771918241896
 20
-66.8494180735932
 10
213.5768987921895
 20
-66.8494180735932
 10
213.5768987921895
 20
-52.8486170575932
  0
LWPOLYLINE
  5
A23
330
6F
100
AcDbEntity
  8
0
 62
     1
100
AcDbPolyline
 90
       25
 70
     1
 43
0.00105830084664
 10
245.1770594801896
 20
-31.85109841759322
 10
245.1770594801896
 20
-31.95675908959319
 10
245.0901942161896
 20
-32.27805896959316
 10
244.8532196801896
 20
-32.62805994559318
 10
244.5032187041896
 20
-32.8637645215932
 10
244.1819188241896
 20
-32.95062978559321
 10
244.0760041601896
 20
-32.95062978559321
 10
243.9685655441896
 20
-32.95062978559321
 10
243.6475196561896
 20
-32.8637645215932
 10
243.2975186801896
 20
-32.62805994559318
 10
243.0618141041896
 20
-32.27805896959316
 10
242.9762188001896
 20
-31.95675908959319
 10
242.9762188001896
 20
-31.85109841759322
 10
242.9762188001896
 20
-31.74340580959319
 10
243.0618141041896
 20
-31.42235992159323
 10
243.2975186801896
 20
-31.07235894559321
 10
243.6475196561896
 20
-30.83538440959319
 10
243.9685655441896
 20
-30.74953511359323
 10
244.0760041601896
 20
-30.74953511359323
 10
244.1819188241896
 20
-30.74953511359323
 10
244.5032187041896
 20
-30.83538440959319
 10
244.8532196801896
 20
-31.07235894559321
 10
245.0901942161896
 20
-31.42235992159323
 10
245.1770594801896
 20
-31.74340580959319
 10
245.1770594801896
 20
-31.85109841759322
  0
LWPOLYLINE
  5
A3E
330
6F
100
AcDbEntity
  8
0
 62
     1
100
AcDbPolyline
 90
        5
 70
     1
 43
0.00105830084664
 10
242.0765791361896
 20
-14.85065188159319
 10
256.0743322481895
 20
-14.85065188159319
 10
256.0743322481895
 20
-28.85094491359325
 10
242.0765791361896
 20
-28.85094491359325
 10
242.0765791361896
 20
-14.85065188159319
  0
LWPOLYLINE
  5
A45
330
6F
100
AcDbEntity
  8
0
 62
     1
100
AcDbPolyline
 90
        5
 70
     1
 43
0.00105830084664
 10
246.8264835281896
 20
-33.8505234415932
 10
260.8265225681896
 20
-33.8505234415932
 10
260.8265225681896
 20
-47.84929252159318
 10
246.8264835281896
 20
-47.84929252159318
 10
246.8264835281896
 20
-33.8505234415932
  0
LWPOLYLINE
  5
A4C
330
6F
100
AcDbEntity
  8
0
 62
     1
100
AcDbPolyline
 90
       25
 70
     1
 43
0.00105830084664
 10
275.9746054481896
 20
10.49774971840679
 10
276.0812820881895
 20
10.49774971840679
 10
276.4013120081896
 20
10.41139243840678
 10
276.7518209681895
 20
10.17771979840677
 10
276.9880335281896
 20
9.827210838406813
 10
277.0743908081895
 20
9.504640998406785
 10
277.0743908081895
 20
9.397964358406795
 10
277.0743908081895
 20
9.291287718406806
 10
276.9880335281896
 20
8.971257798406782
 10
276.7518209681895
 20
8.620748838406825
 10
276.4013120081896
 20
8.384536278406756
 10
276.0812820881895
 20
8.298178998406797
 10
275.9746054481896
 20
8.298178998406797
 10
275.8679288081895
 20
8.298178998406797
 10
275.5478988881896
 20
8.384536278406756
 10
275.1973899281895
 20
8.620748838406825
 10
274.9611773681896
 20
8.971257798406782
 10
274.8748200881895
 20
9.291287718406806
 10
274.8748200881895
 20
9.397964358406795
 10
274.8748200881895
 20
9.504640998406785
 10
274.9611773681896
 20
9.827210838406813
 10
275.1973899281895
 20
10.17771979840677
 10
275.5478988881896
 20
10.41139243840678
 10
275.8679288081895
 20
10.49774971840679
 10
275.9746054481896
 20
10.49774971840679
  0
LWPOLYLINE
  5
A67
330
6F
100
AcDbEntity
  8
0
 62
     1
100
AcDbPolyline
 90
        5
 70
     1
 43
0.00105830084664
 10
271.6770608081895
 20
4.147949718406835
 10
302.4735908081896
 20
4.147949718406835
 10
302.4735908081896
 20
-9.852089321593211
 10
271.6770608081895
 20
-9.852089321593211
 10
271.6770608081895
 20
4.147949718406835
  0
LWPOLYLINE
  5
A6E
330
6F
100
AcDbEntity
  8
0
 62
     1
100
AcDbPolyline
 90
        5
 70
     0
 43
0.00105830084664
 10
286.8947855010101
 20
-28.85094491359325
 10
284.8236867281896
 20
-28.85094491359325
 10
284.8236867281896
 20
-14.85065188159319
 10
298.8262656881896
 20
-14.85065188159319
 10
298.8262656881896
 20
-24.23583836327707
  0
LWPOLYLINE
  5
A75
330
6F
100
AcDbEntity
  8
0
 62
     1
100
AcDbPolyline
 90
        5
 70
     0
 43
0.00105830084664
 10
300.0987656081895
 20
-41.26009836327707
 10
300.0987656081895
 20
-47.84929252159318
 10
269.2996956881895
 20
-47.84929252159318
 10
269.2996956881895
 20
-33.8505234415932
 10
286.8947855010101
 20
-33.8505234415932
  0
LWPOLYLINE
  5
A7C
330
6F
100
AcDbEntity
  8
0
 62
     1
100
AcDbPolyline
 90
       33
 70
     1
 43
0.00105830084664
 10
309.5752071281896
 20
11.64833347840681
 10
128.5805079281896
 20
11.64833347840681
 10
128.4085553441896
 20
11.64833347840681
 10
127.8944755361896
 20
11.48323867840679
 10
127.3803957281895
 20
11.04891235840677
 10
127.1073543281896
 20
10.43425171840675
 10
127.0951627121895
 20
9.893248758406798
 10
127.1434211921895
 20
9.728153958406778
 10
147.4924982561895
 20
-59.55552980959322
 10
147.5062138241896
 20
-59.6035342975932
 10
147.5488844801895
 20
-60.10262857759321
 10
147.5432966561896
 20
-60.15342697759322
 10
143.7798971921895
 20
-91.67383417759323
 10
143.7605938001896
 20
-91.8280073215932
 10
143.8406012801896
 20
-92.31033812959319
 10
144.1448836961896
 20
-92.84372132959319
 10
144.6399141041896
 20
-93.21150174559321
 10
145.1097993041896
 20
-93.34814944159319
 10
145.2667663601895
 20
-93.34814944159319
 10
309.5752071281896
 20
-93.34814944159319
 10
309.7199825681896
 20
-93.34814944159319
 10
310.1593887281895
 20
-93.22953517759319
 10
310.6343537681896
 20
-92.91001324159323
 10
310.9543836881895
 20
-92.4330162655932
 10
311.0737599281895
 20
-91.99615002559321
 10
311.0737599281895
 20
-91.85162857759321
 10
311.0737599281895
 20
10.15232059840679
 10
311.0737599281895
 20
10.29709603840678
 10
310.9543836881895
 20
10.73396227840681
 10
310.6343537681896
 20
11.21146723840678
 10
310.1593887281895
 20
11.5314971584068
 10
309.7199825681896
 20
11.64833347840681
 10
309.5752071281896
 20
11.64833347840681
  0
LINE
  5
B84
330
6F
100
AcDbEntity
  8
0
  6
Continuous
 62
   244
420
 10033950
100
AcDbLine
 10
298.8262656881896
 20
-24.23583836327708
 30
0.0
 11
301.1956861801105
 21
-24.23583836327708
 31
0.0
  0
LINE
  5
B85
330
6F
100
AcDbEntity
  8
0
  6
Continuous
 62
   244
420
 10033950
100
AcDbLine
 10
301.1956861801105
 20
-24.23583836327708
 30
0.0
 11
301.1956861801105
 21
-41.29159943320928
 31
0.0
  0
LINE
  5
B86
330
6F
100
AcDbEntity
  8
0
  6
Continuous
 62
   244
420
 10033950
100
AcDbLine
 10
301.1956861801105
 20
-41.29159943320928
 30
0.0
 11
300.0987656081895
 21
-41.26009836327707
 31
0.0
  0
LINE
  5
B87
330
6F
100
AcDbEntity
  8
0
  6
Continuous
 62
   244
420
 10033950
100
AcDbLine
 10
300.0987656081895
 20
-41.26009836327707
 30
0.0
 11
300.0987656081895
 21
-41.26009836327707
 31
0.0
  0
LINE
  5
B88
330
6F
100
AcDbEntity
  8
0
  6
Continuous
 62
   244
420
 10033950
370
   100
100
AcDbLine
 10
286.8947855010101
 20
-28.85094491359325
 30
0.0
 11
286.8947855010101
 21
-33.76083836327707
 31
0.0
  0
LINE
  5
B89
330
6F
100
AcDbEntity
  8
0
  6
Continuous
 62
   244
420
 10033950
100
AcDbLine
 10
286.8947855010101
 20
-33.76083836327707
 30
0.0
 11
286.8947855010101
 21
-33.8505234415932
 31
0.0
  0
ENDSEC
  0
SECTION
  2
OBJECTS
  0
DICTIONARY
  5
C
330
0
100
AcDbDictionary
281
     1
  3
ACAD_CIP_PREVIOUS_PRODUCT_INFO
350
AA0
  3
ACAD_COLOR
350
62
  3
ACAD_DETAILVIEWSTYLE
350
69
  3
ACAD_GROUP
350
D
  3
ACAD_LAYOUT
350
61
  3
ACAD_MATERIAL
350
10
  3
ACAD_MLEADERSTYLE
350
65
  3
ACAD_MLINESTYLE
350
5E
  3
ACAD_PLOTSETTINGS
350
60
  3
ACAD_PLOTSTYLENAME
350
E
  3
ACAD_SCALELIST
350
42
  3
ACAD_SECTIONVIEWSTYLE
350
67
  3
ACAD_TABLESTYLE
350
63
  3
ACAD_VISUALSTYLE
350
29
  3
ACDB_RECOMPOSE_DATA
350
BA2
  3
AcDbVariableDictionary
350
B96
  0
DICTIONARY
  5
B94
330
54
100
AcDbDictionary
280
     1
281
     1
  3
ADSK_XREC_LAYER_RECONCILED
360
B95
  0
XRECORD
  5
AA0
102
{ACAD_REACTORS
330
C
102
}
330
C
100
AcDbXrecord
280
     1
300
ACD
300
2021
300
ACD_F_S
  0
DICTIONARY
  5
62
102
{ACAD_REACTORS
330
C
102
}
330
C
100
AcDbDictionary
281
     1
  0
DICTIONARY
  5
69
102
{ACAD_REACTORS
330
C
102
}
330
C
100
AcDbDictionary
281
     1
  3
Imperial24
350
6A
  0
DICTIONARY
  5
D
102
{ACAD_REACTORS
330
C
102
}
330
C
100
AcDbDictionary
281
     1
  3
*A2
350
B83
  0
DICTIONARY
  5
61
102
{ACAD_REACTORS
330
C
102
}
330
C
100
AcDbDictionary
281
     1
  3
Layout1
350
6E
  3
Model
350
72
  0
DICTIONARY
  5
10
102
{ACAD_REACTORS
330
C
102
}
330
C
100
AcDbDictionary
281
     1
  3
ByBlock
350
19
  3
ByLayer
350
11
  3
Global
350
21
  0
DICTIONARY
  5
65
102
{ACAD_REACTORS
330
C
102
}
330
C
100
AcDbDictionary
281
     1
  3
Standard
350
66
  0
DICTIONARY
  5
5E
102
{ACAD_REACTORS
330
C
102
}
330
C
100
AcDbDictionary
281
     1
  3
Standard
350
5F
  0
DICTIONARY
  5
60
102
{ACAD_REACTORS
330
C
102
}
330
C
100
AcDbDictionary
281
     1
  0
ACDBDICTIONARYWDFLT
  5
E
102
{ACAD_REACTORS
330
C
102
}
330
C
100
AcDbDictionary
281
     1
  3
Normal
350
F
100
AcDbDictionaryWithDefault
340
F
  0
DICTIONARY
  5
42
102
{ACAD_REACTORS
330
C
102
}
330
C
100
AcDbDictionary
281
     1
  3
A0
350
43
  3
A1
350
44
  3
A2
350
45
  3
A3
350
46
  3
A4
350
47
  3
A5
350
48
  3
A6
350
49
  3
A7
350
4A
  3
A8
350
4B
  3
A9
350
4C
  3
B0
350
4D
  3
B1
350
4E
  3
B2
350
4F
  3
B3
350
50
  3
B4
350
51
  3
B5
350
52
  3
B6
350
53
  0
DICTIONARY
  5
67
102
{ACAD_REACTORS
330
C
102
}
330
C
100
AcDbDictionary
281
     1
  3
Imperial24
350
68
  0
DICTIONARY
  5
63
102
{ACAD_REACTORS
330
C
102
}
330
C
100
AcDbDictionary
281
     1
  3
Standard
350
64
  0
DICTIONARY
  5
29
102
{ACAD_REACTORS
330
C
102
}
330
C
100
AcDbDictionary
281
     1
  3
2dWireframe
350
2F
  3
Basic
350
2E
  3
Brighten
350
35
  3
ColorChange
350
39
  3
Conceptual
350
32
  3
Dim
350
34
  3
EdgeColorOff
350
41
  3
Facepattern
350
38
  3
Flat
350
2A
  3
FlatWithEdges
350
2B
  3
Gouraud
350
2C
  3
GouraudWithEdges
350
2D
  3
Hidden
350
31
  3
JitterOff
350
3F
  3
Linepattern
350
37
  3
OverhangOff
350
40
  3
Realistic
350
33
  3
Shaded
350
3E
  3
Shaded with edges
350
3D
  3
Shades of Gray
350
3A
  3
Sketchy
350
3B
  3
Thicken
350
36
  3
Wireframe
350
30
  3
X-Ray
350
3C
  0
XRECORD
  5
BA2
102
{ACAD_REACTORS
330
C
102
}
330
C
100
AcDbXrecord
280
     1
 90
        1
330
64
  0
DICTIONARY
  5
B96
102
{ACAD_REACTORS
330
C
102
}
330
C
100
AcDbDictionary
281
     1
  3
CANNOSCALE
350
B9C
  3
CMLEADERSTYLE
350
B98
  3
CTABLESTYLE
350
B97
  3
CVIEWDETAILSTYLE
350
B99
  3
CVIEWSECTIONSTYLE
350
B9A
  3
LAYEREVAL
350
B9E
  3
LAYERNOTIFY
350
B9F
  3
LIGHTINGUNITS
350
B9D
  3
MSLTSCALE
350
B9B
  0
XRECORD
  5
B95
102
{ACAD_REACTORS
330
B94
102
}
330
B94
100
AcDbXrecord
280
     1
290
     1
  0
ACDBDETAILVIEWSTYLE
  5
6A
102
{ACAD_REACTORS
330
69
102
}
330
69
100
AcDbModelDocViewStyle
 70
     0
  3
Imperial24
290
     0
300
Imperial24
 90
        0
100
AcDbDetailViewStyle
 70
     0
 71
     0
 90
        3
 71
     1
340
55
 62
   256
 40
0.24
340
0
 62
   256
 40
0.24
300

 40
0.36
280
     3
 71
     2
340
5C
 90
       25
 62
   256
 71
     3
340
55
 62
   256
 40
0.24
 90
        1
 40
0.75
 90
        1
300
%<\AcVar ViewType \f "%tc1">% %<\AcVar ViewDetailId>%\PSCALE %<\AcVar ViewScale \f "%sn">%
 71
     4
340
5C
 90
       25
 62
   256
340
5C
 90
       25
 62
   256
280
     0
  0
GROUP
  5
B83
102
{ACAD_REACTORS
330
D
102
}
330
D
100
AcDbGroup
300

 70
     1
 71
     1
  0
LAYOUT
  5
6E
102
{ACAD_REACTORS
330
61
102
}
330
61
100
AcDbPlotSettings
  1

  2
HP06F791 (HP ENVY 5000 series)
  4

  6

 40
0.0
 41
0.0
 42
0.0
 43
0.0
 44
0.0
 45
0.0
 46
0.0
 47
0.0
 48
0.0
 49
0.0
140
0.0
141
0.0
142
1.0
143
1.0
 70
   688
 72
     0
 73
     0
 74
     5
  7

 75
    16
147
1.0
 76
     0
 77
     2
 78
   300
148
0.0
149
0.0
100
AcDbLayout
  1
Layout1
 70
     1
 71
     1
 10
0.0
 20
0.0
 11
12.0
 21
9.0
 12
0.0
 22
0.0
 32
0.0
 14
1.000000000000000E+20
 24
1.000000000000000E+20
 34
1.000000000000000E+20
 15
-1.000000000000000E+20
 25
-1.000000000000000E+20
 35
-1.000000000000000E+20
146
0.0
 13
0.0
 23
0.0
 33
0.0
 16
1.0
 26
0.0
 36
0.0
 17
0.0
 27
1.0
 37
0.0
 76
     0
330
6B
  0
LAYOUT
  5
72
102
{ACAD_REACTORS
330
61
102
}
330
61
100
AcDbPlotSettings
  1

  2
HP06F791 (HP ENVY 5000 series)
  4

  6

 40
0.0
 41
0.0
 42
0.0
 43
0.0
 44
0.0
 45
0.0
 46
0.0
 47
0.0
 48
0.0
 49
0.0
140
0.0
141
0.0
142
1.0
143
1.0
 70
  1712
 72
     0
 73
     0
 74
     0
  7

 75
     0
147
1.0
 76
     0
 77
     2
 78
   300
148
0.0
149
0.0
100
AcDbLayout
  1
Model
 70
     1
 71
     0
 10
0.0
 20
0.0
 11
12.0
 21
9.0
 12
0.0
 22
0.0
 32
0.0
 14
0.0
 24
0.0
 34
0.0
 15
0.0
 25
0.0
 35
0.0
146
0.0
 13
0.0
 23
0.0
 33
0.0
 16
1.0
 26
0.0
 36
0.0
 17
0.0
 27
1.0
 37
0.0
 76
     0
330
6F
331
74
  0
MATERIAL
  5
19
102
{ACAD_XDICTIONARY
360
1A
102
}
102
{ACAD_REACTORS
330
10
102
}
330
10
100
AcDbMaterial
  1
ByBlock
 72
     0
 43
0.0208333333333333
 43
0.0
 43
0.0
 43
0.0
 43
0.0
 43
0.0208333333333333
 43
0.0
 43
0.0
 43
0.0
 43
0.0
 43
1.0
 43
0.0
 43
0.0
 43
0.0
 43
0.0
 43
1.0
 77
     0
 47
0.0208333333333333
 47
0.0
 47
0.0
 47
0.0
 47
0.0
 47
0.0208333333333333
 47
0.0
 47
0.0
 47
0.0
 47
0.0
 47
1.0
 47
0.0
 47
0.0
 47
0.0
 47
0.0
 47
1.0
171
     0
 49
0.0208333333333333
 49
0.0
 49
0.0
 49
0.0
 49
0.0
 49
0.0208333333333333
 49
0.0
 49
0.0
 49
0.0
 49
0.0
 49
1.0
 49
0.0
 49
0.0
 49
0.0
 49
0.0
 49
1.0
175
     0
142
0.0208333333333333
142
0.0
142
0.0
142
0.0
142
0.0
142
0.0208333333333333
142
0.0
142
0.0
142
0.0
142
0.0
142
1.0
142
0.0
142
0.0
142
0.0
142
0.0
142
1.0
179
     0
144
0.0208333333333333
144
0.0
144
0.0
144
0.0
144
0.0
144
0.0208333333333333
144
0.0
144
0.0
144
0.0
144
0.0
144
1.0
144
0.0
144
0.0
144
0.0
144
0.0
144
1.0
147
0.0208333333333333
147
0.0
147
0.0
147
0.0
147
0.0
147
0.0208333333333333
147
0.0
147
0.0
147
0.0
147
0.0
147
1.0
147
0.0
147
0.0
147
0.0
147
0.0
147
1.0
  0
MATERIAL
  5
11
102
{ACAD_XDICTIONARY
360
12
102
}
102
{ACAD_REACTORS
330
10
102
}
330
10
100
AcDbMaterial
  1
ByLayer
 72
     0
 43
0.0208333333333333
 43
0.0
 43
0.0
 43
0.0
 43
0.0
 43
0.0208333333333333
 43
0.0
 43
0.0
 43
0.0
 43
0.0
 43
1.0
 43
0.0
 43
0.0
 43
0.0
 43
0.0
 43
1.0
 77
     0
 47
0.0208333333333333
 47
0.0
 47
0.0
 47
0.0
 47
0.0
 47
0.0208333333333333
 47
0.0
 47
0.0
 47
0.0
 47
0.0
 47
1.0
 47
0.0
 47
0.0
 47
0.0
 47
0.0
 47
1.0
171
     0
 49
0.0208333333333333
 49
0.0
 49
0.0
 49
0.0
 49
0.0
 49
0.0208333333333333
 49
0.0
 49
0.0
 49
0.0
 49
0.0
 49
1.0
 49
0.0
 49
0.0
 49
0.0
 49
0.0
 49
1.0
175
     0
142
0.0208333333333333
142
0.0
142
0.0
142
0.0
142
0.0
142
0.0208333333333333
142
0.0
142
0.0
142
0.0
142
0.0
142
1.0
142
0.0
142
0.0
142
0.0
142
0.0
142
1.0
179
     0
144
0.0208333333333333
144
0.0
144
0.0
144
0.0
144
0.0
144
0.0208333333333333
144
0.0
144
0.0
144
0.0
144
0.0
144
1.0
144
0.0
144
0.0
144
0.0
144
0.0
144
1.0
147
0.0208333333333333
147
0.0
147
0.0
147
0.0
147
0.0
147
0.0208333333333333
147
0.0
147
0.0
147
0.0
147
0.0
147
1.0
147
0.0
147
0.0
147
0.0
147
0.0
147
1.0
  0
MATERIAL
  5
21
102
{ACAD_XDICTIONARY
360
22
102
}
102
{ACAD_REACTORS
330
10
102
}
330
10
100
AcDbMaterial
  1
Global
 72
     0
 43
0.0208333333333333
 43
0.0
 43
0.0
 43
0.0
 43
0.0
 43
0.0208333333333333
 43
0.0
 43
0.0
 43
0.0
 43
0.0
 43
1.0
 43
0.0
 43
0.0
 43
0.0
 43
0.0
 43
1.0
 77
     0
 47
0.0208333333333333
 47
0.0
 47
0.0
 47
0.0
 47
0.0
 47
0.0208333333333333
 47
0.0
 47
0.0
 47
0.0
 47
0.0
 47
1.0
 47
0.0
 47
0.0
 47
0.0
 47
0.0
 47
1.0
171
     0
 49
0.0208333333333333
 49
0.0
 49
0.0
 49
0.0
 49
0.0
 49
0.0208333333333333
 49
0.0
 49
0.0
 49
0.0
 49
0.0
 49
1.0
 49
0.0
 49
0.0
 49
0.0
 49
0.0
 49
1.0
175
     0
142
0.0208333333333333
142
0.0
142
0.0
142
0.0
142
0.0
142
0.0208333333333333
142
0.0
142
0.0
142
0.0
142
0.0
142
1.0
142
0.0
142
0.0
142
0.0
142
0.0
142
1.0
179
     0
144
0.0208333333333333
144
0.0
144
0.0
144
0.0
144
0.0
144
0.0208333333333333
144
0.0
144
0.0
144
0.0
144
0.0
144
1.0
144
0.0
144
0.0
144
0.0
144
0.0
144
1.0
147
0.0208333333333333
147
0.0
147
0.0
147
0.0
147
0.0
147
0.0208333333333333
147
0.0
147
0.0
147
0.0
147
0.0
147
1.0
147
0.0
147
0.0
147
0.0
147
0.0
147
1.0
  0
MLEADERSTYLE
  5
66
102
{ACAD_REACTORS
330
65
102
}
330
65
100
AcDbMLeaderStyle
179
     2
170
     2
171
     1
172
     0
 90
        2
 40
0.0
 41
0.0
173
     1
 91
-1056964608
340
5A
 92
       -2
290
     1
 42
0.09
291
     1
 43
0.36
  3
Standard
 44
0.18
300

342
55
174
     1
178
     6
175
     1
176
     0
 93
-1056964608
 45
0.18
292
     0
297
     0
 46
0.18
 94
-1056964608
 47
1.0
 49
1.0
140
1.0
293
     1
141
0.0
294
     1
177
     0
142
1.0
295
     0
296
     0
143
0.125
271
     0
272
     9
273
     9
298
     0
  0
MLINESTYLE
  5
5F
102
{ACAD_REACTORS
330
5E
102
}
330
5E
100
AcDbMlineStyle
  2
STANDARD
 70
     0
  3

 62
   256
 51
90.0
 52
90.0
 71
     2
 49
0.5
 62
   256
  6
BYLAYER
 49
-0.5
 62
   256
  6
BYLAYER
  0
ACDBPLACEHOLDER
  5
F
102
{ACAD_REACTORS
330
E
102
}
330
E
  0
SCALE
  5
43
102
{ACAD_REACTORS
330
42
102
}
330
42
100
AcDbScale
 70
     0
300
1:1
140
1.0
141
1.0
290
     1
  0
SCALE
  5
44
102
{ACAD_REACTORS
330
42
102
}
330
42
100
AcDbScale
 70
     0
300
1/128" = 1'-0"
140
0.0078125
141
12.0
290
     0
  0
SCALE
  5
45
102
{ACAD_REACTORS
330
42
102
}
330
42
100
AcDbScale
 70
     0
300
1/64" = 1'-0"
140
0.015625
141
12.0
290
     0
  0
SCALE
  5
46
102
{ACAD_REACTORS
330
42
102
}
330
42
100
AcDbScale
 70
     0
300
1/32" = 1'-0"
140
0.03125
141
12.0
290
     0
  0
SCALE
  5
47
102
{ACAD_REACTORS
330
42
102
}
330
42
100
AcDbScale
 70
     0
300
1/16" = 1'-0"
140
0.0625
141
12.0
290
     0
  0
SCALE
  5
48
102
{ACAD_REACTORS
330
42
102
}
330
42
100
AcDbScale
 70
     0
300
3/32" = 1'-0"
140
0.09375
141
12.0
290
     0
  0
SCALE
  5
49
102
{ACAD_REACTORS
330
42
102
}
330
42
100
AcDbScale
 70
     0
300
1/8" = 1'-0"
140
0.125
141
12.0
290
     0
  0
SCALE
  5
4A
102
{ACAD_REACTORS
330
42
102
}
330
42
100
AcDbScale
 70
     0
300
3/16" = 1'-0"
140
0.1875
141
12.0
290
     0
  0
SCALE
  5
4B
102
{ACAD_REACTORS
330
42
102
}
330
42
100
AcDbScale
 70
     0
300
1/4" = 1'-0"
140
0.25
141
12.0
290
     0
  0
SCALE
  5
4C
102
{ACAD_REACTORS
330
42
102
}
330
42
100
AcDbScale
 70
     0
300
3/8" = 1'-0"
140
0.375
141
12.0
290
     0
  0
SCALE
  5
4D
102
{ACAD_REACTORS
330
42
102
}
330
42
100
AcDbScale
 70
     0
300
1/2" = 1'-0"
140
0.5
141
12.0
290
     0
  0
SCALE
  5
4E
102
{ACAD_REACTORS
330
42
102
}
330
42
100
AcDbScale
 70
     0
300
3/4" = 1'-0"
140
0.75
141
12.0
290
     0
  0
SCALE
  5
4F
102
{ACAD_REACTORS
330
42
102
}
330
42
100
AcDbScale
 70
     0
300
1" = 1'-0"
140
1.0
141
12.0
290
     0
  0
SCALE
  5
50
102
{ACAD_REACTORS
330
42
102
}
330
42
100
AcDbScale
 70
     0
300
1-1/2" = 1'-0"
140
1.5
141
12.0
290
     0
  0
SCALE
  5
51
102
{ACAD_REACTORS
330
42
102
}
330
42
100
AcDbScale
 70
     0
300
3" = 1'-0"
140
3.0
141
12.0
290
     0
  0
SCALE
  5
52
102
{ACAD_REACTORS
330
42
102
}
330
42
100
AcDbScale
 70
     0
300
6" = 1'-0"
140
6.0
141
12.0
290
     0
  0
SCALE
  5
53
102
{ACAD_REACTORS
330
42
102
}
330
42
100
AcDbScale
 70
     0
300
1'-0" = 1'-0"
140
12.0
141
12.0
290
     0
  0
ACDBSECTIONVIEWSTYLE
  5
68
102
{ACAD_REACTORS
330
67
102
}
330
67
100
AcDbModelDocViewStyle
 70
     0
  3
Imperial24
290
     0
300
Imperial24
 90
        0
100
AcDbSectionViewStyle
 70
     0
 71
     0
 90
       78
 71
     1
340
55
 62
   256
 40
0.24
340
0
340
0
 62
   256
 40
0.24
300
I, O, Q, S, X, Z
 40
0.48
 90
        3
 40
0.18
 90
        1
 71
     2
340
5C
 90
       25
 62
   256
340
5C
 90
       50
 62
   256
 40
0.24
 40
0.0
 40
0.24
 71
     3
340
55
 62
   256
 40
0.24
 90
        1
 40
0.75
 90
        1
300
%<\AcVar ViewType \f "%tc1">% %<\AcVar ViewSectionStartId>%-%<\AcVar ViewSectionEndId>%\PSCALE %<\AcVar ViewScale \f "%sn">%
 71
     4
 62
   256
 62
   257
300
ANSI31
 40
1.0
 90
        0
290
     0
290
     0
 90
        6
 40
0.0
 40
1.570796326794896
 40
0.2617993877991494
 40
1.308996938995747
 40
-0.2617993877991494
 40
1.832595714594046
  0
TABLESTYLE
  5
64
102
{ACAD_XDICTIONARY
360
BA0
102
}
102
{ACAD_REACTORS
330
63
102
}
330
63
100
AcDbTableStyle
280
     0
  3
Standard
 70
     0
 71
     0
 40
0.06
 41
0.06
280
     0
281
     0
  7
Standard
140
0.18
170
     2
 62
     0
 63
     7
283
     0
 90
      512
 91
        0
  1

274
    -2
284
     1
 64
     0
275
    -2
285
     1
 65
     0
276
    -2
286
     1
 66
     0
277
    -2
287
     1
 67
     0
278
    -2
288
     1
 68
     0
279
    -2
289
     1
 69
     0
  7
Standard
140
0.25
170
     5
 62
     0
 63
     7
283
     0
 90
      512
 91
        0
  1

274
    -2
284
     1
 64
     0
275
    -2
285
     1
 65
     0
276
    -2
286
     1
 66
     0
277
    -2
287
     1
 67
     0
278
    -2
288
     1
 68
     0
279
    -2
289
     1
 69
     0
  7
Standard
140
0.18
170
     5
 62
     0
 63
     7
283
     0
 90
      512
 91
        0
  1

274
    -2
284
     1
 64
     0
275
    -2
285
     1
 65
     0
276
    -2
286
     1
 66
     0
277
    -2
287
     1
 67
     0
278
    -2
288
     1
 68
     0
279
    -2
289
     1
 69
     0
  0
VISUALSTYLE
  5
2F
102
{ACAD_REACTORS
330
29
102
}
330
29
100
AcDbVisualStyle
  2
2dWireframe
 70
     4
177
     3
291
     0
 70
    58
 90
        0
176
     1
 90
        2
176
     1
 90
        0
176
     1
 90
        0
176
     1
 40
0.6
176
     1
 40
30.0
176
     1
 62
     7
420
 16777215
176
     1
 90
        1
176
     1
 90
        4
176
     1
 62
     7
176
     1
 62
   257
176
     1
 90
        1
176
     1
 90
        1
176
     1
 40
1.0
176
     1
 90
        0
176
     1
 62
   257
176
     1
 40
1.0
176
     1
 90
        1
176
     1
 90
        6
176
     1
 90
        2
176
     1
 62
     7
176
     1
 90
        5
176
     1
 90
        0
176
     1
 90
        0
176
     1
290
     0
176
     1
 90
        1
176
     1
 40
0.0
176
     1
 90
        0
176
     1
290
     1
176
     1
290
     1
176
     1
290
     0
176
     1
290
     0
176
     1
290
     0
176
     1
290
     0
176
     1
290
     0
176
     1
290
     0
176
     1
290
     0
176
     1
 90
       50
176
     1
 40
0.0
176
     1
 40
1.0
176
     1
 90
        0
176
     1
 62
    18
420
        0
176
     1
 90
       50
176
     1
 90
        3
176
     1
 62
     5
420
      255
176
     1
290
     0
176
     1
 90
       50
176
     1
 90
       50
176
     1
 90
       50
176
     1
290
     0
176
     1
 90
       50
176
     1
 62
   256
176
     0
 40
1.0
176
     0
 90
        2
176
     1
  1
strokes_ogs.tif
176
     1
290
     0
176
     1
 40
1.0
176
     1
 40
1.0
176
     1
  0
VISUALSTYLE
  5
2E
102
{ACAD_REACTORS
330
29
102
}
330
29
100
AcDbVisualStyle
  2
Basic
 70
     7
177
     3
291
     1
 70
    58
 90
        1
176
     1
 90
        0
176
     1
 90
        1
176
     1
 90
        0
176
     1
 40
0.6
176
     1
 40
30.0
176
     1
 62
     7
420
 16777215
176
     1
 90
        0
176
     1
 90
        4
176
     1
 62
     7
176
     1
 62
   257
176
     1
 90
        1
176
     1
 90
        1
176
     1
 40
1.0
176
     1
 90
        8
176
     1
 62
     7
176
     1
 40
1.0
176
     1
 90
        1
176
     1
 90
        6
176
     1
 90
        2
176
     1
 62
     7
176
     1
 90
        5
176
     1
 90
        0
176
     1
 90
        0
176
     1
290
     0
176
     1
 90
        1
176
     1
 40
0.0
176
     1
 90
        0
176
     1
290
     0
176
     1
290
     1
176
     1
290
     1
176
     1
290
     0
176
     1
290
     0
176
     1
290
     0
176
     1
290
     0
176
     1
290
     0
176
     1
290
     0
176
     1
 90
       50
176
     1
 40
0.0
176
     1
 40
1.0
176
     1
 90
        0
176
     1
 62
    18
420
        0
176
     1
 90
       50
176
     1
 90
        3
176
     1
 62
     5
420
      255
176
     1
290
     0
176
     1
 90
       50
176
     1
 90
       50
176
     1
 90
       50
176
     1
290
     0
176
     1
 90
       50
176
     1
 62
   256
176
     0
 40
1.0
176
     0
 90
        2
176
     1
  1
strokes_ogs.tif
176
     1
290
     0
176
     1
 40
1.0
176
     1
 40
1.0
176
     1
  0
VISUALSTYLE
  5
35
102
{ACAD_REACTORS
330
29
102
}
330
29
100
AcDbVisualStyle
  2
Brighten
 70
    12
177
     3
291
     1
 70
    58
 90
        2
176
     1
 90
        2
176
     1
 90
        0
176
     1
 90
        0
176
     1
 40
0.6
176
     1
 40
30.0
176
     1
 62
     7
420
 16777215
176
     1
 90
        1
176
     1
 90
        4
176
     1
 62
     7
176
     1
 62
   257
176
     1
 90
        1
176
     1
 90
        1
176
     1
 40
1.0
176
     1
 90
        8
176
     1
 62
     7
176
     1
 40
1.0
176
     1
 90
        1
176
     1
 90
        6
176
     1
 90
        2
176
     1
 62
     7
176
     1
 90
        5
176
     1
 90
        0
176
     1
 90
        0
176
     1
290
     0
176
     1
 90
        1
176
     1
 40
50.0
176
     1
 90
        0
176
     1
290
     0
176
     1
290
     1
176
     1
290
     1
176
     1
290
     0
176
     1
290
     0
176
     1
290
     0
176
     1
290
     0
176
     1
290
     0
176
     1
290
     0
176
     1
 90
       50
176
     1
 40
0.0
176
     1
 40
1.0
176
     1
 90
        0
176
     1
 62
    18
420
        0
176
     1
 90
       50
176
     1
 90
        3
176
     1
 62
     5
420
      255
176
     1
290
     0
176
     1
 90
       50
176
     1
 90
       50
176
     1
 90
       50
176
     1
290
     0
176
     1
 90
       50
176
     1
 62
   256
176
     0
 40
1.0
176
     0
 90
        2
176
     1
  1
strokes_ogs.tif
176
     1
290
     0
176
     1
 40
1.0
176
     1
 40
1.0
176
     1
  0
VISUALSTYLE
  5
39
102
{ACAD_REACTORS
330
29
102
}
330
29
100
AcDbVisualStyle
  2
ColorChange
 70
    16
177
     3
291
     1
 70
    58
 90
        2
176
     1
 90
        2
176
     1
 90
        3
176
     1
 90
        0
176
     1
 40
0.6
176
     1
 40
30.0
176
     1
 62
     8
420
  8421504
176
     1
 90
        1
176
     1
 90
        4
176
     1
 62
     7
176
     1
 62
   257
176
     1
 90
        1
176
     1
 90
        1
176
     1
 40
1.0
176
     1
 90
        8
176
     1
 62
     8
420
  8421504
176
     1
 40
1.0
176
     1
 90
        1
176
     1
 90
        6
176
     1
 90
        2
176
     1
 62
     7
176
     1
 90
        5
176
     1
 90
        0
176
     1
 90
        0
176
     1
290
     0
176
     1
 90
        1
176
     1
 40
0.0
176
     1
 90
        0
176
     1
290
     0
176
     1
290
     1
176
     1
290
     1
176
     1
290
     0
176
     1
290
     0
176
     1
290
     0
176
     1
290
     0
176
     1
290
     0
176
     1
290
     0
176
     1
 90
       50
176
     1
 40
0.0
176
     1
 40
1.0
176
     1
 90
        0
176
     1
 62
    18
420
        0
176
     1
 90
       50
176
     1
 90
        3
176
     1
 62
     5
420
      255
176
     1
290
     0
176
     1
 90
       50
176
     1
 90
       50
176
     1
 90
       50
176
     1
290
     0
176
     1
 90
       50
176
     1
 62
   256
176
     0
 40
1.0
176
     0
 90
        2
176
     1
  1
strokes_ogs.tif
176
     1
290
     0
176
     1
 40
1.0
176
     1
 40
1.0
176
     1
  0
VISUALSTYLE
  5
32
102
{ACAD_REACTORS
330
29
102
}
330
29
100
AcDbVisualStyle
  2
Conceptual
 70
     9
177
     3
291
     0
 70
    58
 90
        3
176
     1
 90
        2
176
     1
 90
        0
176
     1
 90
        0
176
     1
 40
0.6
176
     1
 40
30.0
176
     1
 62
     7
420
 16777215
176
     1
 90
        2
176
     1
 90
        2
176
     1
 62
     7
176
     1
 62
   257
176
     1
 90
        1
176
     1
 90
        1
176
     1
 40
179.0
176
     1
 90
        8
176
     1
 62
     7
176
     1
 40
1.0
176
     1
 90
        1
176
     1
 90
        6
176
     1
 90
        2
176
     1
 62
     7
176
     1
 90
        3
176
     1
 90
        0
176
     1
 90
        0
176
     1
290
     0
176
     1
 90
        1
176
     1
 40
0.0
176
     1
 90
        0
176
     1
290
     0
176
     1
290
     1
176
     1
290
     1
176
     1
290
     0
176
     1
290
     0
176
     1
290
     0
176
     1
290
     0
176
     1
290
     0
176
     1
290
     0
176
     1
 90
       50
176
     1
 40
0.0
176
     1
 40
1.0
176
     1
 90
        0
176
     1
 62
    18
420
        0
176
     1
 90
       50
176
     1
 90
        3
176
     1
 62
     5
420
      255
176
     1
290
     0
176
     1
 90
       50
176
     1
 90
       50
176
     1
 90
       50
176
     1
290
     0
176
     1
 90
       50
176
     1
 62
   256
176
     0
 40
1.0
176
     0
 90
        2
176
     1
  1
strokes_ogs.tif
176
     1
290
     0
176
     1
 40
1.0
176
     1
 40
1.0
176
     1
  0
VISUALSTYLE
  5
34
102
{ACAD_REACTORS
330
29
102
}
330
29
100
AcDbVisualStyle
  2
Dim
 70
    11
177
     3
291
     1
 70
    58
 90
        2
176
     1
 90
        2
176
     1
 90
        0
176
     1
 90
        0
176
     1
 40
0.6
176
     1
 40
30.0
176
     1
 62
     7
420
 16777215
176
     1
 90
        1
176
     1
 90
        4
176
     1
 62
     7
176
     1
 62
   257
176
     1
 90
        1
176
     1
 90
        1
176
     1
 40
1.0
176
     1
 90
        8
176
     1
 62
     7
176
     1
 40
1.0
176
     1
 90
        1
176
     1
 90
        6
176
     1
 90
        2
176
     1
 62
     7
176
     1
 90
        5
176
     1
 90
        0
176
     1
 90
        0
176
     1
290
     0
176
     1
 90
        1
176
     1
 40
-50.0
176
     1
 90
        0
176
     1
290
     0
176
     1
290
     1
176
     1
290
     1
176
     1
290
     0
176
     1
290
     0
176
     1
290
     0
176
     1
290
     0
176
     1
290
     0
176
     1
290
     0
176
     1
 90
       50
176
     1
 40
0.0
176
     1
 40
1.0
176
     1
 90
        0
176
     1
 62
    18
420
        0
176
     1
 90
       50
176
     1
 90
        3
176
     1
 62
     5
420
      255
176
     1
290
     0
176
     1
 90
       50
176
     1
 90
       50
176
     1
 90
       50
176
     1
290
     0
176
     1
 90
       50
176
     1
 62
   256
176
     0
 40
1.0
176
     0
 90
        2
176
     1
  1
strokes_ogs.tif
176
     1
290
     0
176
     1
 40
1.0
176
     1
 40
1.0
176
     1
  0
VISUALSTYLE
  5
41
102
{ACAD_REACTORS
330
29
102
}
330
29
100
AcDbVisualStyle
  2
EdgeColorOff
 70
    22
177
     3
291
     1
 70
    58
 90
        2
176
     0
 90
        2
176
     0
 90
        0
176
     0
 90
        0
176
     0
 40
0.6
176
     0
 40
30.0
176
     0
 62
     7
420
 16777215
176
     0
 90
        1
176
     0
 90
        4
176
     0
 62
     7
176
     0
 62
   257
176
     0
 90
        1
176
     0
 90
        1
176
     0
 40
1.0
176
     0
 90
        8
176
     2
 62
     7
176
     0
 40
1.0
176
     0
 90
        1
176
     0
 90
        6
176
     0
 90
        2
176
     0
 62
     7
176
     0
 90
        5
176
     0
 90
        0
176
     0
 90
        0
176
     0
290
     0
176
     0
 90
        1
176
     0
 40
0.0
176
     0
 90
        0
176
     0
290
     0
176
     1
290
     1
176
     1
290
     1
176
     1
290
     0
176
     1
290
     0
176
     1
290
     0
176
     1
290
     0
176
     1
290
     0
176
     1
290
     0
176
     1
 90
       50
176
     0
 40
0.0
176
     0
 40
1.0
176
     0
 90
        0
176
     0
 62
    18
420
        0
176
     0
 90
       50
176
     0
 90
        3
176
     0
 62
     5
420
      255
176
     0
290
     0
176
     1
 90
       50
176
     0
 90
       50
176
     0
 90
       50
176
     0
290
     0
176
     1
 90
       50
176
     0
 62
   256
176
     0
 40
1.0
176
     0
 90
        2
176
     0
  1
strokes_ogs.tif
176
     0
290
     0
176
     1
 40
1.0
176
     0
 40
1.0
176
     0
  0
VISUALSTYLE
  5
38
102
{ACAD_REACTORS
330
29
102
}
330
29
100
AcDbVisualStyle
  2
Facepattern
 70
    15
177
     3
291
     1
 70
    58
 90
        2
176
     1
 90
        2
176
     1
 90
        0
176
     1
 90
        0
176
     1
 40
0.6
176
     1
 40
30.0
176
     1
 62
     7
420
 16777215
176
     1
 90
        1
176
     1
 90
        4
176
     1
 62
     7
176
     1
 62
   257
176
     1
 90
        1
176
     1
 90
        1
176
     1
 40
1.0
176
     1
 90
        8
176
     1
 62
     7
176
     1
 40
1.0
176
     1
 90
        1
176
     1
 90
        6
176
     1
 90
        2
176
     1
 62
     7
176
     1
 90
        5
176
     1
 90
        0
176
     1
 90
        0
176
     1
290
     0
176
     1
 90
        1
176
     1
 40
0.0
176
     1
 90
        0
176
     1
290
     0
176
     1
290
     1
176
     1
290
     1
176
     1
290
     0
176
     1
290
     0
176
     1
290
     0
176
     1
290
     0
176
     1
290
     0
176
     1
290
     0
176
     1
 90
       50
176
     1
 40
0.0
176
     1
 40
1.0
176
     1
 90
        0
176
     1
 62
    18
420
        0
176
     1
 90
       50
176
     1
 90
        3
176
     1
 62
     5
420
      255
176
     1
290
     0
176
     1
 90
       50
176
     1
 90
       50
176
     1
 90
       50
176
     1
290
     0
176
     1
 90
       50
176
     1
 62
   256
176
     0
 40
1.0
176
     0
 90
        2
176
     1
  1
strokes_ogs.tif
176
     1
290
     0
176
     1
 40
1.0
176
     1
 40
1.0
176
     1
  0
VISUALSTYLE
  5
2A
102
{ACAD_REACTORS
330
29
102
}
330
29
100
AcDbVisualStyle
  2
Flat
 70
     0
177
     3
291
     1
 70
    58
 90
        2
176
     1
 90
        1
176
     1
 90
        1
176
     1
 90
        2
176
     1
 40
0.6
176
     1
 40
30.0
176
     1
 62
     7
420
 16777215
176
     1
 90
        0
176
     1
 90
        0
176
     1
 62
     7
176
     1
 62
   257
176
     1
 90
        1
176
     1
 90
        1
176
     1
 40
1.0
176
     1
 90
        8
176
     1
 62
     7
176
     1
 40
1.0
176
     1
 90
        1
176
     1
 90
        6
176
     1
 90
        2
176
     1
 62
     7
176
     1
 90
        5
176
     1
 90
        0
176
     1
 90
        0
176
     1
290
     0
176
     1
 90
       13
176
     1
 40
0.0
176
     1
 90
        0
176
     1
290
     0
176
     1
290
     1
176
     1
290
     1
176
     1
290
     0
176
     1
290
     0
176
     1
290
     0
176
     1
290
     0
176
     1
290
     0
176
     1
290
     0
176
     1
 90
       50
176
     1
 40
0.0
176
     1
 40
1.0
176
     1
 90
        0
176
     1
 62
    18
420
        0
176
     1
 90
       50
176
     1
 90
        3
176
     1
 62
     5
420
      255
176
     1
290
     0
176
     1
 90
       50
176
     1
 90
       50
176
     1
 90
       50
176
     1
290
     0
176
     1
 90
       50
176
     1
 62
   256
176
     0
 40
1.0
176
     0
 90
        2
176
     1
  1
strokes_ogs.tif
176
     1
290
     0
176
     1
 40
1.0
176
     1
 40
1.0
176
     1
  0
VISUALSTYLE
  5
2B
102
{ACAD_REACTORS
330
29
102
}
330
29
100
AcDbVisualStyle
  2
FlatWithEdges
 70
     1
177
     3
291
     1
 70
    58
 90
        2
176
     1
 90
        1
176
     1
 90
        1
176
     1
 90
        2
176
     1
 40
0.6
176
     1
 40
30.0
176
     1
 62
     7
420
 16777215
176
     1
 90
        1
176
     1
 90
        0
176
     1
 62
     7
176
     1
 62
   257
176
     1
 90
        1
176
     1
 90
        1
176
     1
 40
1.0
176
     1
 90
        0
176
     1
 62
   257
176
     1
 40
1.0
176
     1
 90
        1
176
     1
 90
        6
176
     1
 90
        2
176
     1
 62
     7
176
     1
 90
        5
176
     1
 90
        0
176
     1
 90
        0
176
     1
290
     0
176
     1
 90
       13
176
     1
 40
0.0
176
     1
 90
        0
176
     1
290
     0
176
     1
290
     1
176
     1
290
     1
176
     1
290
     0
176
     1
290
     0
176
     1
290
     0
176
     1
290
     0
176
     1
290
     0
176
     1
290
     0
176
     1
 90
       50
176
     1
 40
0.0
176
     1
 40
1.0
176
     1
 90
        0
176
     1
 62
    18
420
        0
176
     1
 90
       50
176
     1
 90
        3
176
     1
 62
     5
420
      255
176
     1
290
     0
176
     1
 90
       50
176
     1
 90
       50
176
     1
 90
       50
176
     1
290
     0
176
     1
 90
       50
176
     1
 62
   256
176
     0
 40
1.0
176
     0
 90
        2
176
     1
  1
strokes_ogs.tif
176
     1
290
     0
176
     1
 40
1.0
176
     1
 40
1.0
176
     1
  0
VISUALSTYLE
  5
2C
102
{ACAD_REACTORS
330
29
102
}
330
29
100
AcDbVisualStyle
  2
Gouraud
 70
     2
177
     3
291
     1
 70
    58
 90
        2
176
     1
 90
        2
176
     1
 90
        1
176
     1
 90
        2
176
     1
 40
0.6
176
     1
 40
30.0
176
     1
 62
     7
420
 16777215
176
     1
 90
        0
176
     1
 90
        0
176
     1
 62
     7
176
     1
 62
   257
176
     1
 90
        1
176
     1
 90
        1
176
     1
 40
1.0
176
     1
 90
        0
176
     1
 62
     7
176
     1
 40
1.0
176
     1
 90
        1
176
     1
 90
        6
176
     1
 90
        2
176
     1
 62
     7
176
     1
 90
        5
176
     1
 90
        0
176
     1
 90
        0
176
     1
290
     0
176
     1
 90
       13
176
     1
 40
0.0
176
     1
 90
        0
176
     1
290
     0
176
     1
290
     1
176
     1
290
     1
176
     1
290
     0
176
     1
290
     0
176
     1
290
     0
176
     1
290
     0
176
     1
290
     0
176
     1
290
     0
176
     1
 90
       50
176
     1
 40
0.0
176
     1
 40
1.0
176
     1
 90
        0
176
     1
 62
    18
420
        0
176
     1
 90
       50
176
     1
 90
        3
176
     1
 62
     5
420
      255
176
     1
290
     0
176
     1
 90
       50
176
     1
 90
       50
176
     1
 90
       50
176
     1
290
     0
176
     1
 90
       50
176
     1
 62
   256
176
     0
 40
1.0
176
     0
 90
        2
176
     1
  1
strokes_ogs.tif
176
     1
290
     0
176
     1
 40
1.0
176
     1
 40
1.0
176
     1
  0
VISUALSTYLE
  5
2D
102
{ACAD_REACTORS
330
29
102
}
330
29
100
AcDbVisualStyle
  2
GouraudWithEdges
 70
     3
177
     3
291
     1
 70
    58
 90
        2
176
     1
 90
        2
176
     1
 90
        1
176
     1
 90
        2
176
     1
 40
0.6
176
     1
 40
30.0
176
     1
 62
     7
420
 16777215
176
     1
 90
        1
176
     1
 90
        0
176
     1
 62
     7
176
     1
 62
   257
176
     1
 90
        1
176
     1
 90
        1
176
     1
 40
1.0
176
     1
 90
        0
176
     1
 62
   257
176
     1
 40
1.0
176
     1
 90
        1
176
     1
 90
        6
176
     1
 90
        2
176
     1
 62
     7
176
     1
 90
        5
176
     1
 90
        0
176
     1
 90
        0
176
     1
290
     0
176
     1
 90
       13
176
     1
 40
0.0
176
     1
 90
        0
176
     1
290
     0
176
     1
290
     1
176
     1
290
     1
176
     1
290
     0
176
     1
290
     0
176
     1
290
     0
176
     1
290
     0
176
     1
290
     0
176
     1
290
     0
176
     1
 90
       50
176
     1
 40
0.0
176
     1
 40
1.0
176
     1
 90
        0
176
     1
 62
    18
420
        0
176
     1
 90
       50
176
     1
 90
        3
176
     1
 62
     5
420
      255
176
     1
290
     0
176
     1
 90
       50
176
     1
 90
       50
176
     1
 90
       50
176
     1
290
     0
176
     1
 90
       50
176
     1
 62
   256
176
     0
 40
1.0
176
     0
 90
        2
176
     1
  1
strokes_ogs.tif
176
     1
290
     0
176
     1
 40
1.0
176
     1
 40
1.0
176
     1
  0
VISUALSTYLE
  5
31
102
{ACAD_REACTORS
330
29
102
}
330
29
100
AcDbVisualStyle
  2
Hidden
 70
     6
177
     3
291
     0
 70
    58
 90
        1
176
     1
 90
        2
176
     1
 90
        2
176
     1
 90
        0
176
     1
 40
0.6
176
     1
 40
30.0
176
     1
 62
     7
420
 16777215
176
     1
 90
        2
176
     1
 90
        2
176
     1
 62
     7
176
     1
 62
   257
176
     1
 90
        2
176
     1
 90
        1
176
     1
 40
40.0
176
     1
 90
        0
176
     1
 62
   257
176
     1
 40
1.0
176
     1
 90
        1
176
     1
 90
        6
176
     1
 90
        2
176
     1
 62
     7
176
     1
 90
        3
176
     1
 90
        0
176
     1
 90
        0
176
     1
290
     0
176
     1
 90
        1
176
     1
 40
0.0
176
     1
 90
        0
176
     1
290
     0
176
     1
290
     1
176
     1
290
     1
176
     1
290
     0
176
     1
290
     0
176
     1
290
     0
176
     1
290
     0
176
     1
290
     0
176
     1
290
     0
176
     1
 90
       50
176
     1
 40
0.0
176
     1
 40
1.0
176
     1
 90
        0
176
     1
 62
    18
420
        0
176
     1
 90
       50
176
     1
 90
        3
176
     1
 62
     5
420
      255
176
     1
290
     0
176
     1
 90
       50
176
     1
 90
       50
176
     1
 90
       50
176
     1
290
     0
176
     1
 90
       50
176
     1
 62
   256
176
     0
 40
1.0
176
     0
 90
        2
176
     1
  1
strokes_ogs.tif
176
     1
290
     0
176
     1
 40
1.0
176
     1
 40
1.0
176
     1
  0
VISUALSTYLE
  5
3F
102
{ACAD_REACTORS
330
29
102
}
330
29
100
AcDbVisualStyle
  2
JitterOff
 70
    20
177
     3
291
     1
 70
    58
 90
        2
176
     0
 90
        2
176
     0
 90
        0
176
     0
 90
        0
176
     0
 40
0.6
176
     0
 40
30.0
176
     0
 62
     7
420
 16777215
176
     0
 90
        1
176
     0
 90
        4
176
     0
 62
     7
176
     0
 62
   257
176
     0
 90
        1
176
     0
 90
        1
176
     0
 40
1.0
176
     0
 90
       10
176
     2
 62
     7
176
     0
 40
1.0
176
     0
 90
        1
176
     0
 90
        6
176
     0
 90
        2
176
     0
 62
     7
176
     0
 90
        5
176
     0
 90
        0
176
     0
 90
        0
176
     0
290
     0
176
     0
 90
        1
176
     0
 40
0.0
176
     0
 90
        0
176
     0
290
     0
176
     1
290
     1
176
     1
290
     1
176
     1
290
     0
176
     1
290
     0
176
     1
290
     0
176
     1
290
     0
176
     1
290
     0
176
     1
290
     0
176
     1
 90
       50
176
     0
 40
0.0
176
     0
 40
1.0
176
     0
 90
        0
176
     0
 62
    18
420
        0
176
     0
 90
       50
176
     0
 90
        3
176
     0
 62
     5
420
      255
176
     0
290
     0
176
     1
 90
       50
176
     0
 90
       50
176
     0
 90
       50
176
     0
290
     0
176
     1
 90
       50
176
     0
 62
   256
176
     0
 40
1.0
176
     0
 90
        2
176
     0
  1
strokes_ogs.tif
176
     0
290
     0
176
     1
 40
1.0
176
     0
 40
1.0
176
     0
  0
VISUALSTYLE
  5
37
102
{ACAD_REACTORS
330
29
102
}
330
29
100
AcDbVisualStyle
  2
Linepattern
 70
    14
177
     3
291
     1
 70
    58
 90
        2
176
     1
 90
        2
176
     1
 90
        0
176
     1
 90
        0
176
     1
 40
0.6
176
     1
 40
30.0
176
     1
 62
     7
420
 16777215
176
     1
 90
        1
176
     1
 90
        4
176
     1
 62
     7
176
     1
 62
   257
176
     1
 90
        7
176
     1
 90
        7
176
     1
 40
1.0
176
     1
 90
        8
176
     1
 62
     7
176
     1
 40
1.0
176
     1
 90
        1
176
     1
 90
        6
176
     1
 90
        2
176
     1
 62
     7
176
     1
 90
        5
176
     1
 90
        0
176
     1
 90
        0
176
     1
290
     0
176
     1
 90
        1
176
     1
 40
0.0
176
     1
 90
        0
176
     1
290
     0
176
     1
290
     1
176
     1
290
     1
176
     1
290
     0
176
     1
290
     0
176
     1
290
     0
176
     1
290
     0
176
     1
290
     0
176
     1
290
     0
176
     1
 90
       50
176
     1
 40
0.0
176
     1
 40
1.0
176
     1
 90
        0
176
     1
 62
    18
420
        0
176
     1
 90
       50
176
     1
 90
        3
176
     1
 62
     5
420
      255
176
     1
290
     0
176
     1
 90
       50
176
     1
 90
       50
176
     1
 90
       50
176
     1
290
     0
176
     1
 90
       50
176
     1
 62
   256
176
     0
 40
1.0
176
     0
 90
        2
176
     1
  1
strokes_ogs.tif
176
     1
290
     0
176
     1
 40
1.0
176
     1
 40
1.0
176
     1
  0
VISUALSTYLE
  5
40
102
{ACAD_REACTORS
330
29
102
}
330
29
100
AcDbVisualStyle
  2
OverhangOff
 70
    21
177
     3
291
     1
 70
    58
 90
        2
176
     0
 90
        2
176
     0
 90
        0
176
     0
 90
        0
176
     0
 40
0.6
176
     0
 40
30.0
176
     0
 62
     7
420
 16777215
176
     0
 90
        1
176
     0
 90
        4
176
     0
 62
     7
176
     0
 62
   257
176
     0
 90
        1
176
     0
 90
        1
176
     0
 40
1.0
176
     0
 90
        9
176
     2
 62
     7
176
     0
 40
1.0
176
     0
 90
        1
176
     0
 90
        6
176
     0
 90
        2
176
     0
 62
     7
176
     0
 90
        5
176
     0
 90
        0
176
     0
 90
        0
176
     0
290
     0
176
     0
 90
        1
176
     0
 40
0.0
176
     0
 90
        0
176
     0
290
     0
176
     1
290
     1
176
     1
290
     1
176
     1
290
     0
176
     1
290
     0
176
     1
290
     0
176
     1
290
     0
176
     1
290
     0
176
     1
290
     0
176
     1
 90
       50
176
     0
 40
0.0
176
     0
 40
1.0
176
     0
 90
        0
176
     0
 62
    18
420
        0
176
     0
 90
       50
176
     0
 90
        3
176
     0
 62
     5
420
      255
176
     0
290
     0
176
     1
 90
       50
176
     0
 90
       50
176
     0
 90
       50
176
     0
290
     0
176
     1
 90
       50
176
     0
 62
   256
176
     0
 40
1.0
176
     0
 90
        2
176
     0
  1
strokes_ogs.tif
176
     0
290
     0
176
     1
 40
1.0
176
     0
 40
1.0
176
     0
  0
VISUALSTYLE
  5
33
102
{ACAD_REACTORS
330
29
102
}
330
29
100
AcDbVisualStyle
  2
Realistic
 70
     8
177
     3
291
     0
 70
    58
 90
        2
176
     1
 90
        3
176
     1
 90
        0
176
     1
 90
        2
176
     1
 40
0.6
176
     1
 40
30.0
176
     1
 62
     7
420
 16777215
176
     1
 90
        0
176
     1
 90
        0
176
     1
 62
     7
176
     1
 62
   257
176
     1
 90
        1
176
     1
 90
        1
176
     1
 40
1.0
176
     1
 90
        8
176
     1
 62
   257
176
     1
 40
1.0
176
     1
 90
        1
176
     1
 90
        6
176
     1
 90
        2
176
     1
 62
     7
176
     1
 90
        3
176
     1
 90
        0
176
     1
 90
        0
176
     1
290
     0
176
     1
 90
       13
176
     1
 40
0.0
176
     1
 90
        0
176
     1
290
     0
176
     1
290
     1
176
     1
290
     1
176
     1
290
     0
176
     1
290
     0
176
     1
290
     0
176
     1
290
     0
176
     1
290
     0
176
     1
290
     0
176
     1
 90
       50
176
     1
 40
0.0
176
     1
 40
1.0
176
     1
 90
        0
176
     1
 62
    18
420
        0
176
     1
 90
       50
176
     1
 90
        3
176
     1
 62
     5
420
      255
176
     1
290
     0
176
     1
 90
       50
176
     1
 90
       50
176
     1
 90
       50
176
     1
290
     0
176
     1
 90
       50
176
     1
 62
   256
176
     0
 40
1.0
176
     0
 90
        2
176
     1
  1
strokes_ogs.tif
176
     1
290
     0
176
     1
 40
1.0
176
     1
 40
1.0
176
     1
  0
VISUALSTYLE
  5
3E
102
{ACAD_REACTORS
330
29
102
}
330
29
100
AcDbVisualStyle
  2
Shaded
 70
    27
177
     3
291
     0
 70
    58
 90
        2
176
     1
 90
        2
176
     1
 90
        1
176
     1
 90
        2
176
     1
 40
0.6
176
     1
 40
30.0
176
     1
 62
     7
420
 16777215
176
     1
 90
        0
176
     1
 90
        4
176
     1
 62
     7
176
     1
 62
   257
176
     1
 90
        1
176
     1
 90
        1
176
     1
 40
1.0
176
     1
 90
        8
176
     1
 62
   257
176
     1
 40
1.0
176
     1
 90
        1
176
     1
 90
        6
176
     1
 90
        2
176
     1
 62
     8
420
  7895160
176
     1
 90
        3
176
     1
 90
        0
176
     1
 90
        0
176
     1
290
     0
176
     1
 90
        5
176
     1
 40
0.0
176
     1
 90
        0
176
     1
290
     0
176
     1
290
     1
176
     1
290
     1
176
     1
290
     0
176
     1
290
     0
176
     1
290
     0
176
     1
290
     0
176
     1
290
     0
176
     1
290
     0
176
     1
 90
       50
176
     1
 40
0.0
176
     1
 40
1.0
176
     1
 90
        0
176
     1
 62
    18
420
        0
176
     1
 90
       50
176
     1
 90
        3
176
     1
 62
     5
420
      255
176
     1
290
     0
176
     1
 90
       50
176
     1
 90
       50
176
     1
 90
       50
176
     1
290
     0
176
     1
 90
       50
176
     1
 62
   256
176
     0
 40
1.0
176
     0
 90
        2
176
     1
  1
strokes_ogs.tif
176
     1
290
     0
176
     1
 40
1.0
176
     1
 40
1.0
176
     1
  0
VISUALSTYLE
  5
3D
102
{ACAD_REACTORS
330
29
102
}
330
29
100
AcDbVisualStyle
  2
Shaded with edges
 70
    26
177
     3
291
     0
 70
    58
 90
        2
176
     1
 90
        2
176
     1
 90
        1
176
     1
 90
        2
176
     1
 40
0.6
176
     1
 40
30.0
176
     1
 62
     7
420
 16777215
176
     1
 90
        1
176
     1
 90
        2
176
     1
 62
     7
176
     1
 62
   257
176
     1
 90
        2
176
     1
 90
        1
176
     1
 40
1.0
176
     1
 90
        8
176
     1
 62
   257
176
     1
 40
1.0
176
     1
 90
        1
176
     1
 90
        6
176
     1
 90
        2
176
     1
 62
     7
176
     1
 90
        3
176
     1
 90
        0
176
     1
 90
        0
176
     1
290
     0
176
     1
 90
        5
176
     1
 40
0.0
176
     1
 90
        0
176
     1
290
     0
176
     1
290
     1
176
     1
290
     1
176
     1
290
     0
176
     1
290
     0
176
     1
290
     0
176
     1
290
     0
176
     1
290
     0
176
     1
290
     0
176
     1
 90
       50
176
     1
 40
0.0
176
     1
 40
1.0
176
     1
 90
        0
176
     1
 62
    18
420
        0
176
     1
 90
       50
176
     1
 90
        3
176
     1
 62
     5
420
      255
176
     1
290
     0
176
     1
 90
       50
176
     1
 90
       50
176
     1
 90
       50
176
     1
290
     0
176
     1
 90
       50
176
     1
 62
   256
176
     0
 40
1.0
176
     0
 90
        2
176
     1
  1
strokes_ogs.tif
176
     1
290
     0
176
     1
 40
1.0
176
     1
 40
1.0
176
     1
  0
VISUALSTYLE
  5
3A
102
{ACAD_REACTORS
330
29
102
}
330
29
100
AcDbVisualStyle
  2
Shades of Gray
 70
    23
177
     3
291
     0
 70
    58
 90
        2
176
     1
 90
        2
176
     1
 90
        3
176
     1
 90
        0
176
     1
 40
0.6
176
     1
 40
30.0
176
     1
 62
     7
420
 16777215
176
     1
 90
        2
176
     1
 90
        2
176
     1
 62
     7
176
     1
 62
     7
176
     1
 90
        1
176
     1
 90
        1
176
     1
 40
40.0
176
     1
 90
        8
176
     1
 62
     7
176
     1
 40
1.0
176
     1
 90
        1
176
     1
 90
        6
176
     1
 90
        2
176
     1
 62
     7
176
     1
 90
        3
176
     1
 90
        0
176
     1
 90
        0
176
     1
290
     0
176
     1
 90
        1
176
     1
 40
0.0
176
     1
 90
        0
176
     1
290
     0
176
     1
290
     1
176
     1
290
     1
176
     1
290
     0
176
     1
290
     0
176
     1
290
     0
176
     1
290
     0
176
     1
290
     0
176
     1
290
     0
176
     1
 90
       50
176
     1
 40
0.0
176
     1
 40
1.0
176
     1
 90
        0
176
     1
 62
    18
420
        0
176
     1
 90
       50
176
     1
 90
        3
176
     1
 62
     5
420
      255
176
     1
290
     0
176
     1
 90
       50
176
     1
 90
       50
176
     1
 90
       50
176
     1
290
     0
176
     1
 90
       50
176
     1
 62
   256
176
     0
 40
1.0
176
     0
 90
        2
176
     1
  1
strokes_ogs.tif
176
     1
290
     0
176
     1
 40
1.0
176
     1
 40
1.0
176
     1
  0
VISUALSTYLE
  5
3B
102
{ACAD_REACTORS
330
29
102
}
330
29
100
AcDbVisualStyle
  2
Sketchy
 70
    24
177
     3
291
     0
 70
    58
 90
        1
176
     1
 90
        2
176
     1
 90
        2
176
     1
 90
        0
176
     1
 40
0.6
176
     1
 40
30.0
176
     1
 62
     7
420
 16777215
176
     1
 90
        2
176
     1
 90
        2
176
     1
 62
     7
176
     1
 62
     7
176
     1
 90
        1
176
     1
 90
        1
176
     1
 40
40.0
176
     1
 90
       11
176
     1
 62
     7
176
     1
 40
1.0
176
     1
 90
        1
176
     1
 90
        6
176
     1
 90
        2
176
     1
 62
     7
176
     1
 90
        6
176
     1
 90
        0
176
     1
 90
        0
176
     1
290
     0
176
     1
 90
        1
176
     1
 40
0.0
176
     1
 90
        0
176
     1
290
     0
176
     1
290
     1
176
     1
290
     1
176
     1
290
     0
176
     1
290
     0
176
     1
290
     0
176
     1
290
     0
176
     1
290
     0
176
     1
290
     0
176
     1
 90
       50
176
     1
 40
0.0
176
     1
 40
1.0
176
     1
 90
        0
176
     1
 62
    18
420
        0
176
     1
 90
       50
176
     1
 90
        3
176
     1
 62
     5
420
      255
176
     1
290
     0
176
     1
 90
       50
176
     1
 90
       50
176
     1
 90
       50
176
     1
290
     0
176
     1
 90
       50
176
     1
 62
   256
176
     0
 40
1.0
176
     0
 90
        2
176
     1
  1
strokes_ogs.tif
176
     1
290
     0
176
     1
 40
1.0
176
     1
 40
1.0
176
     1
  0
VISUALSTYLE
  5
36
102
{ACAD_REACTORS
330
29
102
}
330
29
100
AcDbVisualStyle
  2
Thicken
 70
    13
177
     3
291
     1
 70
    58
 90
        2
176
     1
 90
        2
176
     1
 90
        0
176
     1
 90
        0
176
     1
 40
0.6
176
     1
 40
30.0
176
     1
 62
     7
420
 16777215
176
     1
 90
        1
176
     1
 90
        4
176
     1
 62
     7
176
     1
 62
   257
176
     1
 90
        1
176
     1
 90
        1
176
     1
 40
1.0
176
     1
 90
       12
176
     1
 62
     7
176
     1
 40
1.0
176
     1
 90
        1
176
     1
 90
        6
176
     1
 90
        2
176
     1
 62
     7
176
     1
 90
        5
176
     1
 90
        0
176
     1
 90
        0
176
     1
290
     0
176
     1
 90
        1
176
     1
 40
0.0
176
     1
 90
        0
176
     1
290
     0
176
     1
290
     1
176
     1
290
     1
176
     1
290
     0
176
     1
290
     0
176
     1
290
     0
176
     1
290
     0
176
     1
290
     0
176
     1
290
     0
176
     1
 90
       50
176
     1
 40
0.0
176
     1
 40
1.0
176
     1
 90
        0
176
     1
 62
    18
420
        0
176
     1
 90
       50
176
     1
 90
        3
176
     1
 62
     5
420
      255
176
     1
290
     0
176
     1
 90
       50
176
     1
 90
       50
176
     1
 90
       50
176
     1
290
     0
176
     1
 90
       50
176
     1
 62
   256
176
     0
 40
1.0
176
     0
 90
        2
176
     1
  1
strokes_ogs.tif
176
     1
290
     0
176
     1
 40
1.0
176
     1
 40
1.0
176
     1
  0
VISUALSTYLE
  5
30
102
{ACAD_REACTORS
330
29
102
}
330
29
100
AcDbVisualStyle
  2
Wireframe
 70
     5
177
     3
291
     0
 70
    58
 90
        0
176
     1
 90
        2
176
     1
 90
        0
176
     1
 90
        0
176
     1
 40
0.6
176
     1
 40
30.0
176
     1
 62
     7
420
 16777215
176
     1
 90
        1
176
     1
 90
        4
176
     1
 62
     7
176
     1
 62
   257
176
     1
 90
        1
176
     1
 90
        1
176
     1
 40
1.0
176
     1
 90
        0
176
     1
 62
   257
176
     1
 40
1.0
176
     1
 90
        1
176
     1
 90
        6
176
     1
 90
        2
176
     1
 62
     7
176
     1
 90
        3
176
     1
 90
        0
176
     1
 90
        0
176
     1
290
     0
176
     1
 90
        1
176
     1
 40
0.0
176
     1
 90
        0
176
     1
290
     0
176
     1
290
     1
176
     1
290
     1
176
     1
290
     0
176
     1
290
     0
176
     1
290
     0
176
     1
290
     0
176
     1
290
     0
176
     1
290
     0
176
     1
 90
       50
176
     1
 40
0.0
176
     1
 40
1.0
176
     1
 90
        0
176
     1
 62
    18
420
        0
176
     1
 90
       50
176
     1
 90
        3
176
     1
 62
     5
420
      255
176
     1
290
     0
176
     1
 90
       50
176
     1
 90
       50
176
     1
 90
       50
176
     1
290
     0
176
     1
 90
       50
176
     1
 62
   256
176
     0
 40
1.0
176
     0
 90
        2
176
     1
  1
strokes_ogs.tif
176
     1
290
     0
176
     1
 40
1.0
176
     1
 40
1.0
176
     1
  0
VISUALSTYLE
  5
3C
102
{ACAD_REACTORS
330
29
102
}
330
29
100
AcDbVisualStyle
  2
X-Ray
 70
    25
177
     3
291
     0
 70
    58
 90
        2
176
     1
 90
        2
176
     1
 90
        1
176
     1
 90
        1
176
     1
 40
0.5
176
     1
 40
30.0
176
     1
 62
     7
420
 16777215
176
     1
 90
        1
176
     1
 90
        0
176
     1
 62
     7
176
     1
 62
   257
176
     1
 90
        1
176
     1
 90
        1
176
     1
 40
1.0
176
     1
 90
        8
176
     1
 62
     7
176
     1
 40
1.0
176
     1
 90
        1
176
     1
 90
        6
176
     1
 90
        2
176
     1
 62
     7
176
     1
 90
        3
176
     1
 90
        0
176
     1
 90
        0
176
     1
290
     0
176
     1
 90
       13
176
     1
 40
0.0
176
     1
 90
        0
176
     1
290
     0
176
     1
290
     1
176
     1
290
     1
176
     1
290
     0
176
     1
290
     0
176
     1
290
     0
176
     1
290
     0
176
     1
290
     0
176
     1
290
     0
176
     1
 90
       50
176
     1
 40
0.0
176
     1
 40
1.0
176
     1
 90
        0
176
     1
 62
    18
420
        0
176
     1
 90
       50
176
     1
 90
        3
176
     1
 62
     5
420
      255
176
     1
290
     0
176
     1
 90
       50
176
     1
 90
       50
176
     1
 90
       50
176
     1
290
     0
176
     1
 90
       50
176
     1
 62
   256
176
     0
 40
1.0
176
     0
 90
        2
176
     1
  1
strokes_ogs.tif
176
     1
290
     0
176
     1
 40
1.0
176
     1
 40
1.0
176
     1
  0
DICTIONARYVAR
  5
B9C
102
{ACAD_REACTORS
330
B96
102
}
330
B96
100
DictionaryVariables
280
     0
  1
1:1
  0
DICTIONARYVAR
  5
B98
102
{ACAD_REACTORS
330
B96
102
}
330
B96
100
DictionaryVariables
280
     0
  1
STANDARD
  0
DICTIONARYVAR
  5
B97
102
{ACAD_REACTORS
330
B96
102
}
330
B96
100
DictionaryVariables
280
     0
  1
STANDARD
  0
DICTIONARYVAR
  5
B99
102
{ACAD_REACTORS
330
B96
102
}
330
B96
100
DictionaryVariables
280
     0
  1
Imperial24
  0
DICTIONARYVAR
  5
B9A
102
{ACAD_REACTORS
330
B96
102
}
330
B96
100
DictionaryVariables
280
     0
  1
Imperial24
  0
DICTIONARYVAR
  5
B9E
102
{ACAD_REACTORS
330
B96
102
}
330
B96
100
DictionaryVariables
280
     0
  1
1
  0
DICTIONARYVAR
  5
B9F
102
{ACAD_REACTORS
330
B96
102
}
330
B96
100
DictionaryVariables
280
     0
  1
15
  0
DICTIONARYVAR
  5
B9D
102
{ACAD_REACTORS
330
B96
102
}
330
B96
100
DictionaryVariables
280
     0
  1
0
  0
DICTIONARYVAR
  5
B9B
102
{ACAD_REACTORS
330
B96
102
}
330
B96
100
DictionaryVariables
280
     0
  1
0
  0
DICTIONARY
  5
1A
330
19
100
AcDbDictionary
280
     1
281
     1
  3
BUMPTILE
360
1C
  3
DIFFUSETILE
360
1B
  3
OPACITYTILE
360
1F
  3
REFLECTIONTILE
360
1E
  3
REFRACTIONTILE
360
20
  3
SPECULARTILE
360
1D
  0
DICTIONARY
  5
12
330
11
100
AcDbDictionary
280
     1
281
     1
  3
BUMPTILE
360
14
  3
DIFFUSETILE
360
13
  3
OPACITYTILE
360
17
  3
REFLECTIONTILE
360
16
  3
REFRACTIONTILE
360
18
  3
SPECULARTILE
360
15
  0
DICTIONARY
  5
22
330
21
100
AcDbDictionary
280
     1
281
     1
  3
BUMPTILE
360
24
  3
DIFFUSETILE
360
23
  3
OPACITYTILE
360
27
  3
REFLECTIONTILE
360
26
  3
REFRACTIONTILE
360
28
  3
SPECULARTILE
360
25
  0
DICTIONARY
  5
BA0
330
64
100
AcDbDictionary
280
     1
281
     1
  3
ACAD_ROUNDTRIP_2008_TABLESTYLE_CELLSTYLEMAP
360
BA1
  0
XRECORD
  5
1C
102
{ACAD_REACTORS
330
1A
102
}
330
1A
100
AcDbXrecord
280
     1
270
     1
271
     1
  0
XRECORD
  5
1B
102
{ACAD_REACTORS
330
1A
102
}
330
1A
100
AcDbXrecord
280
     1
270
     1
271
     1
  0
XRECORD
  5
1F
102
{ACAD_REACTORS
330
1A
102
}
330
1A
100
AcDbXrecord
280
     1
270
     1
271
     1
  0
XRECORD
  5
1E
102
{ACAD_REACTORS
330
1A
102
}
330
1A
100
AcDbXrecord
280
     1
270
     1
271
     1
  0
XRECORD
  5
20
102
{ACAD_REACTORS
330
1A
102
}
330
1A
100
AcDbXrecord
280
     1
270
     1
271
     1
  0
XRECORD
  5
1D
102
{ACAD_REACTORS
330
1A
102
}
330
1A
100
AcDbXrecord
280
     1
270
     1
271
     1
  0
XRECORD
  5
14
102
{ACAD_REACTORS
330
12
102
}
330
12
100
AcDbXrecord
280
     1
270
     1
271
     1
  0
XRECORD
  5
13
102
{ACAD_REACTORS
330
12
102
}
330
12
100
AcDbXrecord
280
     1
270
     1
271
     1
  0
XRECORD
  5
17
102
{ACAD_REACTORS
330
12
102
}
330
12
100
AcDbXrecord
280
     1
270
     1
271
     1
  0
XRECORD
  5
16
102
{ACAD_REACTORS
330
12
102
}
330
12
100
AcDbXrecord
280
     1
270
     1
271
     1
  0
XRECORD
  5
18
102
{ACAD_REACTORS
330
12
102
}
330
12
100
AcDbXrecord
280
     1
270
     1
271
     1
  0
XRECORD
  5
15
102
{ACAD_REACTORS
330
12
102
}
330
12
100
AcDbXrecord
280
     1
270
     1
271
     1
  0
XRECORD
  5
24
102
{ACAD_REACTORS
330
22
102
}
330
22
100
AcDbXrecord
280
     1
270
     1
271
     1
  0
XRECORD
  5
23
102
{ACAD_REACTORS
330
22
102
}
330
22
100
AcDbXrecord
280
     1
270
     1
271
     1
  0
XRECORD
  5
27
102
{ACAD_REACTORS
330
22
102
}
330
22
100
AcDbXrecord
280
     1
270
     1
271
     1
  0
XRECORD
  5
26
102
{ACAD_REACTORS
330
22
102
}
330
22
100
AcDbXrecord
280
     1
270
     1
271
     1
  0
XRECORD
  5
28
102
{ACAD_REACTORS
330
22
102
}
330
22
100
AcDbXrecord
280
     1
270
     1
271
     1
  0
XRECORD
  5
25
102
{ACAD_REACTORS
330
22
102
}
330
22
100
AcDbXrecord
280
     1
270
     1
271
     1
  0
CELLSTYLEMAP
  5
BA1
102
{ACAD_REACTORS
330
BA0
102
}
330
BA0
100
AcDbCellStyleMap
 90
        3
300
CELLSTYLE
  1
TABLEFORMAT_BEGIN
 90
        5
170
     1
 91
        0
 92
    32768
 62
   257
 93
        1
300
CONTENTFORMAT
  1
CONTENTFORMAT_BEGIN
 90
        0
 91
        0
 92
      512
 93
        0
300

 40
0.0
140
1.0
 94
        5
 62
     0
340
55
144
0.25
309
CONTENTFORMAT_END
171
     0
 94
        0
309
TABLEFORMAT_END
  1
CELLSTYLE_BEGIN
 90
        1
 91
        1
300
_TITLE
309
CELLSTYLE_END
300
CELLSTYLE
  1
TABLEFORMAT_BEGIN
 90
        5
170
     1
 91
        0
 92
        0
 62
   257
 93
        1
300
CONTENTFORMAT
  1
CONTENTFORMAT_BEGIN
 90
        0
 91
        0
 92
      512
 93
        0
300

 40
0.0
140
1.0
 94
        5
 62
     0
340
55
144
0.18
309
CONTENTFORMAT_END
171
     0
 94
        0
309
TABLEFORMAT_END
  1
CELLSTYLE_BEGIN
 90
        2
 91
        1
300
_HEADER
309
CELLSTYLE_END
300
CELLSTYLE
  1
TABLEFORMAT_BEGIN
 90
        5
170
     1
 91
        0
 92
        0
 62
   257
 93
        1
300
CONTENTFORMAT
  1
CONTENTFORMAT_BEGIN
 90
        0
 91
        0
 92
      512
 93
        0
300

 40
0.0
140
1.0
 94
        2
 62
     0
340
55
144
0.18
309
CONTENTFORMAT_END
171
     0
 94
        0
309
TABLEFORMAT_END
  1
CELLSTYLE_BEGIN
 90
        3
 91
        2
300
_DATA
309
CELLSTYLE_END
  0
ENDSEC
  0
EOF
