M48
; DRILL file {KiCad (5.1.6)-1} date 06/17/20 00:00:37
; FORMAT={-:-/ absolute / inch / decimal}
; #@! TF.CreationDate,2020-06-17T00:00:37+01:00
; #@! TF.GenerationSoftware,Kicad,Pcbnew,(5.1.6)-1
; #@! TF.FileFunction,NonPlated,1,2,NPTH
FMAT,2
INCH
T1C0.0512
T2C0.0669
T3C0.1201
T4C0.1575
T5C0.2087
%
G90
G05
T1
X2.8543Y-0.7382
X2.8543Y-1.0138
T2
X1.5323Y-1.1762
X1.9323Y-1.1762
X3.3089Y-4.1683
X3.7089Y-4.1683
X5.0854Y-2.6722
X5.4854Y-2.6722
X4.1504Y-1.9242
X4.5504Y-1.9242
X2.2823Y-3.4272
X2.6823Y-3.4272
X3.4024Y-1.9242
X3.8024Y-1.9242
X5.2724Y-1.1762
X5.6724Y-1.1762
X2.3738Y-4.1683
X2.7738Y-4.1683
X4.3374Y-2.6722
X4.7374Y-2.6722
X4.5244Y-3.4203
X4.9244Y-3.4203
X1.5323Y-4.1683
X1.9323Y-4.1683
X3.7764Y-3.4203
X4.1764Y-3.4203
X1.7193Y-1.9242
X2.1193Y-1.9242
X4.5244Y-1.1762
X4.9244Y-1.1762
X3.7764Y-1.1762
X4.1764Y-1.1762
X3.5894Y-2.6722
X3.9894Y-2.6722
X5.8335Y-2.6722
X6.2335Y-2.6722
X1.5283Y-3.4193
X1.9283Y-3.4193
X1.8128Y-2.6722
X2.2128Y-2.6722
X3.0283Y-3.4203
X3.4283Y-3.4203
X3.0283Y-1.1762
X3.4283Y-1.1762
X2.2803Y-1.1762
X2.6803Y-1.1762
X2.6543Y-1.9242
X3.0543Y-1.9242
X4.2439Y-4.1683
X4.6439Y-4.1683
X6.0205Y-3.4203
X6.4205Y-3.4203
X2.8413Y-2.6722
X3.2413Y-2.6722
X5.553Y-4.1683
X5.953Y-4.1683
X1.9063Y-3.4203
X2.3063Y-3.4203
X4.8984Y-1.9242
X5.2984Y-1.9242
X5.2724Y-3.4203
X5.6724Y-3.4203
X5.6465Y-1.9242
X6.0465Y-1.9242
T3
X5.2844Y-4.4439
X6.2215Y-4.4439
X1.6378Y-3.6959
X2.5748Y-3.6959
T4
X2.4823Y-3.4272
X3.6024Y-1.9242
X5.4724Y-1.1762
X2.5738Y-4.1683
X4.5374Y-2.6722
X4.7244Y-3.4203
X1.7323Y-4.1683
X3.9764Y-3.4203
X1.9193Y-1.9242
X4.7244Y-1.1762
X3.9764Y-1.1762
X3.7894Y-2.6722
X6.0335Y-2.6722
X1.7283Y-3.4193
X2.0128Y-2.6722
X3.2283Y-3.4203
X3.2283Y-1.1762
X2.4803Y-1.1762
X2.8543Y-1.9242
X4.4439Y-4.1683
X6.2205Y-3.4203
X3.0413Y-2.6722
X5.2844Y-3.8439
X5.753Y-4.1683
X6.2215Y-3.8439
X1.6378Y-3.0959
X2.1063Y-3.4203
X2.5748Y-3.0959
X5.0984Y-1.9242
X5.4724Y-3.4203
X5.8465Y-1.9242
X1.7323Y-1.1762
X3.5089Y-4.1683
X5.2854Y-2.6722
X4.3504Y-1.9242
T5
X4.9213Y-3.0315
X3.4055Y-2.3228
T0
M30
