G04 #@! TF.GenerationSoftware,KiCad,Pcbnew,(5.1.6)-1*
G04 #@! TF.CreationDate,2020-06-16T23:59:54+01:00*
G04 #@! TF.ProjectId,Mint60,4d696e74-3630-42e6-9b69-6361645f7063,rev?*
G04 #@! TF.SameCoordinates,Original*
G04 #@! TF.FileFunction,Soldermask,Bot*
G04 #@! TF.FilePolarity,Negative*
%FSLAX46Y46*%
G04 Gerber Fmt 4.6, Leading zero omitted, Abs format (unit mm)*
G04 Created by KiCad (PCBNEW (5.1.6)-1) date 2020-06-16 23:59:54*
%MOMM*%
%LPD*%
G01*
G04 APERTURE LIST*
%ADD10C,2.600000*%
%ADD11C,4.400000*%
%ADD12C,2.100000*%
%ADD13C,3.450000*%
%ADD14O,2.000000X2.000000*%
%ADD15R,2.000000X2.000000*%
%ADD16C,5.700000*%
%ADD17R,2.432000X2.127200*%
%ADD18O,2.432000X2.127200*%
%ADD19C,2.200000*%
%ADD20C,1.700000*%
%ADD21O,2.400000X3.100000*%
%ADD22R,2.432000X2.432000*%
%ADD23O,2.432000X2.432000*%
%ADD24C,1.800000*%
%ADD25O,1.800000X1.800000*%
%ADD26C,2.400000*%
%ADD27R,1.924000X1.924000*%
G04 APERTURE END LIST*
D10*
X51290000Y-44430000D03*
X46290000Y-44930000D03*
D11*
X48750000Y-48875000D03*
D12*
X43670000Y-48875000D03*
X53830000Y-48875000D03*
D10*
X44940000Y-46335000D03*
X51290000Y-43795000D03*
X65590000Y-81970000D03*
X59240000Y-84510000D03*
D12*
X68130000Y-87050000D03*
X57970000Y-87050000D03*
D11*
X63050000Y-87050000D03*
D10*
X60590000Y-83105000D03*
X65590000Y-82605000D03*
X56040000Y-82430000D03*
X49690000Y-84335000D03*
D11*
X53500000Y-86875000D03*
D12*
X48420000Y-86875000D03*
X58580000Y-86875000D03*
D11*
X65400000Y-78635000D03*
X41600000Y-78635000D03*
D13*
X41600000Y-93875000D03*
X65400000Y-93875000D03*
D10*
X56040000Y-81795000D03*
X51040000Y-82930000D03*
X46440000Y-81770000D03*
X40090000Y-84310000D03*
D12*
X48980000Y-86850000D03*
X38820000Y-86850000D03*
D11*
X43900000Y-86850000D03*
D10*
X41440000Y-82905000D03*
X46440000Y-82405000D03*
D14*
X60420000Y-97100000D03*
D15*
X52800000Y-97100000D03*
D16*
X125000000Y-77000000D03*
D17*
X36950000Y-98930000D03*
D18*
X36950000Y-96390000D03*
X36950000Y-93850000D03*
X36950000Y-91310000D03*
D19*
X61690000Y-22030000D03*
X59150000Y-22030000D03*
X56610000Y-22030000D03*
X54070000Y-22030000D03*
X51530000Y-22030000D03*
X48990000Y-22030000D03*
X46450000Y-22030000D03*
X43910000Y-22000000D03*
X41370000Y-22000000D03*
X38830000Y-22000000D03*
X36290000Y-22000000D03*
X33750000Y-22000000D03*
X33690000Y-37240000D03*
X36230000Y-37240000D03*
X38770000Y-37240000D03*
X41310000Y-37240000D03*
X43850000Y-37240000D03*
X46390000Y-37270000D03*
X48930000Y-37270000D03*
X51470000Y-37270000D03*
X54010000Y-37270000D03*
X56550000Y-37270000D03*
X59090000Y-37270000D03*
X61630000Y-37270000D03*
D15*
X36750000Y-58750000D03*
D14*
X36750000Y-51130000D03*
D15*
X58250000Y-52750000D03*
D14*
X58250000Y-45130000D03*
D15*
X63000000Y-52750000D03*
D14*
X63000000Y-45130000D03*
D15*
X91500000Y-33750000D03*
D14*
X91500000Y-26130000D03*
D15*
X110500000Y-33750000D03*
D14*
X110500000Y-26130000D03*
D15*
X129500000Y-33750000D03*
D14*
X129500000Y-26130000D03*
D15*
X36650000Y-69200000D03*
D14*
X36650000Y-61580000D03*
D15*
X61500000Y-72000000D03*
D14*
X61500000Y-64380000D03*
D15*
X82000000Y-52750000D03*
D14*
X82000000Y-45130000D03*
D15*
X101000000Y-52750000D03*
D14*
X101000000Y-45130000D03*
D15*
X120000000Y-52750000D03*
D14*
X120000000Y-45130000D03*
D15*
X139000000Y-52750000D03*
D14*
X139000000Y-45130000D03*
D15*
X41500000Y-72000000D03*
D14*
X41500000Y-64380000D03*
D15*
X67250000Y-72000000D03*
D14*
X67250000Y-64380000D03*
D15*
X86750000Y-72000000D03*
D14*
X86750000Y-64380000D03*
D15*
X105750000Y-72000000D03*
D14*
X105750000Y-64380000D03*
D15*
X124750000Y-72000000D03*
D14*
X124750000Y-64380000D03*
D15*
X143750000Y-72000000D03*
D14*
X143750000Y-64380000D03*
D15*
X72500000Y-96750000D03*
D14*
X72500000Y-89130000D03*
D15*
X72500000Y-85000000D03*
D14*
X72500000Y-77380000D03*
D15*
X91500000Y-91000000D03*
D14*
X91500000Y-83380000D03*
D15*
X110500000Y-91000000D03*
D14*
X110500000Y-83380000D03*
D15*
X129500000Y-91000000D03*
D14*
X129500000Y-83380000D03*
D15*
X148500000Y-91000000D03*
D14*
X148500000Y-83380000D03*
D15*
X54750000Y-109750000D03*
D14*
X54750000Y-102130000D03*
D15*
X75000000Y-109750000D03*
D14*
X75000000Y-102130000D03*
D15*
X79750000Y-109750000D03*
D14*
X79750000Y-102130000D03*
D15*
X101000000Y-109750000D03*
D14*
X101000000Y-102130000D03*
D15*
X124800000Y-109750000D03*
D14*
X124800000Y-102130000D03*
D20*
X72500000Y-18750000D03*
X72500000Y-25750000D03*
D21*
X74800000Y-28050000D03*
X70200000Y-26950000D03*
X70200000Y-19950000D03*
X70200000Y-22950000D03*
D17*
X36600000Y-76940000D03*
D18*
X36600000Y-74400000D03*
X36600000Y-71860000D03*
D22*
X37000000Y-46000000D03*
D23*
X37000000Y-43460000D03*
D24*
X74420000Y-39250000D03*
D25*
X79500000Y-39250000D03*
D24*
X65420000Y-39250000D03*
D25*
X70500000Y-39250000D03*
D10*
X46540000Y-25430000D03*
X41540000Y-25930000D03*
D11*
X44000000Y-29875000D03*
D12*
X38920000Y-29875000D03*
X49080000Y-29875000D03*
D10*
X40190000Y-27335000D03*
X46540000Y-24795000D03*
X65540000Y-25430000D03*
X60540000Y-25930000D03*
D11*
X63000000Y-29875000D03*
D12*
X57920000Y-29875000D03*
X68080000Y-29875000D03*
D10*
X59190000Y-27335000D03*
X65540000Y-24795000D03*
X84540000Y-25430000D03*
X79540000Y-25930000D03*
D11*
X82000000Y-29875000D03*
D12*
X76920000Y-29875000D03*
X87080000Y-29875000D03*
D10*
X78190000Y-27335000D03*
X84540000Y-24795000D03*
X103540000Y-25430000D03*
X98540000Y-25930000D03*
D11*
X101000000Y-29875000D03*
D12*
X95920000Y-29875000D03*
X106080000Y-29875000D03*
D10*
X97190000Y-27335000D03*
X103540000Y-24795000D03*
X122540000Y-25430000D03*
X117540000Y-25930000D03*
D11*
X120000000Y-29875000D03*
D12*
X114920000Y-29875000D03*
X125080000Y-29875000D03*
D10*
X116190000Y-27335000D03*
X122540000Y-24795000D03*
X141540000Y-25430000D03*
X136540000Y-25930000D03*
D11*
X139000000Y-29875000D03*
D12*
X133920000Y-29875000D03*
X144080000Y-29875000D03*
D10*
X135190000Y-27335000D03*
X141540000Y-24795000D03*
X75040000Y-44430000D03*
X70040000Y-44930000D03*
D11*
X72500000Y-48875000D03*
D12*
X67420000Y-48875000D03*
X77580000Y-48875000D03*
D10*
X68690000Y-46335000D03*
X75040000Y-43795000D03*
X94040000Y-44430000D03*
X89040000Y-44930000D03*
D11*
X91500000Y-48875000D03*
D12*
X86420000Y-48875000D03*
X96580000Y-48875000D03*
D10*
X87690000Y-46335000D03*
X94040000Y-43795000D03*
X113040000Y-44430000D03*
X108040000Y-44930000D03*
D11*
X110500000Y-48875000D03*
D12*
X105420000Y-48875000D03*
X115580000Y-48875000D03*
D10*
X106690000Y-46335000D03*
X113040000Y-43795000D03*
X132040000Y-44430000D03*
X127040000Y-44930000D03*
D11*
X129500000Y-48875000D03*
D12*
X124420000Y-48875000D03*
X134580000Y-48875000D03*
D10*
X125690000Y-46335000D03*
X132040000Y-43795000D03*
X151040000Y-44430000D03*
X146040000Y-44930000D03*
D11*
X148500000Y-48875000D03*
D12*
X143420000Y-48875000D03*
X153580000Y-48875000D03*
D10*
X144690000Y-46335000D03*
X151040000Y-43795000D03*
X53665000Y-63430000D03*
X48665000Y-63930000D03*
D11*
X51125000Y-67875000D03*
D12*
X46045000Y-67875000D03*
X56205000Y-67875000D03*
D10*
X47315000Y-65335000D03*
X53665000Y-62795000D03*
X79790000Y-63430000D03*
X74790000Y-63930000D03*
D11*
X77250000Y-67875000D03*
D12*
X72170000Y-67875000D03*
X82330000Y-67875000D03*
D10*
X73440000Y-65335000D03*
X79790000Y-62795000D03*
X98790000Y-63430000D03*
X93790000Y-63930000D03*
D11*
X96250000Y-67875000D03*
D12*
X91170000Y-67875000D03*
X101330000Y-67875000D03*
D10*
X92440000Y-65335000D03*
X98790000Y-62795000D03*
X117790000Y-63430000D03*
X112790000Y-63930000D03*
D11*
X115250000Y-67875000D03*
D12*
X110170000Y-67875000D03*
X120330000Y-67875000D03*
D10*
X111440000Y-65335000D03*
X117790000Y-62795000D03*
X136790000Y-63430000D03*
X131790000Y-63930000D03*
D11*
X134250000Y-67875000D03*
D12*
X129170000Y-67875000D03*
X139330000Y-67875000D03*
D10*
X130440000Y-65335000D03*
X136790000Y-62795000D03*
X155790000Y-63430000D03*
X150790000Y-63930000D03*
D11*
X153250000Y-67875000D03*
D12*
X148170000Y-67875000D03*
X158330000Y-67875000D03*
D10*
X149440000Y-65335000D03*
X155790000Y-62795000D03*
X84540000Y-82430000D03*
X79540000Y-82930000D03*
D11*
X82000000Y-86875000D03*
D12*
X76920000Y-86875000D03*
X87080000Y-86875000D03*
D10*
X78190000Y-84335000D03*
X84540000Y-81795000D03*
X103540000Y-82430000D03*
X98540000Y-82930000D03*
D11*
X101000000Y-86875000D03*
D12*
X95920000Y-86875000D03*
X106080000Y-86875000D03*
D10*
X97190000Y-84335000D03*
X103540000Y-81795000D03*
X122540000Y-82430000D03*
X117540000Y-82930000D03*
D11*
X120000000Y-86875000D03*
D12*
X114920000Y-86875000D03*
X125080000Y-86875000D03*
D10*
X116190000Y-84335000D03*
X122540000Y-81795000D03*
X141540000Y-82430000D03*
X136540000Y-82930000D03*
D11*
X139000000Y-86875000D03*
D12*
X133920000Y-86875000D03*
X144080000Y-86875000D03*
D10*
X135190000Y-84335000D03*
X141540000Y-81795000D03*
X160540000Y-82430000D03*
X155540000Y-82930000D03*
D11*
X158000000Y-86875000D03*
D12*
X152920000Y-86875000D03*
X163080000Y-86875000D03*
D10*
X154190000Y-84335000D03*
X160540000Y-81795000D03*
X46540000Y-101430000D03*
X41540000Y-101930000D03*
D11*
X44000000Y-105875000D03*
D12*
X38920000Y-105875000D03*
X49080000Y-105875000D03*
D10*
X40190000Y-103335000D03*
X46540000Y-100795000D03*
X67915000Y-101430000D03*
X62915000Y-101930000D03*
D11*
X65375000Y-105875000D03*
D12*
X60295000Y-105875000D03*
X70455000Y-105875000D03*
D10*
X61565000Y-103335000D03*
X67915000Y-100795000D03*
X91665000Y-101430000D03*
X86665000Y-101930000D03*
D11*
X89125000Y-105875000D03*
D12*
X84045000Y-105875000D03*
X94205000Y-105875000D03*
D10*
X85315000Y-103335000D03*
X91665000Y-100795000D03*
X115415000Y-101430000D03*
X110415000Y-101930000D03*
D11*
X112875000Y-105875000D03*
D12*
X107795000Y-105875000D03*
X117955000Y-105875000D03*
D10*
X109065000Y-103335000D03*
X115415000Y-100795000D03*
D26*
X104250000Y-41750000D03*
X104250000Y-37250000D03*
X97750000Y-41750000D03*
X97750000Y-37250000D03*
D10*
X148665000Y-101430000D03*
X142315000Y-103335000D03*
D11*
X146125000Y-105875000D03*
D12*
X141045000Y-105875000D03*
X151205000Y-105875000D03*
D11*
X158025000Y-97635000D03*
X134225000Y-97635000D03*
D13*
X134225000Y-112875000D03*
X158025000Y-112875000D03*
D10*
X148665000Y-100795000D03*
X143665000Y-101930000D03*
D16*
X86500000Y-59000000D03*
D27*
X73000000Y-31000000D03*
X71095000Y-31000000D03*
M02*
