M48
; DRILL file {KiCad (5.1.6)-1} date 06/17/20 00:00:37
; FORMAT={-:-/ absolute / inch / decimal}
; #@! TF.CreationDate,2020-06-17T00:00:37+01:00
; #@! TF.GenerationSoftware,Kicad,Pcbnew,(5.1.6)-1
; #@! TF.FileFunction,Plated,1,2,PTH
FMAT,2
INCH
T1C0.0157
T2C0.0276
T3C0.0315
T4C0.0394
T5C0.0400
T6C0.0433
T7C0.0591
%
G90
G05
T1
X1.5404Y-1.9094
X1.5781Y-1.5191
X1.622Y-2.0236
X1.752Y-2.1535
X1.7717Y-1.6772
X1.7913Y-2.437
X1.8386Y-1.3307
X1.8504Y-1.6929
X2.185Y-1.9409
X2.2638Y-1.3228
X2.287Y-1.2957
X2.3071Y-1.2714
X2.3268Y-1.689
X2.3268Y-2.6969
X2.3465Y-2.3228
X2.3622Y-3.0945
X2.3898Y-1.748
X2.4646Y-1.874
X2.4646Y-2.437
X2.5039Y-1.6535
X2.5803Y-1.2244
X2.5803Y-1.2913
X2.6066Y-1.4012
X2.6299Y-1.3701
X2.6535Y-1.5896
X2.7165Y-1.5315
X2.7913Y-1.6142
X2.815Y-1.8228
X2.9016Y-2.0472
X3.0394Y-1.5472
X3.0472Y-1.5906
X3.3283Y-1.2323
X3.3283Y-1.2953
X3.4646Y-1.6063
X4.0764Y-1.2244
X4.0764Y-1.2992
X4.7402Y-1.4341
T2
X2.5756Y-1.5453
X2.7756Y-1.5453
X2.9299Y-1.5453
X3.1299Y-1.5453
T3
X1.4606Y-1.3071
X1.5571Y-2.9862
X1.9134Y-2.1142
X1.9567Y-2.0551
X1.9606Y-3.0118
X2.0039Y-1.2323
X2.063Y-2.7874
X2.0669Y-3.0236
X2.0846Y-3.1752
X2.0984Y-2.0512
X2.0984Y-2.0512
X2.0984Y-2.2008
X2.126Y-2.3583
X2.1654Y-2.7874
X2.2756Y-2.7362
X2.2795Y-2.3937
X2.2795Y-2.5276
X2.4921Y-2.2205
X2.8268Y-2.3543
X2.9429Y-0.9941
X3.1055Y-1.7209
X3.1654Y-2.2047
X3.1988Y-2.8937
X3.3346Y-2.1299
X3.4094Y-1.563
X3.4921Y-1.0315
X3.6299Y-2.126
X3.6417Y-2.2402
X4.2421Y-1.0516
X4.2441Y-1.4488
X2.4803Y-1.7768
X2.4803Y-2.0768
X5.0984Y-1.0287
X5.0984Y-1.3287
X4.7244Y-1.7768
X4.7244Y-2.0768
X2.6476Y-2.5346
X2.6476Y-2.8346
X2.1555Y-4.0209
X2.1555Y-4.3209
X1.4469Y-2.013
X1.4469Y-2.313
X4.3504Y-1.0287
X4.3504Y-1.3287
X4.3504Y-3.2827
X4.3504Y-3.5827
X3.9764Y-1.7768
X3.9764Y-2.0768
X4.9134Y-4.0209
X4.9134Y-4.3209
X3.6024Y-1.0287
X3.6024Y-1.3287
X5.4724Y-1.7768
X5.4724Y-2.0768
X1.6339Y-2.5346
X1.6339Y-2.8346
X1.4429Y-2.4244
X1.4429Y-2.7244
X3.1398Y-4.0209
X3.1398Y-4.3209
X2.0787Y-3.8228
X2.3787Y-3.8228
X5.6594Y-2.5346
X5.6594Y-2.8346
X2.4213Y-2.5346
X2.4213Y-2.8346
X4.9114Y-2.5346
X4.9114Y-2.8346
X5.0984Y-3.2827
X5.0984Y-3.5827
X4.1634Y-2.5346
X4.1634Y-2.8346
X5.8465Y-3.2827
X5.8465Y-3.5827
X2.2933Y-1.7768
X2.2933Y-2.0768
X2.8543Y-3.0465
X2.8543Y-3.3465
X3.2283Y-1.7768
X3.2283Y-2.0768
X2.8543Y-3.5091
X2.8543Y-3.8091
X3.6024Y-3.2827
X3.6024Y-3.5827
X3.4154Y-2.5346
X3.4154Y-2.8346
X2.9528Y-4.0209
X2.9528Y-4.3209
X3.9764Y-4.0209
X3.9764Y-4.3209
T5
X1.4409Y-2.8291
X1.4409Y-2.9291
X1.4409Y-3.0291
X1.4567Y-1.711
X1.4567Y-1.811
X1.4547Y-3.5949
X1.4547Y-3.6949
X1.4547Y-3.7949
X1.4547Y-3.8949
T6
X3.8484Y-1.4665
X3.8484Y-1.6437
X4.1043Y-1.4665
X4.1043Y-1.6437
X1.3264Y-1.4661
X1.3287Y-0.8661
X1.4264Y-1.4661
X1.4287Y-0.8661
X1.5264Y-1.4661
X1.5287Y-0.8661
X1.6264Y-1.4661
X1.6287Y-0.8661
X1.7264Y-1.4661
X1.7287Y-0.8661
X1.8264Y-1.4673
X1.8287Y-0.8673
X1.9264Y-1.4673
X1.9287Y-0.8673
X2.0264Y-1.4673
X2.0287Y-0.8673
X2.1264Y-1.4673
X2.1287Y-0.8673
X2.2264Y-1.4673
X2.2287Y-0.8673
X2.3264Y-1.4673
X2.3287Y-0.8673
X2.4264Y-1.4673
X2.4287Y-0.8673
T7
X1.5823Y-1.0762
X1.6354Y-1.0209
X1.8323Y-0.9762
X1.8323Y-1.0012
X3.3589Y-4.0683
X3.412Y-4.013
X3.6089Y-3.9683
X3.6089Y-3.9933
X5.1354Y-2.5722
X5.1886Y-2.5169
X5.3854Y-2.4722
X5.3854Y-2.4972
X4.2004Y-1.8242
X4.2535Y-1.7689
X4.4504Y-1.7242
X4.4504Y-1.7492
X2.3323Y-3.3272
X2.3854Y-3.2719
X2.5823Y-3.2272
X2.5823Y-3.2522
X3.4524Y-1.8242
X3.5055Y-1.7689
X3.7024Y-1.7242
X3.7024Y-1.7492
X5.3224Y-1.0762
X5.3756Y-1.0209
X5.5724Y-0.9762
X5.5724Y-1.0012
X2.4238Y-4.0683
X2.477Y-4.013
X2.6738Y-3.9683
X2.6738Y-3.9933
X4.3874Y-2.5722
X4.4406Y-2.5169
X4.6374Y-2.4722
X4.6374Y-2.4972
X4.5744Y-3.3203
X4.6276Y-3.265
X4.8244Y-3.2203
X4.8244Y-3.2453
X1.5823Y-4.0683
X1.6354Y-4.013
X1.8323Y-3.9683
X1.8323Y-3.9933
X3.8264Y-3.3203
X3.8795Y-3.265
X4.0764Y-3.2203
X4.0764Y-3.2453
X1.7693Y-1.8242
X1.8224Y-1.7689
X2.0193Y-1.7242
X2.0193Y-1.7492
X4.5744Y-1.0762
X4.6276Y-1.0209
X4.8244Y-0.9762
X4.8244Y-1.0012
X3.8264Y-1.0762
X3.8795Y-1.0209
X4.0764Y-0.9762
X4.0764Y-1.0012
X3.6394Y-2.5722
X3.6925Y-2.5169
X3.8894Y-2.4722
X3.8894Y-2.4972
X5.8835Y-2.5722
X5.9366Y-2.5169
X6.1335Y-2.4722
X6.1335Y-2.4972
X1.5783Y-3.3193
X1.6315Y-3.264
X1.8283Y-3.2193
X1.8283Y-3.2443
X1.8628Y-2.5722
X1.9159Y-2.5169
X2.1128Y-2.4722
X2.1128Y-2.4972
X3.0783Y-3.3203
X3.1315Y-3.265
X3.3283Y-3.2203
X3.3283Y-3.2453
X3.0783Y-1.0762
X3.1315Y-1.0209
X3.3283Y-0.9762
X3.3283Y-1.0012
X2.3303Y-1.0762
X2.3835Y-1.0209
X2.5803Y-0.9762
X2.5803Y-1.0012
X2.7043Y-1.8242
X2.7575Y-1.7689
X2.9543Y-1.7242
X2.9543Y-1.7492
X4.2939Y-4.0683
X4.347Y-4.013
X4.5439Y-3.9683
X4.5439Y-3.9933
X6.0705Y-3.3203
X6.1236Y-3.265
X6.3205Y-3.2203
X6.3205Y-3.2453
X2.8913Y-2.5722
X2.9445Y-2.5169
X3.1413Y-2.4722
X3.1413Y-2.4972
X5.603Y-4.0683
X5.6561Y-4.013
X5.853Y-3.9683
X5.853Y-3.9933
X1.9563Y-3.3203
X2.0094Y-3.265
X2.2063Y-3.2203
X2.2063Y-3.2453
X4.9484Y-1.8242
X5.0016Y-1.7689
X5.1984Y-1.7242
X5.1984Y-1.7492
X5.3224Y-3.3203
X5.3756Y-3.265
X5.5724Y-3.2203
X5.5724Y-3.2453
X5.6965Y-1.8242
X5.7496Y-1.7689
X5.9465Y-1.7242
X5.9465Y-1.7492
T4
G00X2.7638Y-0.8012
M15
G01X2.7638Y-0.7697
M16
G05
G00X2.7638Y-0.9193
M15
G01X2.7638Y-0.8878
M16
G05
G00X2.7638Y-1.0768
M15
G01X2.7638Y-1.0453
M16
G05
G00X2.9449Y-1.1201
M15
G01X2.9449Y-1.0886
M16
G05
T0
M30
