M48
; DRILL file {KiCad (5.1.6)-1} date 06/17/20 00:03:20
; FORMAT={-:-/ absolute / inch / decimal}
; #@! TF.CreationDate,2020-06-17T00:03:20+01:00
; #@! TF.GenerationSoftware,Kicad,Pcbnew,(5.1.6)-1
; #@! TF.FileFunction,NonPlated,1,2,NPTH
FMAT,2
INCH
T1C0.0512
T2C0.0669
T3C0.1201
T4C0.1575
T5C0.2087
%
G90
G05
T1
X6.8307Y-0.9331
X6.8307Y-1.2087
T2
X2.5165Y-3.6171
X2.9165Y-3.6171
X5.8827Y-2.1211
X6.2827Y-2.1211
X4.0126Y-3.6171
X4.4126Y-3.6171
X3.2646Y-1.373
X3.6646Y-1.373
X4.4801Y-4.3652
X4.8801Y-4.3652
X4.5736Y-2.8691
X4.9736Y-2.8691
X5.5087Y-1.373
X5.9087Y-1.373
X1.7685Y-1.373
X2.1685Y-1.373
X7.0047Y-3.6171
X7.4047Y-3.6171
X2.8906Y-2.1211
X3.2906Y-2.1211
X6.2567Y-4.3652
X6.6567Y-4.3652
X3.0776Y-2.8691
X3.4776Y-2.8691
X7.3787Y-1.373
X7.7787Y-1.373
X2.1425Y-2.1211
X2.5425Y-2.1211
X4.7606Y-3.6171
X5.1606Y-3.6171
X3.3581Y-4.3652
X3.7581Y-4.3652
X2.3295Y-2.8691
X2.7295Y-2.8691
X6.6307Y-2.1211
X7.0307Y-2.1211
X7.5657Y-2.1211
X7.9657Y-2.1211
X2.5165Y-1.373
X2.9165Y-1.373
X5.5087Y-3.6171
X5.9087Y-3.6171
X4.7606Y-1.373
X5.1606Y-1.373
X3.2646Y-3.6171
X3.6646Y-3.6171
X5.1346Y-2.1211
X5.5346Y-2.1211
X3.9191Y-4.3652
X4.3191Y-4.3652
X4.3866Y-2.1211
X4.7866Y-2.1211
X7.7528Y-3.6171
X8.1528Y-3.6171
X6.2567Y-3.6171
X6.6567Y-3.6171
X4.8541Y-4.3652
X5.2541Y-4.3652
X6.0697Y-2.8691
X6.4697Y-2.8691
X7.2852Y-2.8691
X7.6852Y-2.8691
X6.8177Y-2.8681
X7.2177Y-2.8681
X4.0126Y-1.373
X4.4126Y-1.373
X7.7528Y-4.3652
X8.1528Y-4.3652
X2.9841Y-4.3652
X3.3841Y-4.3652
X3.6386Y-2.1211
X4.0386Y-2.1211
X7.8602Y-2.3
X7.8602Y-2.7
X3.8256Y-2.8691
X4.2256Y-2.8691
X6.2567Y-1.373
X6.6567Y-1.373
X7.0047Y-4.3652
X7.4047Y-4.3652
X2.423Y-4.3652
X2.823Y-4.3652
X5.4152Y-4.3652
X5.8152Y-4.3652
X5.3217Y-2.8691
X5.7217Y-2.8691
T3
X4.5856Y-4.6407
X5.5226Y-4.6407
X7.0167Y-3.1447
X7.9537Y-3.1447
X2.7156Y-4.6407
X3.6526Y-4.6407
X8.1358Y-2.0315
X8.1358Y-2.9685
X7.1102Y-1.0974
X8.0472Y-1.0974
T4
X7.7657Y-2.1211
X2.7165Y-1.373
X5.7087Y-3.6171
X4.9606Y-1.373
X3.4646Y-3.6171
X5.3346Y-2.1211
X4.1191Y-4.3652
X4.5866Y-2.1211
X7.9528Y-3.6171
X6.4567Y-3.6171
X4.5856Y-4.0407
X5.0541Y-4.3652
X5.5226Y-4.0407
X6.2697Y-2.8691
X7.0167Y-2.5447
X7.4852Y-2.8691
X7.9537Y-2.5447
X7.0177Y-2.8681
X4.2126Y-1.373
X7.9528Y-4.3652
X2.7156Y-4.0407
X3.1841Y-4.3652
X3.6526Y-4.0407
X3.8386Y-2.1211
X7.5358Y-2.0315
X7.5358Y-2.9685
X7.8602Y-2.5
X4.0256Y-2.8691
X6.4567Y-1.373
X7.2047Y-4.3652
X2.623Y-4.3652
X5.6152Y-4.3652
X5.5217Y-2.8691
X2.7165Y-3.6171
X6.0827Y-2.1211
X4.2126Y-3.6171
X3.4646Y-1.373
X4.6801Y-4.3652
X4.7736Y-2.8691
X5.7087Y-1.373
X1.9685Y-1.373
X7.2047Y-3.6171
X3.0906Y-2.1211
X6.4567Y-4.3652
X3.2776Y-2.8691
X7.1102Y-1.6974
X7.5787Y-1.373
X8.0472Y-1.6974
X2.3425Y-2.1211
X4.9606Y-3.6171
X3.5581Y-4.3652
X2.5295Y-2.8691
X6.8307Y-2.1211
T5
X5.8858Y-2.5197
X4.3898Y-3.2283
T0
M30
