G04 #@! TF.GenerationSoftware,KiCad,Pcbnew,(5.1.6)-1*
G04 #@! TF.CreationDate,2020-06-17T00:03:13+01:00*
G04 #@! TF.ProjectId,Mint60,4d696e74-3630-42e6-9b69-6361645f7063,rev?*
G04 #@! TF.SameCoordinates,Original*
G04 #@! TF.FileFunction,Soldermask,Top*
G04 #@! TF.FilePolarity,Negative*
%FSLAX46Y46*%
G04 Gerber Fmt 4.6, Leading zero omitted, Abs format (unit mm)*
G04 Created by KiCad (PCBNEW (5.1.6)-1) date 2020-06-17 00:03:13*
%MOMM*%
%LPD*%
G01*
G04 APERTURE LIST*
%ADD10C,2.600000*%
%ADD11C,3.450000*%
%ADD12C,4.400000*%
%ADD13C,2.100000*%
%ADD14R,2.432000X2.127200*%
%ADD15O,2.432000X2.127200*%
%ADD16R,2.000000X2.000000*%
%ADD17O,2.000000X2.000000*%
%ADD18C,2.200000*%
%ADD19C,1.800000*%
%ADD20O,1.800000X1.800000*%
%ADD21R,2.432000X2.432000*%
%ADD22O,2.432000X2.432000*%
%ADD23C,1.700000*%
%ADD24O,2.400000X3.100000*%
%ADD25C,2.400000*%
%ADD26C,5.700000*%
G04 APERTURE END LIST*
D10*
X203595000Y-61040000D03*
X204730000Y-66040000D03*
D11*
X206650000Y-75400000D03*
X206650000Y-51600000D03*
D12*
X191410000Y-51600000D03*
X191410000Y-75400000D03*
D13*
X199650000Y-68580000D03*
X199650000Y-58420000D03*
D12*
X199650000Y-63500000D03*
D10*
X202190000Y-59690000D03*
X204095000Y-66040000D03*
X180790000Y-67770000D03*
X174440000Y-70310000D03*
D13*
X183330000Y-72850000D03*
X173170000Y-72850000D03*
D12*
X178250000Y-72850000D03*
D10*
X175790000Y-68905000D03*
X180790000Y-68405000D03*
X52540000Y-30430000D03*
X47540000Y-30930000D03*
D12*
X50000000Y-34875000D03*
D13*
X44920000Y-34875000D03*
X55080000Y-34875000D03*
D10*
X46190000Y-32335000D03*
X52540000Y-29795000D03*
X195040000Y-30430000D03*
X188690000Y-32335000D03*
D12*
X192500000Y-34875000D03*
D13*
X187420000Y-34875000D03*
X197580000Y-34875000D03*
D12*
X204400000Y-43115000D03*
X180600000Y-43115000D03*
D11*
X180600000Y-27875000D03*
X204400000Y-27875000D03*
D10*
X195040000Y-29795000D03*
X190040000Y-30930000D03*
D14*
X60750000Y-94000000D03*
D15*
X60750000Y-91460000D03*
X60750000Y-88920000D03*
D16*
X73750000Y-82420000D03*
D17*
X73750000Y-74800000D03*
D10*
X71540000Y-87430000D03*
X66540000Y-87930000D03*
D12*
X69000000Y-91875000D03*
D13*
X63920000Y-91875000D03*
X74080000Y-91875000D03*
D10*
X65190000Y-89335000D03*
X71540000Y-86795000D03*
D16*
X198850000Y-79700000D03*
D17*
X198850000Y-72080000D03*
D10*
X147540000Y-30430000D03*
X142540000Y-30930000D03*
D12*
X145000000Y-34875000D03*
D13*
X139920000Y-34875000D03*
X150080000Y-34875000D03*
D10*
X141190000Y-32335000D03*
X147540000Y-29795000D03*
X199790000Y-49430000D03*
X194790000Y-49930000D03*
D12*
X197250000Y-53875000D03*
D13*
X192170000Y-53875000D03*
X202330000Y-53875000D03*
D10*
X193440000Y-51335000D03*
X199790000Y-48795000D03*
X185540000Y-87430000D03*
X180540000Y-87930000D03*
D12*
X183000000Y-91875000D03*
D13*
X177920000Y-91875000D03*
X188080000Y-91875000D03*
D10*
X179190000Y-89335000D03*
X185540000Y-86795000D03*
X157040000Y-49430000D03*
X152040000Y-49930000D03*
D12*
X154500000Y-53875000D03*
D13*
X149420000Y-53875000D03*
X159580000Y-53875000D03*
D10*
X150690000Y-51335000D03*
X157040000Y-48795000D03*
D18*
X71940000Y-27030000D03*
X69400000Y-27030000D03*
X66860000Y-27030000D03*
X64320000Y-27030000D03*
X61780000Y-27030000D03*
X59240000Y-27030000D03*
X56700000Y-27030000D03*
X54160000Y-27000000D03*
X51620000Y-27000000D03*
X49080000Y-27000000D03*
X46540000Y-27000000D03*
X44000000Y-27000000D03*
X43940000Y-42240000D03*
X46480000Y-42240000D03*
X49020000Y-42240000D03*
X51560000Y-42240000D03*
X54100000Y-42240000D03*
X56640000Y-42270000D03*
X59180000Y-42270000D03*
X61720000Y-42270000D03*
X64260000Y-42270000D03*
X66800000Y-42270000D03*
X69340000Y-42270000D03*
X71880000Y-42270000D03*
D16*
X69000000Y-57800000D03*
D17*
X69000000Y-50180000D03*
D16*
X78500000Y-39100000D03*
D17*
X78500000Y-31480000D03*
D16*
X97500000Y-39000000D03*
D17*
X97500000Y-31380000D03*
D16*
X116500000Y-39000000D03*
D17*
X116500000Y-31380000D03*
D16*
X135500000Y-39000000D03*
D17*
X135500000Y-31380000D03*
D16*
X154500000Y-39000000D03*
D17*
X154500000Y-31380000D03*
D16*
X164000000Y-52750000D03*
D17*
X164000000Y-45130000D03*
D16*
X209500000Y-39000000D03*
D17*
X209500000Y-31380000D03*
D16*
X73800000Y-70700000D03*
D17*
X73800000Y-63080000D03*
D16*
X88000000Y-57800000D03*
D17*
X88000000Y-50180000D03*
D16*
X107000000Y-57750000D03*
D17*
X107000000Y-50130000D03*
D16*
X126000000Y-57750000D03*
D17*
X126000000Y-50130000D03*
D16*
X145000000Y-57750000D03*
D17*
X145000000Y-50130000D03*
D16*
X164000000Y-64250000D03*
D17*
X164000000Y-56630000D03*
D16*
X183000000Y-57750000D03*
D17*
X183000000Y-50130000D03*
D16*
X187750000Y-57750000D03*
D17*
X187750000Y-50130000D03*
D16*
X92750000Y-76500000D03*
D17*
X92750000Y-68880000D03*
D16*
X111750000Y-76500000D03*
D17*
X111750000Y-68880000D03*
D16*
X130750000Y-76500000D03*
D17*
X130750000Y-68880000D03*
D16*
X149750000Y-76500000D03*
D17*
X149750000Y-68880000D03*
D16*
X168750000Y-76500000D03*
D17*
X168750000Y-68880000D03*
D16*
X78500000Y-95250000D03*
D17*
X78500000Y-87630000D03*
D16*
X97500000Y-95250000D03*
D17*
X97500000Y-87630000D03*
D16*
X116500000Y-95250000D03*
D17*
X116500000Y-87630000D03*
D16*
X135500000Y-95250000D03*
D17*
X135500000Y-87630000D03*
D16*
X154500000Y-95250000D03*
D17*
X154500000Y-87630000D03*
D16*
X173500000Y-104750000D03*
D17*
X173500000Y-97130000D03*
D14*
X209000000Y-63250000D03*
D15*
X209000000Y-60710000D03*
X209000000Y-58170000D03*
X209000000Y-55630000D03*
D19*
X171500000Y-39920000D03*
D20*
X171500000Y-45000000D03*
D19*
X175500000Y-45000000D03*
D20*
X175500000Y-39920000D03*
D10*
X71540000Y-30430000D03*
X66540000Y-30930000D03*
D12*
X69000000Y-34875000D03*
D13*
X63920000Y-34875000D03*
X74080000Y-34875000D03*
D10*
X65190000Y-32335000D03*
X71540000Y-29795000D03*
X90540000Y-30430000D03*
X85540000Y-30930000D03*
D12*
X88000000Y-34875000D03*
D13*
X82920000Y-34875000D03*
X93080000Y-34875000D03*
D10*
X84190000Y-32335000D03*
X90540000Y-29795000D03*
X109540000Y-30430000D03*
X104540000Y-30930000D03*
D12*
X107000000Y-34875000D03*
D13*
X101920000Y-34875000D03*
X112080000Y-34875000D03*
D10*
X103190000Y-32335000D03*
X109540000Y-29795000D03*
X128540000Y-30430000D03*
X123540000Y-30930000D03*
D12*
X126000000Y-34875000D03*
D13*
X120920000Y-34875000D03*
X131080000Y-34875000D03*
D10*
X122190000Y-32335000D03*
X128540000Y-29795000D03*
X166540000Y-30430000D03*
X161540000Y-30930000D03*
D12*
X164000000Y-34875000D03*
D13*
X158920000Y-34875000D03*
X169080000Y-34875000D03*
D10*
X160190000Y-32335000D03*
X166540000Y-29795000D03*
X62040000Y-49430000D03*
X57040000Y-49930000D03*
D12*
X59500000Y-53875000D03*
D13*
X54420000Y-53875000D03*
X64580000Y-53875000D03*
D10*
X55690000Y-51335000D03*
X62040000Y-48795000D03*
X81040000Y-49430000D03*
X76040000Y-49930000D03*
D12*
X78500000Y-53875000D03*
D13*
X73420000Y-53875000D03*
X83580000Y-53875000D03*
D10*
X74690000Y-51335000D03*
X81040000Y-48795000D03*
X100040000Y-49430000D03*
X95040000Y-49930000D03*
D12*
X97500000Y-53875000D03*
D13*
X92420000Y-53875000D03*
X102580000Y-53875000D03*
D10*
X93690000Y-51335000D03*
X100040000Y-48795000D03*
X119040000Y-49430000D03*
X114040000Y-49930000D03*
D12*
X116500000Y-53875000D03*
D13*
X111420000Y-53875000D03*
X121580000Y-53875000D03*
D10*
X112690000Y-51335000D03*
X119040000Y-48795000D03*
X138040000Y-49430000D03*
X133040000Y-49930000D03*
D12*
X135500000Y-53875000D03*
D13*
X130420000Y-53875000D03*
X140580000Y-53875000D03*
D10*
X131690000Y-51335000D03*
X138040000Y-48795000D03*
X176040000Y-49430000D03*
X171040000Y-49930000D03*
D12*
X173500000Y-53875000D03*
D13*
X168420000Y-53875000D03*
X178580000Y-53875000D03*
D10*
X169690000Y-51335000D03*
X176040000Y-48795000D03*
X66790000Y-68430000D03*
X61790000Y-68930000D03*
D12*
X64250000Y-72875000D03*
D13*
X59170000Y-72875000D03*
X69330000Y-72875000D03*
D10*
X60440000Y-70335000D03*
X66790000Y-67795000D03*
X85790000Y-68430000D03*
X80790000Y-68930000D03*
D12*
X83250000Y-72875000D03*
D13*
X78170000Y-72875000D03*
X88330000Y-72875000D03*
D10*
X79440000Y-70335000D03*
X85790000Y-67795000D03*
X123790000Y-68430000D03*
X118790000Y-68930000D03*
D12*
X121250000Y-72875000D03*
D13*
X116170000Y-72875000D03*
X126330000Y-72875000D03*
D10*
X117440000Y-70335000D03*
X123790000Y-67795000D03*
X142790000Y-68430000D03*
X137790000Y-68930000D03*
D12*
X140250000Y-72875000D03*
D13*
X135170000Y-72875000D03*
X145330000Y-72875000D03*
D10*
X136440000Y-70335000D03*
X142790000Y-67795000D03*
X161790000Y-68430000D03*
X156790000Y-68930000D03*
D12*
X159250000Y-72875000D03*
D13*
X154170000Y-72875000D03*
X164330000Y-72875000D03*
D10*
X155440000Y-70335000D03*
X161790000Y-67795000D03*
X90540000Y-87430000D03*
X85540000Y-87930000D03*
D12*
X88000000Y-91875000D03*
D13*
X82920000Y-91875000D03*
X93080000Y-91875000D03*
D10*
X84190000Y-89335000D03*
X90540000Y-86795000D03*
X109540000Y-87430000D03*
X104540000Y-87930000D03*
D12*
X107000000Y-91875000D03*
D13*
X101920000Y-91875000D03*
X112080000Y-91875000D03*
D10*
X103190000Y-89335000D03*
X109540000Y-86795000D03*
X128540000Y-87430000D03*
X123540000Y-87930000D03*
D12*
X126000000Y-91875000D03*
D13*
X120920000Y-91875000D03*
X131080000Y-91875000D03*
D10*
X122190000Y-89335000D03*
X128540000Y-86795000D03*
X147540000Y-87430000D03*
X142540000Y-87930000D03*
D12*
X145000000Y-91875000D03*
D13*
X139920000Y-91875000D03*
X150080000Y-91875000D03*
D10*
X141190000Y-89335000D03*
X147540000Y-86795000D03*
D16*
X173500000Y-92000000D03*
D17*
X173500000Y-84380000D03*
D16*
X192500000Y-92000000D03*
D17*
X192500000Y-84380000D03*
D16*
X173500000Y-117250000D03*
D17*
X173500000Y-109630000D03*
D16*
X192500000Y-117250000D03*
D17*
X192500000Y-109630000D03*
D16*
X192500000Y-104750000D03*
D17*
X192500000Y-97130000D03*
D16*
X58400000Y-118620000D03*
D17*
X58400000Y-111000000D03*
D16*
X151500000Y-115250000D03*
D17*
X151500000Y-107630000D03*
D16*
X155250000Y-115250000D03*
D17*
X155250000Y-107630000D03*
D10*
X104790000Y-68430000D03*
X99790000Y-68930000D03*
D12*
X102250000Y-72875000D03*
D13*
X97170000Y-72875000D03*
X107330000Y-72875000D03*
D10*
X98440000Y-70335000D03*
X104790000Y-67795000D03*
X166540000Y-87430000D03*
X161540000Y-87930000D03*
D12*
X164000000Y-91875000D03*
D13*
X158920000Y-91875000D03*
X169080000Y-91875000D03*
D10*
X160190000Y-89335000D03*
X166540000Y-86795000D03*
X204540000Y-87430000D03*
X199540000Y-87930000D03*
D12*
X202000000Y-91875000D03*
D13*
X196920000Y-91875000D03*
X207080000Y-91875000D03*
D10*
X198190000Y-89335000D03*
X204540000Y-86795000D03*
X166540000Y-106430000D03*
X161540000Y-106930000D03*
D12*
X164000000Y-110875000D03*
D13*
X158920000Y-110875000D03*
X169080000Y-110875000D03*
D10*
X160190000Y-108335000D03*
X166540000Y-105795000D03*
X185540000Y-106430000D03*
X180540000Y-106930000D03*
D12*
X183000000Y-110875000D03*
D13*
X177920000Y-110875000D03*
X188080000Y-110875000D03*
D10*
X179190000Y-108335000D03*
X185540000Y-105795000D03*
X204540000Y-106430000D03*
X199540000Y-106930000D03*
D12*
X202000000Y-110875000D03*
D13*
X196920000Y-110875000D03*
X207080000Y-110875000D03*
D10*
X198190000Y-108335000D03*
X204540000Y-105795000D03*
X87835000Y-115320000D03*
X92835000Y-114820000D03*
D12*
X90375000Y-110875000D03*
D13*
X95455000Y-110875000D03*
X85295000Y-110875000D03*
D10*
X94185000Y-113415000D03*
X87835000Y-115955000D03*
D21*
X208950000Y-45600000D03*
D22*
X208950000Y-43060000D03*
D23*
X173500000Y-23700000D03*
X173500000Y-30700000D03*
D24*
X175800000Y-33000000D03*
X171200000Y-31900000D03*
X171200000Y-24900000D03*
X171200000Y-27900000D03*
D10*
X64085000Y-115320000D03*
X69085000Y-114820000D03*
D12*
X66625000Y-110875000D03*
D13*
X71705000Y-110875000D03*
X61545000Y-110875000D03*
D10*
X70435000Y-113415000D03*
X64085000Y-115955000D03*
X121415000Y-106430000D03*
X116415000Y-106930000D03*
D12*
X118875000Y-110875000D03*
D13*
X113795000Y-110875000D03*
X123955000Y-110875000D03*
D10*
X115065000Y-108335000D03*
X121415000Y-105795000D03*
X145165000Y-106430000D03*
X140165000Y-106930000D03*
D12*
X142625000Y-110875000D03*
D13*
X137545000Y-110875000D03*
X147705000Y-110875000D03*
D10*
X138815000Y-108335000D03*
X145165000Y-105795000D03*
D25*
X103600000Y-42100000D03*
X103600000Y-46600000D03*
X110100000Y-42100000D03*
X110100000Y-46600000D03*
D10*
X107165000Y-106430000D03*
X102165000Y-106930000D03*
D12*
X104625000Y-110875000D03*
D13*
X99545000Y-110875000D03*
X109705000Y-110875000D03*
D10*
X100815000Y-108335000D03*
X107165000Y-105795000D03*
X192665000Y-68430000D03*
X186315000Y-70335000D03*
D12*
X190125000Y-72875000D03*
D13*
X185045000Y-72875000D03*
X195205000Y-72875000D03*
D12*
X202025000Y-64635000D03*
X178225000Y-64635000D03*
D11*
X178225000Y-79875000D03*
X202025000Y-79875000D03*
D10*
X192665000Y-67795000D03*
X187665000Y-68930000D03*
X83415000Y-106430000D03*
X77065000Y-108335000D03*
D12*
X80875000Y-110875000D03*
D13*
X75795000Y-110875000D03*
X85955000Y-110875000D03*
D12*
X92775000Y-102635000D03*
X68975000Y-102635000D03*
D11*
X68975000Y-117875000D03*
X92775000Y-117875000D03*
D10*
X83415000Y-105795000D03*
X78415000Y-106930000D03*
X130915000Y-106430000D03*
X124565000Y-108335000D03*
D12*
X128375000Y-110875000D03*
D13*
X123295000Y-110875000D03*
X133455000Y-110875000D03*
D12*
X140275000Y-102635000D03*
X116475000Y-102635000D03*
D11*
X116475000Y-117875000D03*
X140275000Y-117875000D03*
D10*
X130915000Y-105795000D03*
X125915000Y-106930000D03*
D26*
X149500000Y-64000000D03*
X111500000Y-82000000D03*
M02*
