M48
; DRILL file {KiCad (5.1.6)-1} date 06/17/20 00:03:20
; FORMAT={-:-/ absolute / inch / decimal}
; #@! TF.CreationDate,2020-06-17T00:03:20+01:00
; #@! TF.GenerationSoftware,Kicad,Pcbnew,(5.1.6)-1
; #@! TF.FileFunction,Plated,1,2,PTH
FMAT,2
INCH
T1C0.0157
T2C0.0276
T3C0.0315
T4C0.0394
T5C0.0400
T6C0.0433
T7C0.0591
%
G90
G05
T1
X2.1378Y-1.7992
X2.2283Y-1.4488
X2.3583Y-2.4803
X2.4606Y-3.9291
X2.4921Y-3.2795
X2.4921Y-3.4094
X2.5197Y-1.5748
X2.5935Y-2.2372
X2.7126Y-2.4843
X2.752Y-2.9449
X2.752Y-4.252
X2.8299Y-1.9417
X2.8819Y-4.126
X2.9606Y-1.6063
X2.9606Y-1.6063
X3.0906Y-3.9252
X3.189Y-1.8346
X3.2677Y-1.5079
X3.3622Y-1.5079
X3.4646Y-2.7598
X4.1102Y-1.4843
X5.8403Y-1.7709
X5.8661Y-1.7323
X5.8819Y-4.1024
X5.9016Y-1.7008
X6.252Y-1.8228
X6.315Y-1.811
X6.3189Y-1.6181
X6.3543Y-1.7717
X6.4646Y-1.4764
X6.6063Y-1.4331
X6.8307Y-1.3661
X7.0039Y-2.2205
X7.3307Y-1.815
X7.4488Y-1.8228
X7.9764Y-1.5354
T2
X6.752Y-1.5717
X6.752Y-1.7717
X6.9094Y-1.5717
X6.9094Y-1.7717
T3
X1.9646Y-1.8858
X2.0906Y-2.3661
X2.5236Y-2.3661
X2.5866Y-3.2205
X2.6339Y-1.5276
X2.6693Y-2.1811
X2.7047Y-2.126
X2.7362Y-2.5906
X2.7362Y-3.2205
X2.9764Y-1.5276
X3.0472Y-1.1417
X3.0591Y-2.3701
X3.0669Y-3.1457
X3.1654Y-3.0472
X3.189Y-1.2008
X3.2598Y-2.2795
X3.3583Y-2.3465
X3.4449Y-1.1378
X3.5Y-2.0551
X3.5512Y-2.185
X3.9409Y-1.2165
X3.9567Y-2.5866
X3.9882Y-2.2323
X4.1969Y-1.1417
X4.3543Y-2.4646
X4.4213Y-1.2795
X4.4803Y-1.5866
X4.7244Y-2.4449
X4.9094Y-2.1378
X5.2559Y-1.8268
X5.5157Y-1.6417
X5.748Y-2.3465
X5.815Y-2.2047
X5.8504Y-1.6102
X5.9921Y-1.7008
X6.0315Y-1.3976
X6.0315Y-1.6575
X6.1811Y-1.1339
X6.4094Y-1.6575
X6.4606Y-1.2362
X6.4606Y-1.7087
X6.8465Y-1.0433
X7.2047Y-1.3622
X7.3071Y-1.0591
X7.5Y-2.2638
X7.5591Y-1.7087
X7.752Y-1.0551
X7.9173Y-1.6181
X7.9331Y-1.1654
X8.0433Y-1.3386
X8.0927Y-2.6949
X8.1457Y-1.2913
X4.9606Y-1.9736
X4.9606Y-2.2736
X4.5866Y-1.2354
X4.5866Y-1.5354
X3.0906Y-1.2394
X3.0906Y-1.5394
X2.7165Y-1.9756
X2.7165Y-2.2756
X4.5866Y-3.45
X4.5866Y-3.75
X6.0827Y-3.45
X6.0827Y-3.75
X2.2992Y-4.3701
X2.2992Y-4.6701
X4.2126Y-1.9736
X4.2126Y-2.2736
X6.0827Y-1.2354
X6.0827Y-1.5354
X5.3346Y-3.45
X5.3346Y-3.75
X7.5787Y-4.3161
X7.5787Y-4.6161
X3.0906Y-3.45
X3.0906Y-3.75
X6.1122Y-4.2374
X6.1122Y-4.5374
X5.3346Y-1.2354
X5.3346Y-1.5354
X5.1476Y-2.7118
X5.1476Y-3.0118
X2.9035Y-2.9449
X2.9035Y-3.2449
X5.8957Y-2.7118
X5.8957Y-3.0118
X5.9646Y-4.2374
X5.9646Y-4.5374
X6.4567Y-1.7768
X6.4567Y-2.0768
X4.3996Y-2.7118
X4.3996Y-3.0118
X6.6437Y-2.7118
X6.6437Y-3.0118
X6.8307Y-3.322
X6.8307Y-3.622
X7.5787Y-3.322
X7.5787Y-3.622
X7.2047Y-1.9736
X7.2047Y-2.2736
X3.4646Y-1.9756
X3.4646Y-2.2756
X3.6516Y-2.7118
X3.6516Y-3.0118
X7.5787Y-3.824
X7.5787Y-4.124
X2.9055Y-2.4835
X2.9055Y-2.7835
X8.248Y-1.2354
X8.248Y-1.5354
X7.3917Y-1.9736
X7.3917Y-2.2736
X3.8386Y-3.45
X3.8386Y-3.75
X6.8307Y-4.3161
X6.8307Y-4.6161
X6.8307Y-3.824
X6.8307Y-4.124
X5.7087Y-1.9736
X5.7087Y-2.2736
X3.8386Y-1.2354
X3.8386Y-1.5354
X6.4567Y-2.2295
X6.4567Y-2.5295
X7.8287Y-2.8378
X7.8287Y-3.1378
T5
X8.2283Y-2.1902
X8.2283Y-2.2902
X8.2283Y-2.3902
X8.2283Y-2.4902
X2.3917Y-3.5008
X2.3917Y-3.6008
X2.3917Y-3.7008
X8.2264Y-1.6953
X8.2264Y-1.7953
T6
X4.0787Y-1.6575
X4.0787Y-1.8346
X4.3346Y-1.6575
X4.3346Y-1.8346
X1.7299Y-1.663
X1.7323Y-1.063
X1.8299Y-1.663
X1.8323Y-1.063
X1.9299Y-1.663
X1.9323Y-1.063
X2.0299Y-1.663
X2.0323Y-1.063
X2.1299Y-1.663
X2.1323Y-1.063
X2.2299Y-1.6642
X2.2323Y-1.0642
X2.3299Y-1.6642
X2.3323Y-1.0642
X2.4299Y-1.6642
X2.4323Y-1.0642
X2.5299Y-1.6642
X2.5323Y-1.0642
X2.6299Y-1.6642
X2.6323Y-1.0642
X2.7299Y-1.6642
X2.7323Y-1.0642
X2.8299Y-1.6642
X2.8323Y-1.0642
T7
X2.5665Y-3.5171
X2.6197Y-3.4618
X2.8165Y-3.4171
X2.8165Y-3.4421
X5.9327Y-2.0211
X5.9858Y-1.9657
X6.1827Y-1.9211
X6.1827Y-1.9461
X4.0626Y-3.5171
X4.1157Y-3.4618
X4.3126Y-3.4171
X4.3126Y-3.4421
X3.3146Y-1.273
X3.3677Y-1.2177
X3.5646Y-1.173
X3.5646Y-1.198
X4.5301Y-4.2652
X4.5833Y-4.2098
X4.7801Y-4.1652
X4.7801Y-4.1902
X4.6236Y-2.7691
X4.6768Y-2.7138
X4.8736Y-2.6691
X4.8736Y-2.6941
X5.5587Y-1.273
X5.6118Y-1.2177
X5.8087Y-1.173
X5.8087Y-1.198
X1.8185Y-1.273
X1.8717Y-1.2177
X2.0685Y-1.173
X2.0685Y-1.198
X7.0547Y-3.5171
X7.1079Y-3.4618
X7.3047Y-3.4171
X7.3047Y-3.4421
X2.9406Y-2.0211
X2.9937Y-1.9657
X3.1906Y-1.9211
X3.1906Y-1.9461
X6.3067Y-4.2652
X6.3598Y-4.2098
X6.5567Y-4.1652
X6.5567Y-4.1902
X3.1276Y-2.7691
X3.1807Y-2.7138
X3.3776Y-2.6691
X3.3776Y-2.6941
X7.4287Y-1.273
X7.4819Y-1.2177
X7.6787Y-1.173
X7.6787Y-1.198
X2.1925Y-2.0211
X2.2457Y-1.9657
X2.4425Y-1.9211
X2.4425Y-1.9461
X4.8106Y-3.5171
X4.8638Y-3.4618
X5.0606Y-3.4171
X5.0606Y-3.4421
X3.4581Y-4.5402
X3.4581Y-4.5652
X3.6549Y-4.5205
X3.7081Y-4.4652
X2.3795Y-2.7691
X2.4327Y-2.7138
X2.6295Y-2.6691
X2.6295Y-2.6941
X6.6807Y-2.0211
X6.7339Y-1.9657
X6.9307Y-1.9211
X6.9307Y-1.9461
X7.6157Y-2.0211
X7.6689Y-1.9657
X7.8657Y-1.9211
X7.8657Y-1.9461
X2.5665Y-1.273
X2.6197Y-1.2177
X2.8165Y-1.173
X2.8165Y-1.198
X5.5587Y-3.5171
X5.6118Y-3.4618
X5.8087Y-3.4171
X5.8087Y-3.4421
X4.8106Y-1.273
X4.8638Y-1.2177
X5.0606Y-1.173
X5.0606Y-1.198
X3.3146Y-3.5171
X3.3677Y-3.4618
X3.5646Y-3.4171
X3.5646Y-3.4421
X5.1846Y-2.0211
X5.2378Y-1.9657
X5.4346Y-1.9211
X5.4346Y-1.9461
X3.9691Y-4.2652
X4.0222Y-4.2098
X4.2191Y-4.1652
X4.2191Y-4.1902
X4.4366Y-2.0211
X4.4898Y-1.9657
X4.6866Y-1.9211
X4.6866Y-1.9461
X7.8028Y-3.5171
X7.8559Y-3.4618
X8.0528Y-3.4171
X8.0528Y-3.4421
X6.3067Y-3.5171
X6.3598Y-3.4618
X6.5567Y-3.4171
X6.5567Y-3.4421
X4.9041Y-4.2652
X4.9573Y-4.2098
X5.1541Y-4.1652
X5.1541Y-4.1902
X6.1197Y-2.7691
X6.1728Y-2.7138
X6.3697Y-2.6691
X6.3697Y-2.6941
X7.3352Y-2.7691
X7.3884Y-2.7138
X7.5852Y-2.6691
X7.5852Y-2.6941
X6.8677Y-2.7681
X6.9209Y-2.7128
X7.1177Y-2.6681
X7.1177Y-2.6931
X4.0626Y-1.273
X4.1157Y-1.2177
X4.3126Y-1.173
X4.3126Y-1.198
X7.8028Y-4.2652
X7.8559Y-4.2098
X8.0528Y-4.1652
X8.0528Y-4.1902
X3.0341Y-4.2652
X3.0872Y-4.2098
X3.2841Y-4.1652
X3.2841Y-4.1902
X3.6886Y-2.0211
X3.7417Y-1.9657
X3.9386Y-1.9211
X3.9386Y-1.9461
X7.9602Y-2.35
X8.0156Y-2.4031
X8.0352Y-2.6
X8.0602Y-2.6
X3.8756Y-2.7691
X3.9287Y-2.7138
X4.1256Y-2.6691
X4.1256Y-2.6941
X6.3067Y-1.273
X6.3598Y-1.2177
X6.5567Y-1.173
X6.5567Y-1.198
X7.0547Y-4.2652
X7.1079Y-4.2098
X7.3047Y-4.1652
X7.3047Y-4.1902
X2.523Y-4.5402
X2.523Y-4.5652
X2.7199Y-4.5205
X2.773Y-4.4652
X5.4652Y-4.2652
X5.5183Y-4.2098
X5.7152Y-4.1652
X5.7152Y-4.1902
X5.3717Y-2.7691
X5.4248Y-2.7138
X5.6217Y-2.6691
X5.6217Y-2.6941
T4
G00X6.7402Y-0.9961
M15
G01X6.7402Y-0.9646
M16
G05
G00X6.7402Y-1.1142
M15
G01X6.7402Y-1.0827
M16
G05
G00X6.7402Y-1.2717
M15
G01X6.7402Y-1.2402
M16
G05
G00X6.9213Y-1.315
M15
G01X6.9213Y-1.2835
M16
G05
T0
M30
